<svg xmlns="http://www.w3.org/2000/svg" xmlns:xlink="http://www.w3.org/1999/xlink" width="42" height="52" viewBox="0 0 42 52"><defs><path id="izo8a" d="M571.612 463.95h-27.62v-35.983a.73.73 0 1 0-1.46 0v36.226c0 .67.546 1.215 1.217 1.215h27.863a.73.73 0 0 0 0-1.458z"/><path id="izo8b" d="M582.103 422.31l-6.2-6.375a.73.73 0 0 0-.522-.221h-31.632c-.67 0-1.216.545-1.216 1.216v5.689a.73.73 0 1 0 1.459 0v-5.446h31.08l5.779 5.94v40.836h-4.134a.73.73 0 1 0 0 1.46h4.377c.67 0 1.216-.546 1.216-1.216v-41.375a.73.73 0 0 0-.207-.509z"/><path id="izo8c" d="M576.11 422.088v-3.849l3.743 3.85h-3.743zm5.993.221l-6.2-6.374a.73.73 0 0 0-1.252.508v6.375c0 .402.327.729.73.729h6.2a.73.73 0 0 0 .522-1.238z"/><path id="izo8d" d="M565.554 424.59h-17.088v-3.545h17.088zm.243-5.004h-17.574c-.67 0-1.216.546-1.216 1.216v4.031c0 .67.545 1.216 1.216 1.216h17.574c.67 0 1.216-.545 1.216-1.216v-4.031c0-.67-.546-1.216-1.216-1.216z"/><path id="izo8e" d="M554.292 429.866a.73.73 0 0 0-1.022.14l-3.223 4.24-.967-.847a.73.73 0 1 0-.961 1.098l1.556 1.361a.73.73 0 0 0 1.061-.107l3.696-4.863a.73.73 0 0 0-.14-1.022z"/><path id="izo8f" d="M576.243 429.717h-18.37a.73.73 0 1 0 0 1.46h18.37a.73.73 0 1 0 0-1.46z"/><path id="izo8g" d="M572.523 433.735h-14.65a.73.73 0 1 0 0 1.46h14.65a.73.73 0 1 0 0-1.46z"/><path id="izo8h" d="M554.292 439.786a.73.73 0 0 0-1.022.14l-3.223 4.24-.967-.847a.73.73 0 0 0-.961 1.098l1.556 1.361a.73.73 0 0 0 1.061-.108l3.696-4.862a.73.73 0 0 0-.14-1.022z"/><path id="izo8i" d="M576.243 439.637h-18.37a.73.73 0 1 0 0 1.459h18.37a.73.73 0 1 0 0-1.459z"/><path id="izo8j" d="M572.523 443.655h-14.65a.73.73 0 1 0 0 1.459h14.65a.73.73 0 0 0 0-1.459z"/><path id="izo8k" d="M576.243 449.557h-18.37a.73.73 0 1 0 0 1.459h18.37a.73.73 0 0 0 0-1.459z"/><path id="izo8l" d="M572.523 453.575h-14.65a.73.73 0 1 0 0 1.459h14.65a.73.73 0 1 0 0-1.459z"/><path id="izo8m" d="M552.732 454.42h-3.403v-3.404h3.403zm.243-4.863h-3.89c-.67 0-1.215.545-1.215 1.216v3.89c0 .67.545 1.215 1.215 1.215h3.89c.67 0 1.216-.545 1.216-1.215v-3.89c0-.67-.545-1.216-1.216-1.216z"/></defs><g><g transform="translate(-541 -414)"><g><g><g><use fill="#d6d6d6" xlink:href="#izo8a"/><use fill="#fff" fill-opacity="0" stroke="#d6d6d6" stroke-miterlimit="50" stroke-width=".75" xlink:href="#izo8a"/></g></g></g><g><g><g><use fill="#d6d6d6" xlink:href="#izo8b"/><use fill="#fff" fill-opacity="0" stroke="#d6d6d6" stroke-miterlimit="50" stroke-width=".75" xlink:href="#izo8b"/></g></g></g><g><g><g><use fill="#d6d6d6" xlink:href="#izo8c"/><use fill="#fff" fill-opacity="0" stroke="#d6d6d6" stroke-miterlimit="50" stroke-width=".75" xlink:href="#izo8c"/></g></g></g><g><g><g><use fill="#d6d6d6" xlink:href="#izo8d"/><use fill="#fff" fill-opacity="0" stroke="#d6d6d6" stroke-miterlimit="50" stroke-width=".75" xlink:href="#izo8d"/></g></g></g><g><g><g><use fill="#d6d6d6" xlink:href="#izo8e"/><use fill="#fff" fill-opacity="0" stroke="#d6d6d6" stroke-miterlimit="50" stroke-width=".75" xlink:href="#izo8e"/></g></g></g><g><g><g><use fill="#d6d6d6" xlink:href="#izo8f"/><use fill="#fff" fill-opacity="0" stroke="#d6d6d6" stroke-miterlimit="50" stroke-width=".75" xlink:href="#izo8f"/></g></g></g><g><g><g><use fill="#d6d6d6" xlink:href="#izo8g"/><use fill="#fff" fill-opacity="0" stroke="#d6d6d6" stroke-miterlimit="50" stroke-width=".75" xlink:href="#izo8g"/></g></g></g><g><g><g><use fill="#d6d6d6" xlink:href="#izo8h"/><use fill="#fff" fill-opacity="0" stroke="#d6d6d6" stroke-miterlimit="50" stroke-width=".75" xlink:href="#izo8h"/></g></g></g><g><g><g><use fill="#d6d6d6" xlink:href="#izo8i"/><use fill="#fff" fill-opacity="0" stroke="#d6d6d6" stroke-miterlimit="50" stroke-width=".75" xlink:href="#izo8i"/></g></g></g><g><g><g><use fill="#d6d6d6" xlink:href="#izo8j"/><use fill="#fff" fill-opacity="0" stroke="#d6d6d6" stroke-miterlimit="50" stroke-width=".75" xlink:href="#izo8j"/></g></g></g><g><g><g><use fill="#d6d6d6" xlink:href="#izo8k"/><use fill="#fff" fill-opacity="0" stroke="#d6d6d6" stroke-miterlimit="50" stroke-width=".75" xlink:href="#izo8k"/></g></g></g><g><g><g><use fill="#d6d6d6" xlink:href="#izo8l"/><use fill="#fff" fill-opacity="0" stroke="#d6d6d6" stroke-miterlimit="50" stroke-width=".75" xlink:href="#izo8l"/></g></g></g><g><g><g><use fill="#d6d6d6" xlink:href="#izo8m"/><use fill="#fff" fill-opacity="0" stroke="#d6d6d6" stroke-miterlimit="50" stroke-width=".75" xlink:href="#izo8m"/></g></g></g></g></g></svg>