<svg xmlns="http://www.w3.org/2000/svg" width="655.369" height="575.608" viewBox="0 0 655.369 575.608">
  <g id="Group_213" data-name="Group 213" transform="translate(-1077 -192.392)">
    <g id="Home" transform="translate(1110.483 192.392)">
      <g id="Clock" transform="translate(444.768 74.53)">
        <circle id="Clock-Frame" cx="46.472" cy="46.472" r="46.472" fill="#f2f2f2"/>
        <circle id="Time" cx="2.63" cy="2.63" r="2.63" transform="translate(43.841 7.015)" fill="rgba(0,0,0,0.1)"/>
        <circle id="Time-2" data-name="Time" cx="2.63" cy="2.63" r="2.63" transform="translate(7.015 43.841)" fill="rgba(0,0,0,0.1)"/>
        <circle id="Time-3" data-name="Time" cx="2.63" cy="2.63" r="2.63" transform="translate(80.668 43.841)" fill="rgba(0,0,0,0.1)"/>
        <circle id="Time-4" data-name="Time" cx="2.63" cy="2.63" r="2.63" transform="translate(43.841 80.668)" fill="rgba(0,0,0,0.1)"/>
        <path id="Hand" d="M52.754,17l1.754,30.689H51Z" transform="translate(-6.282 -2.094)" fill="#afb9c5" fill-rule="evenodd"/>
        <path id="Hand-2" data-name="Hand" d="M1.754,0,3.507,21.044H0Z" transform="translate(63.23 60.75) rotate(135)" fill="#afb9c5" fill-rule="evenodd"/>
        <circle id="Time-5" data-name="Time" cx="3.507" cy="3.507" r="3.507" transform="translate(42.964 42.964)" fill="#c5cfd6"/>
      </g>
      <g id="Background-Shape-2" transform="translate(27.399 213.945)" opacity="0.346">
        <path id="Background-Shape" d="M.181,90.852c6.046,67.558,330.414,197.953,390.631,133.963S393.138,40.733,266.944,9.981-5.865,23.294.181,90.852Z" transform="translate(414.738 242.004) rotate(180)" fill="#f2f2f2" fill-rule="evenodd"/>
        <path id="Background-Shape-2-2" data-name="Background-Shape" d="M244.126,204.409C249.542,147.016,540.1,36.24,594.037,90.6s40.287,168.706-72.752,194.831S238.711,261.8,244.126,204.409Z" transform="translate(-30.054 -9.361)" fill="#dde3e9" fill-rule="evenodd"/>
      </g>
      <g id="Hanging-Lamp" transform="translate(23.891)">
        <g id="Light" transform="translate(0 133.868)">
          <ellipse id="Hanging-Lamp-Light" cx="37.265" cy="19.729" rx="37.265" ry="19.729" transform="translate(6.138 10.522)" fill="#f2f2f2"/>
          <path id="Hanging-Lamp-2" data-name="Hanging-Lamp" d="M86.806,43.841A43.624,43.624,0,0,0,43.4,0,43.624,43.624,0,0,0,0,43.841" transform="translate(0)" fill="#dde3e9" fill-rule="evenodd"/>
        </g>
        <rect id="Wire" width="4.384" height="140.292" transform="translate(41.211)" fill="#dde3e9"/>
      </g>
      <g id="Hanging-Lamp-3" data-name="Hanging-Lamp" transform="translate(102.806)" opacity="0.7">
        <g id="Light-2" data-name="Light" transform="translate(0 99.081)">
          <ellipse id="Hanging-Lamp-Light-2" data-name="Hanging-Lamp-Light" cx="27.855" cy="15.921" rx="27.855" ry="15.921" transform="translate(4.588 8.491)" fill="#f2f2f2"/>
          <path id="Hanging-Lamp-4" data-name="Hanging-Lamp" d="M64.885,35.381C64.885,15.84,50.36,0,32.443,0S0,15.84,0,35.381" transform="translate(0)" fill="#dde3e9" fill-rule="evenodd"/>
        </g>
        <rect id="Wire-2" data-name="Wire" width="4.384" height="119.248" transform="translate(30.689)" fill="#dde3e9"/>
      </g>
      <g id="Lamp" transform="translate(462.1 175.365)">
        <path id="Body" d="M60,33.658,76.281,17.367a7.015,7.015,0,0,1,9.92,0l0,0,43.343,43.365a14.03,14.03,0,0,1,4.107,9.918V357.877" transform="translate(-8.063 -3.64)" fill="none" stroke="#cbcbcb" stroke-width="8" fill-rule="evenodd"/>
        <rect id="Lamp-Base" width="51.733" height="6.138" rx="3" transform="translate(99.286 353.361)" fill="#afb9c5"/>
        <g id="Lamp-Top" transform="translate(41.269 0) rotate(45)">
          <path id="Lamp-2" data-name="Lamp" d="M28.935,0h0A28.935,28.935,0,0,1,57.871,28.935V53.487H0V28.935A28.935,28.935,0,0,1,28.935,0Z" transform="translate(0 0)" fill="#c5cfd6" fill-rule="evenodd"/>
          <ellipse id="Lamp-3" data-name="Lamp" cx="28.935" cy="5.699" rx="28.935" ry="5.699" transform="translate(0.157 46.964)" fill="#f2f2f2"/>
        </g>
      </g>
      <g id="Big-Leaf-Plant" transform="translate(16 326.179)">
        <g id="Big-Ass-Leaf" transform="translate(20.167 0)">
          <path id="leaf" d="M22.27,1.152a14.831,14.831,0,0,1,7.528.793c4.967,2.108,6.379,7.976,6.311,12.746-.073,5.133-1.163,10.74,2.739,14.876,1.794,1.9,4.026,3.357,5.787,5.293a25.021,25.021,0,0,1,4.453,6.98C51.1,46.51,52.082,52,50.246,56.9c-1.617,4.313-5.684,8.207-4.805,13.111.917,5.117,6.075,9.028,9.3,12.839,3.65,4.313,7.011,9.825,7.563,15.481.529,5.421-1.83,10.9-5.451,15-7.235,8.188-18.11,12.2-29.075,12.176-4.656-.011-9.927-.221-13.944-2.723A7.687,7.687,0,0,1,11.2,119.94a9.279,9.279,0,0,0-2.548-2.551A15.125,15.125,0,0,1,3.8,110.907c-3.979-9.849-.8-22.034,4.771-30.78,1.32-2.072,2.4-4.066,1.759-6.536-.669-2.578-2.313-4.9-3.768-7.12a57.272,57.272,0,0,1-4.2-6.648,15.086,15.086,0,0,1-1.3-7.794A26.513,26.513,0,0,1,6.767,38.121c3-3.951,6.527-7.731,6.535-12.908.009-5.487-3.659-10.367-2.1-15.946A10.63,10.63,0,0,1,15.247,3.2C17.256,1.875,19.908,1.44,22.27,1.152Z" transform="translate(-1 -1)" fill="#dde3e9" fill-rule="evenodd"/>
          <path id="middle-thing" d="M23.215,11.031a1.265,1.265,0,0,1,1.609-.987c.906.253.888,1.1.864,1.854a24.909,24.909,0,0,0,.819,6.818c1.158,4.675,3.3,8.983,4.993,13.474A24.526,24.526,0,0,1,33,46.059c-.937,4.477-2.408,8.838-3.367,13.32-.845,3.951-1.744,8.117-.457,12.058,1.238,3.793,3.976,6.882,5.947,10.31a48.61,48.61,0,0,1,6.133,23.069,43.139,43.139,0,0,1-.861,11.248c-.5,2.125-1.177,5-3,6.462-.839.677-2.275.91-2.982-.091-.663-.939-.081-2.394.129-3.4a51.466,51.466,0,0,0,.877-13.166,47.541,47.541,0,0,0-2.057-12.591A42.616,42.616,0,0,0,28,82.8c-2.269-3.368-4.628-6.744-5.565-10.735-.952-4.054-.179-8.178.856-12.155,1.094-4.206,2.528-8.291,4.009-12.383A21.727,21.727,0,0,0,28.456,35.6C26.881,27.355,22.666,19.617,23.215,11.031Z" transform="translate(-3.587 -2.109)" fill="#c5cfd6" fill-rule="evenodd"/>
        </g>
        <g id="Big-Ass-Leaf-2" data-name="Big-Ass-Leaf" transform="translate(28.058 8.768)">
          <path id="leaf-2" data-name="leaf" d="M79.7,1.387a18.846,18.846,0,0,1,8.411,4.854c4.711,5.077,3.265,12.751.665,18.356-2.8,6.033-7.042,12.1-4.65,19.018,1.1,3.182,2.948,6.064,3.99,9.271a32.314,32.314,0,0,1,1.534,10.571c-.113,6.568-1.86,13.576-6.6,18.414-4.176,4.26-11,6.749-12.566,13.006-1.629,6.528,2.354,13.838,4.122,20.022,2,7,3.03,15.267.688,22.243-2.244,6.686-7.909,11.941-14.322,14.9-12.813,5.919-27.69,5.008-40.538-.726C14.972,148.886,8.9,145.9,5.51,140.847a9.879,9.879,0,0,1-1.586-4.737,11.919,11.919,0,0,0-1.641-4.342,19.5,19.5,0,0,1-2.267-10.19C.556,107.859,10.727,95.1,21.882,87.658c2.643-1.764,4.964-3.56,5.518-6.815.578-3.4-.122-7-.656-10.38C26.216,67.125,25.4,63.8,25.33,60.415a19.68,19.68,0,0,1,2.595-9.893c3.154-5.828,8.224-10.249,14.048-13.478,5.61-3.11,11.742-5.747,14.488-11.865,2.91-6.484,1.188-14.164,5.969-19.948A13.829,13.829,0,0,1,70.375.16C73.433-.366,76.773.5,79.7,1.387Z" transform="translate(0 0)" fill="#dde3e9" fill-rule="evenodd"/>
          <path id="middle-thing-2" data-name="middle-thing" d="M77.289,13.711a1.612,1.612,0,0,1,2.4-.325c.926.775.463,1.768.04,2.648a32.636,32.636,0,0,0-2.613,8.5C76.02,30.682,76.266,36.9,75.9,43.111s-1.866,12.1-5.515,17.207c-3.44,4.811-7.445,9.2-10.913,14.009-3.057,4.236-6.29,8.7-6.85,14.039-.539,5.141,1.045,10.234,1.554,15.327,1.055,10.542-.95,20.813-4.91,30.534a56.355,56.355,0,0,1-6.9,12.868c-1.7,2.253-3.993,5.3-6.89,6.082-1.336.361-3.137-.114-3.439-1.67-.284-1.461,1.159-2.878,1.929-3.954a67.257,67.257,0,0,0,7.921-15.131,62.28,62.28,0,0,0,4.189-15.989,55.722,55.722,0,0,0-.785-15.219c-.889-5.178-1.879-10.412-.885-15.63,1.009-5.3,4.074-9.779,7.367-13.945,3.482-4.407,7.3-8.494,11.173-12.563a28.371,28.371,0,0,0,7.6-13.524C73.027,34.964,72.15,23.59,77.289,13.711Z" transform="translate(-3.942 -1.601)" fill="#c5cfd6" fill-rule="evenodd"/>
        </g>
        <g id="Big-Ass-Leaf-3" data-name="Big-Ass-Leaf" transform="translate(0 49.102)">
          <path id="leaf-3" data-name="leaf" d="M11.667,0A16.686,16.686,0,0,1,24.51,6.627c3.665,4.551,4.405,10.108,5.893,15.532a13.865,13.865,0,0,0,4.246,7.213c2.03,1.668,4.607,2,7.037,2.816A16.423,16.423,0,0,1,52.014,42.526c1.889,5.839-.112,11.727.233,17.643.316,5.434,5.674,8.824,9.985,11.429,4.251,2.569,8.08,4.973,9.36,9.977,1.358,5.307,1.813,11.231-.067,16.474-3.131,8.73-12.293,12.574-21.145,13.169-8.034.541-18.136-.308-24.17-6.14-3.611-3.49-4.918-8.371-4.756-13.227a40.261,40.261,0,0,1,1.472-8.929,40.283,40.283,0,0,0,1.5-6.265c.561-5.686-4.694-6.778-9.167-8.339A21.816,21.816,0,0,1,2.827,57.367C.25,52.506-.831,47.049.713,41.7a18.294,18.294,0,0,1,4.161-7.321c.854-.928,2.058-1.7,2.83-2.678a3.613,3.613,0,0,0,.315-3.157c-1.147-4.927-4.72-9.007-6-13.925C.867,10.176,1.549,4.651,5.608,1.787A10.6,10.6,0,0,1,11.667,0Z" transform="translate(0 0)" fill="#c5cfd6" fill-rule="evenodd"/>
          <path id="middle-thing-3" data-name="middle-thing" d="M20.927,14.562c5.478,5.835,6.967,13.752,7.4,21.425.245,4.3-.01,8.841,1.254,13.015,1.082,3.572,3.617,6.3,6.231,8.883,5.261,5.2,11.129,10.477,12.668,18,.9,4.412.293,8.97,1.541,13.334a36.674,36.674,0,0,0,5.562,11.213c1.956,2.7,4.5,4.763,6.643,7.277.652.768,1.587,1.9,1.318,2.981-.315,1.269-1.931,1.67-3.078,1.471-2.674-.465-4.924-3.018-6.673-4.874A41.959,41.959,0,0,1,47.3,98.374,37.442,37.442,0,0,1,43.09,86.8c-.7-4.233-.352-8.644-1.949-12.706-2.689-6.835-9.211-10.868-13.926-16.2-5.875-6.638-5-14.9-4.4-23.065.331-4.487.659-9.555-1.608-13.652-.866-1.564-2.8-3.022-3.167-4.8C17.7,14.752,19.56,13.106,20.927,14.562Z" transform="translate(-2.217 -1.724)" fill="#afb9c5" fill-rule="evenodd"/>
        </g>
        <path id="Base" d="M28,181c0,33.37,5.446,50.856,34.2,50.856s34.2-17.486,34.2-50.856Z" transform="translate(-3.449 -23.171)" fill="#89c5cc" fill-rule="evenodd"/>
      </g>
      <g id="Table" transform="translate(120.342 309.519)">
        <g id="Lamp-4" data-name="Lamp" transform="translate(20.167 0)">
          <rect id="Lamp-Base-2" data-name="Lamp-Base" width="33.319" height="7.891" rx="2" transform="translate(18.413 126.263)" fill="#afb9c5"/>
          <path id="Lamp-Body" d="M28.167,109.58A147.037,147.037,0,0,0,34.495,71h4a147.037,147.037,0,0,0,6.328,38.58h5.7a13.591,13.591,0,0,1,0,27.182H21.591a13.591,13.591,0,0,1,0-27.182Z" transform="translate(-0.985 -8.745)" fill="#dde3e9" fill-rule="evenodd"/>
          <path id="Shade" d="M4.053,1.472Q19.125,0,34.2,0T64.34,1.472L68.392,71.14q-17.1,1.637-34.2,1.637T0,71.14Z" transform="translate(0 0)" fill="#c5cfd6" fill-rule="evenodd"/>
        </g>
        <path id="Path_1305" data-name="Path 1305" d="M18.413,153H109.6v91.19H91.19v-71.9H18.413v71.9H0V153Z" transform="translate(0 -18.846)" fill="#f2f2f2" fill-rule="evenodd"/>
      </g>
      <g id="Plant" transform="translate(472.826 287.599)">
        <g id="Succulents" transform="translate(11.399 0)">
          <path id="Thi-Succs_" data-name="Thi-Succs!" d="M3.334.183c7.745,18.4,20.911,31.191,27.884,50.327,4.135,11.348,5.859,23.687,5.963,36.324.057,6.864-.063,13.733-.095,20.6-.031,6.694-.213,13.344-.781,20-.571,6.686-1.21,13.293-1.492,20.02-.219,5.242-.32,11.339-2.1,16.12-1.413,3.8-5,4.36-5.957-.253a36.863,36.863,0,0,1-.4-8.061c.075-3.38.272-6.755.372-10.135.4-13.563-.119-27.127.154-40.7.267-13.257,1.971-26.5.085-39.666-1.557-10.874-5.512-20.212-10.058-29.163C12.535,26.981,7.775,18.577,4.819,8.781A47.209,47.209,0,0,1,3,.026Q3.206-.069,3.334.183Z" transform="translate(-0.37 0)" fill="#c1dee2" fill-rule="evenodd"/>
          <path id="Thi-Succs_2" data-name="Thi-Succs!" d="M.854,41.541c1.534,1.107,2.391,2.727,3.427,4.326,1.289,1.987,2.8,3.781,4.093,5.77,2.687,4.146,5.048,8.547,7.5,12.861A84.233,84.233,0,0,1,25.8,90.887c1.813,9.818,2.3,19.95,3.062,29.915.807,10.56,1.619,21.2,1.726,31.8.048,4.75.3,9.792-.266,14.508-.355,2.936-1.68,5.438-4.667,5.414-6.345-.051-9.324-7.079-10.569-12.842A108.228,108.228,0,0,1,13.181,133.5c.35-10.466,2.167-20.774,2.953-31.2.833-11.037.362-21.878-3.432-32.27-1.917-5.251-4.142-10.377-6.14-15.593a50.41,50.41,0,0,0-2.7-6.571C2.588,45.566,1,43.478,0,41Z" transform="translate(0 -5.05)" fill="#89c5cc" fill-rule="evenodd"/>
          <path id="Thi-Succs_3" data-name="Thi-Succs!" d="M82.2,16.454,82.783,16a58.021,58.021,0,0,1-2.346,6.437,52.52,52.52,0,0,0-1.516,6.257c-1.1,4.981-2.371,9.85-3.41,14.873-2.057,9.941-1.668,20.65-.319,31.678,1.274,10.418,3.289,20.82,4.249,31.236a143.4,143.4,0,0,1,.379,25.787c-.516,5.6-2.207,12.28-6.814,11.715-2.169-.266-3.3-2.877-3.756-5.824-.732-4.733-.885-9.71-1.171-14.417-.637-10.506-.764-20.98-.89-31.378-.119-9.81-.447-19.815.209-29.378a90.039,90.039,0,0,1,5.437-25.215c1.489-4.042,2.908-8.179,4.581-12.031.8-1.848,1.783-3.481,2.585-5.327C80.646,18.928,81.159,17.4,82.2,16.454Z" transform="translate(-8.253 -1.971)" fill="#c1dee2" fill-rule="evenodd"/>
          <path id="Thi-Succs_4" data-name="Thi-Succs!" d="M3.183,76.265c.839-1.409,2.686,3.237,2.967,3.821q-.178-.436-.359-.871a38.662,38.662,0,0,1,4.136,8.828c.937,3.143,1.743,6.35,2.622,9.516,1.65,5.94,3.779,11.711,5.275,17.7A57.609,57.609,0,0,1,19.3,132.884a150.536,150.536,0,0,0-.163,18.928c.2,3,1.178,5.789,1.845,8.674s1.195,5.815,1.985,8.667c.181-.372.2.871.2.965a5.991,5.991,0,0,1-.334,1.986,5.348,5.348,0,0,1-3.368,3.693c-3.031.865-5.845-1.891-6.822-4.8A79.669,79.669,0,0,1,9.8,157.811a62.15,62.15,0,0,1-.576-12.156c.359-8.048,1.815-15.992,2.209-24.037.429-8.759-1.307-16.99-2.76-25.517A74.512,74.512,0,0,0,5.943,84.009a33.984,33.984,0,0,0-2.024-4.448C3.49,78.728,2.622,77.243,3.183,76.265Z" transform="translate(-0.37 -9.361)" fill="#c1dee2" fill-rule="evenodd"/>
          <path id="Thi-Succs_5" data-name="Thi-Succs!" d="M29.989,56.3c-.348,10.035-.947,19.994-2.285,29.923-1.365,10.133-2.934,20.231-4.248,30.372-1.279,9.872-2.62,19.908-2.441,29.919.132,7.372-1.091,19.846,7.1,23.485,8.294,3.685,10.073-12.053,10.617-17.247,1.044-9.966.706-20.037.2-30.058-.52-10.285-1.388-20.517-2.464-30.763-1.195-11.382-2.132-22.815-2.885-34.23-.372-5.646-.464-11.282-.361-16.929.1-5.329-.105-10.713-2-15.773l-.3.216" transform="translate(-2.587 -3.079)" fill="#69a1ac" fill-rule="evenodd"/>
          <path id="Thi-Succs_6" data-name="Thi-Succs!" d="M78.594,96.222c-1.491,2.173-3,4.324-4.4,6.626a34.949,34.949,0,0,0-5.485,14.586c-1.435,12.322-.284,25.631-.006,38.331.057,2.594-.271,5.112.751,7.582.927,2.239,2.661,3.946,4.314,3.937,3.538-.02,3-8.685,3-12.5.011-6.684-.739-13.436-.674-20.114a139.654,139.654,0,0,1,1.426-19.534,112.553,112.553,0,0,1,4.27-18.166c.261-.791,2.13-6.9.364-5.849" transform="translate(-8.376 -11.209)" fill="#89c5cc" fill-rule="evenodd"/>
          <path id="Thi-Succs_7" data-name="Thi-Succs!" d="M60.505,22c-2.326,0-2.312,11.6-2.382,13.086-.253,5.375-.193,10.752-.353,16.129-.35,11.733-.78,23.569-2.542,35.167-.949,6.244-2.049,12.459-3.232,18.655-1.187,6.214-2.78,12.42-3.56,18.713-.75,6.049-.326,12.217-.223,18.3A160.16,160.16,0,0,0,49.3,160.352c.2,1.5.429,2.987.678,4.474a35.462,35.462,0,0,0,.436,3.954c.56,1.886,2.963,2.5,4.581,2.209,4.378-.8,7.174-6.3,8.669-10.311a96.572,96.572,0,0,0,3.923-16.1A140.68,140.68,0,0,0,69.7,126.012c.633-12.668-.179-25.35-1.087-37.978-.5-7.023-1.088-14.015-1.98-20.994C65.74,60.09,64.6,53.172,63.858,46.2c-.539-5.065-1.071-10.137-1.42-15.222-.084-1.212-.154-8.98-1.933-8.98" transform="translate(-5.912 -2.71)" fill="#69a1ac" fill-rule="evenodd"/>
          <path id="Thi-Succs_8" data-name="Thi-Succs!" d="M55.622,103.587c-.379-12.176-5.273-65.657-6.387-80.38C48.957,19.522,46.276,4.178,45.928,0c-.943,1.181-.862,19.561-.852,23.785.011,4.178-.507,8.286-.774,12.442-.272,4.24-6.54,59-7.353,63.071-1.618,8.105-2.7,16.422-3.537,24.71-.814,8.076-2.079,16.6-.99,24.718a24.814,24.814,0,0,0,1.291,5.426c.7,1.855,1.174,3.571,1.733,5.513.9,3.127,2.528,5.871,5.03,7.163,5.129,2.647,7.883-3.345,9.279-8.562a139.613,139.613,0,0,0,4.332-25.549c.742-9.681,1.838-19.381,1.534-29.128" transform="translate(-3.942 0)" fill="#89c5cc" fill-rule="evenodd"/>
        </g>
        <g id="Planter" transform="translate(0 139.415)">
          <rect id="Vase" width="79.791" height="79.791" rx="2" transform="translate(8.768)" fill="#fff"/>
          <rect id="Leg" width="8.768" height="99.081" rx="2" transform="translate(0 8.768)" fill="#c5cfd6"/>
          <rect id="Leg-2" data-name="Leg" width="8.768" height="99.081" rx="2" transform="translate(43.841 8.768)" fill="#c5cfd6"/>
          <rect id="Leg-3" data-name="Leg" width="8.768" height="99.081" rx="2" transform="translate(88.559 8.768)" fill="#c5cfd6"/>
        </g>
      </g>
    </g>
    <g id="sitting-8" transform="translate(1373.459 411.731)">
      <g id="A-Human_Sitting" data-name="A-Human/Sitting" transform="translate(279.541 356.269) rotate(180)">
        <g id="Head_Front_Short-2" data-name="Head/Front/Short-2" transform="translate(72.696 234.653)">
          <g id="Head" transform="translate(3.681 0)">
            <path id="Path_1306" data-name="Path 1306" d="M7.6,35.437C3.363,40.414.493,46.514.972,53.348,2.354,73.041,29.767,68.709,35.1,58.77s4.7-35.151-2.193-36.927c-2.748-.708-8.6,1.027-14.562,4.619L22.085,0H0Z" fill="#915b3c" fill-rule="evenodd"/>
          </g>
          <path id="Hair" d="M9.587,0C6.815,12.332-1.082,20.738.124,26.25A8.36,8.36,0,0,0,6.553,33.1q2.7,10.927,17.423,9.3C38.7,40.769,47.684,34.655,43.8,21.2c-3.567,0-7.873,1.29-13.828-.92q-2.834-1.052-4.054-6.524H23.231q-3.917,6.494-7.725,4.773t-1.731-8.362L12.45,0Z" transform="translate(0 31.004)" fill="#191847" fill-rule="evenodd"/>
        </g>
        <g id="Bottom_Sitting_Baggy-Pants" data-name="Bottom/Sitting/Baggy-Pants" transform="translate(0 0)">
          <g id="Objects_Seat_Cube-2" data-name="Objects/Seat/Cube-2" transform="translate(0 5.521)">
            <path id="Seat" d="M14.723,114.106H120.547A14.723,14.723,0,0,0,135.27,99.382V14.723A14.723,14.723,0,0,0,120.547,0H14.723A14.723,14.723,0,0,0,0,14.723V99.382A14.723,14.723,0,0,0,14.723,114.106ZM29.447,88.34a3.681,3.681,0,0,1-3.681-3.681V29.447a3.681,3.681,0,0,1,3.681-3.681h76.377a3.681,3.681,0,0,1,3.681,3.681V84.659a3.681,3.681,0,0,1-3.681,3.681Z" fill="#c5cfd6" fill-rule="evenodd"/>
          </g>
          <path id="LegLower" d="M60.88,0Q33.666,33.232,24.052,49.273C13.079,67.585,4.1,83.878,1.264,90.1c-6.759,14.842,15.56,21.792,20.611,14.869Q33.342,89.255,70.856,6.058Z" transform="translate(165.637 10.122)" fill="#b28b67" fill-rule="evenodd"/>
          <path id="LegLower-2" data-name="LegLower" d="M34.745,0,.98,84.993c-7.222,15.494,27.653,25.678,32.96,18.468,12.049-16.37,40.688-80.947,44.278-85.824Z" transform="translate(154.594 16.564)" fill="#2f3676" fill-rule="evenodd"/>
          <g id="Lower-Leg" transform="matrix(0.777, -0.629, 0.629, 0.777, 95.034, 30.839)">
            <path id="LegLower-3" data-name="LegLower" d="M1.66,4.907C.734,16.5-.987,56.643.735,75.222c.495,5.339,1.016,10.5,1.541,15.343,1.562,14.393,28.25,13.938,26.13.264C23.129,56.775,13.839,9.05,13.173,4.927,12.24-.853,2.243-2.38,1.66,4.907Z" transform="translate(0 0)" fill="#915b3c" fill-rule="evenodd"/>
          </g>
          <g id="Accessories_Shoe_Flat-Sneaker" data-name="Accessories/Shoe/Flat-Sneaker" transform="translate(92.897 27.081) rotate(-30)">
            <path id="shoe" d="M1.544,13.433A19.759,19.759,0,0,1,0,7.264,46.173,46.173,0,0,1,.829,0h51.9Q54.754,6.688,50.4,7.222t-7.242.963L19.03,18.939a.92.92,0,0,1-1.215-.466l-.01-.024-1.551-3.761A16.548,16.548,0,0,0,9.7,12.805a14.852,14.852,0,0,0-5.661,1.656h0a1.84,1.84,0,0,1-2.44-.906Q1.567,13.495,1.544,13.433Z" transform="translate(0 0)" fill="#e4e4e4" fill-rule="evenodd"/>
          </g>
          <g id="Accessories_Shoe_Flat-Sneaker-2" data-name="Accessories/Shoe/Flat-Sneaker" transform="translate(217.169)">
            <path id="shoe-2" data-name="shoe" d="M1.544,13.433A19.759,19.759,0,0,1,0,7.264,46.173,46.173,0,0,1,.829,0h51.9q2.023,6.688-2.336,7.222t-7.242.963L19.03,18.939a.92.92,0,0,1-1.215-.466l-.01-.024-1.551-3.761A16.548,16.548,0,0,0,9.7,12.805a14.851,14.851,0,0,0-5.661,1.656h0a1.84,1.84,0,0,1-2.44-.906Q1.567,13.495,1.544,13.433Z" transform="translate(0)" fill="#e4e4e4" fill-rule="evenodd"/>
          </g>
          <path id="Leg-and-Butt" d="M88.063,72.2q-42.1,6.858-56.391,9.379C4.5,86.371-3.418,100.99,1.266,132.888H51.321q9.937-2.869,83.034-35.492c8.768-4.352,7.134-17.186,5.532-21.414q-.1-.259-44.343-75.982L54.6,26.086,88.14,69.128Q89.468,71.8,88.063,72.2Z" transform="translate(55.362 25.11)" fill="#5c63ab" fill-rule="evenodd"/>
        </g>
        <g id="Body_Hoodie" data-name="Body/Hoodie" transform="translate(2.91 88.196)">
          <path id="Skin" d="M144.121,81.848l29.353-21.554a79.018,79.018,0,0,0,19.955-8.019c1.262-1.149,2.786-3.477-2.447-3.075S180.227,49.79,179.5,48s2.445-3.919.986-6.327q-1.46-2.409-13.791,12.077L137.633,65.808ZM31.421,81.1l19.23-.076q-17.81-57.5-19.23-61.013C29.291,14.738,33.8,6.7,35.724,2.383,29.448-.426,30.117,9.975,22.2,6.292,14.974,2.929,9.477-3.161,1.128,1.99.1,2.623-1.023,5.007,1.695,6.871c6.771,4.642,16.528,12.768,17.846,15.443Q22.237,27.784,31.421,81.1Z" transform="translate(0 0)" fill="#915b3c" fill-rule="evenodd"/>
          <path id="Coat-Back" d="M0,102.75,7.808,104.8C39.442,81.97,55.792,34.217,94.1,11.515L86.368,0C23.15,2.272,2.439,60.452,0,102.75Z" transform="translate(77.113 59.435) rotate(-5)" fill="#e87613" fill-rule="evenodd"/>
          <path id="Shirt" d="M0,0H70.406c3.218,0,2.612,4.645,2.146,6.99-5.367,27.054-26.32,56.218-26.32,94.729L25.924,104.9C9.126,77.888,3.317,44.626,0,0Z" transform="translate(51.382 61.798)" fill="#dde3e9" fill-rule="evenodd"/>
          <path id="Coat-Front" d="M32.9,117a11.614,11.614,0,0,0-7.007,5.932c-7.423,13.394-4.742,20.768,3.191,23.192s15.007-2.569,27.646-2.569a12.732,12.732,0,0,0,1.889-.129l6.358-.363Q92.332,50.33,80.063,19.324H24.648A189,189,0,0,0,15.222,0H.123Q-2.009,68.923,32.9,117Z" transform="translate(19.052 23.149)" fill="#ff9b21" fill-rule="evenodd"/>
          <path id="Shade-2" data-name="Shade" d="M12.067,31.749Q14.681,9.877,20.565,0H0Q5.745,13.4,12.067,31.749Z" transform="translate(43.7 42.473)" fill="rgba(0,0,0,0.1)" fill-rule="evenodd"/>
        </g>
      </g>
    </g>
    <g id="standing-18" transform="translate(1049.345 383.07)">
      <g id="humaaan-2" transform="translate(27.655 1.417)">
        <g id="Head_Front_Airy" data-name="Head/Front/Airy" transform="translate(11.772)">
          <g id="Head-2" data-name="Head" transform="translate(108.797 33.612)">
            <path id="Path_1307" data-name="Path 1307" d="M7.308,30.508C3.232,25.723.474,19.86.935,13.29,2.263-5.639,28.613-1.475,33.739,8.079s4.517,33.788-2.108,35.5c-2.642.681-8.27-.987-14-4.44l3.6,25.435H0Z" transform="translate(0 0)" fill="#b28b67" fill-rule="evenodd"/>
          </g>
          <path id="hair-2" data-name="hair" d="M55.694,23.1c-2.8-.459-10.331-.774-11.721-.774-.888,0-1.85.2-2.376-.612-.431-.668-.273-1.8-.4-2.571-.149-.9-.361-1.788-.576-2.674A27.191,27.191,0,0,0,37.8,9.293,22.046,22.046,0,0,0,27.347-.168,33.556,33.556,0,0,0,11.482-2.35C5.788-1.888.634-.009-4.742,1.76A34,34,0,0,1-20.59,3.286c-5.4-.829-9.478-3.755-14.031-6.532-4.662-2.843-9.989-4.7-15.5-4.275A29.851,29.851,0,0,0-64.26-2.161C-68.24.494-71.524,3.688-73.378,8.183c-1.994,4.836-1.993,10.144,1.287,14.417,4.754,6.195,13.58,7.8,20.922,7.637A39.973,39.973,0,0,0-38.741,27.96c5.347-1.881,9.969-5.069,14.971-7.655a38.961,38.961,0,0,1,7.318-2.929c2.468-.7,4.9-1.017,7.135.474a33.688,33.688,0,0,0,7.187,4.115,23.18,23.18,0,0,0,8.107,1.456c5.379-.042,10.681-1.717,15.9-2.84,4.26-.915,8.818-1.827,13.161-.948,1.812.367,4.459,1.125,5.114,3.008-11.016,2-15.343,15.621-12.237,25.622,1.676,5.4,11.752,11.709,15.669,8.871,2.482-1.8.975-4.158,0-5.716-1.867-2.984-2.506-6.817.949-8.894,2.981-1.792,6.114,2.463,6.174,2.458.819-.065,7.9-4.068,12.775-9.91,4.811.285,5.541-2.887,4.392-5.482S59.56,23.732,55.694,23.1Z" transform="translate(74.742 7.583)" fill="#191847" fill-rule="evenodd"/>
        </g>
        <g id="Bottom_Standing_Jogging" data-name="Bottom/Standing/Jogging" transform="translate(0 171.619)">
          <path id="Leg-4" data-name="Leg" d="M140.819,0l65.727,109.883,49.275,92.9h10.614L183.873,0Z" transform="translate(-25.548 0)" fill="#997659" fill-rule="evenodd"/>
          <g id="Accessories_Shoe_Flat-Sneaker-3" data-name="Accessories/Shoe/Flat-Sneaker" transform="translate(222.299 193.121)">
            <path id="shoe-3" data-name="shoe" d="M2.568,26.31a18.992,18.992,0,0,0-1.484,5.93,44.385,44.385,0,0,0,.8,6.983H51.77q1.945-6.429-2.245-6.942t-6.961-.926L19.375,21.018a.885.885,0,0,0-1.168.448l-.01.023L16.707,25.1a15.907,15.907,0,0,1-6.3,1.81,14.275,14.275,0,0,1-5.442-1.591h0a1.769,1.769,0,0,0-2.345.871Q2.59,26.251,2.568,26.31Z" transform="translate(-1.083 -20.941)" fill="#e4e4e4" fill-rule="evenodd"/>
          </g>
          <path id="Pant" d="M239.681,187.9l20.468-6.191Q246.7,141.5,227.176,93.207T185.244,0H127.435a909.182,909.182,0,0,0,52.826,103.247A698.782,698.782,0,0,0,239.681,187.9Z" transform="translate(-23.093 0)" fill="#db2721" fill-rule="evenodd"/>
          <path id="Leg-5" data-name="Leg" d="M112.932,0c-6.2,38.614-18.168,87.947-19.3,89.469q-1.129,1.522-81.3,27.242l2.293,9.36q95.6-13.794,100.748-21.4C120.524,97.058,146.219,36.941,156.172,0Z" transform="translate(-1.981 0)" fill="#b28b67" fill-rule="evenodd"/>
          <path id="Pant-2" data-name="Pant" d="M35.345,108.621l4.038,15.074q71.5,6.271,87.624-9.063T163.752,0H108.628Q95.56,81.311,94.017,84.724T35.345,108.621Z" transform="translate(-6.201 0)" fill="#ff4133" fill-rule="evenodd"/>
          <g id="Accessories_Shoe_Flat-Sneaker-4" data-name="Accessories/Shoe/Flat-Sneaker" transform="translate(18.004 110.418) rotate(80)">
            <path id="shoe-4" data-name="shoe" d="M1.484,5.369A18.992,18.992,0,0,0,0,11.3a44.385,44.385,0,0,0,.8,6.983H50.687q1.945-6.429-2.245-6.942t-6.961-.926L18.292.077a.885.885,0,0,0-1.168.448l-.01.023L15.624,4.163a15.907,15.907,0,0,1-6.3,1.81A14.275,14.275,0,0,1,3.878,4.382h0a1.769,1.769,0,0,0-2.345.871Q1.507,5.31,1.484,5.369Z" transform="translate(0 0)" fill="#e4e4e4" fill-rule="evenodd"/>
          </g>
        </g>
        <g id="Body_Jacket" data-name="Body/Jacket" transform="translate(49.957 78.732)">
          <path id="Skin-2" data-name="Skin" d="M178.427,96.54l25.057,24.444a75.954,75.954,0,0,1,17.921,10.3c1.047,1.263,2.187,3.684-2.74,2.6s-10.158-2-11.084-.4,1.8,4.058.091,6.155q-1.712,2.1-11.511-13.34L170.1,110.939ZM67.208,99.987l18.484.073q-17.12,55.267-18.484,58.648c-2.047,5.073,2.284,12.8,4.137,16.949-6.033,2.7-5.39-7.3-13-3.757-6.946,3.231-12.23,9.087-20.255,4.135-.987-.609-2.068-2.9.544-4.692,6.508-4.463,15.887-12.273,17.154-14.844Q58.381,151.239,67.208,99.987Z" transform="translate(-37.006 -17.708)" fill="#b28b67" fill-rule="evenodd"/>
          <path id="Coat-Back-2" data-name="Coat-Back" d="M0,1.974,7.505,0Q31.483,47.434,84.03,83.317l-22.075,32.17C25.934,80.214,2.345,42.632,0,1.974Z" transform="translate(82.904 2.751) rotate(5)" fill="#191847" fill-rule="evenodd"/>
          <path id="Shirt-2" data-name="Shirt" d="M97.49,100.837H165.6Q141.931,43.287,141.93,3.061L121.385,0C105.238,25.968,100.679,57.941,97.49,100.837Z" transform="translate(-48.1 0)" fill="#dde3e9" fill-rule="evenodd"/>
          <path id="Coat-Front-2" data-name="Coat-Front" d="M114,.015,114,0h1.341q2.407.083,7.333.3l4.965,14.187q.788,25.946,9.2,104.577H92.2q.176,5.431.579,10.963h-33.2Q67.026,45.992,113.98,0Z" transform="translate(-41.146 0)" fill="#2f3676" fill-rule="evenodd"/>
          <path id="Shade-3" data-name="Shade" d="M102.441,89.077q1.906,33.853,9.544,46.674H99.5A233.352,233.352,0,0,1,102.441,89.077Z" transform="translate(-48.443 -16.339)" fill="rgba(0,0,0,0.1)" fill-rule="evenodd"/>
          <path id="Light-3" data-name="Light" d="M111.692,110.356l22.016-10.234v10.234Z" transform="translate(-50.705 -18.365)" fill="rgba(255,255,255,0.2)" fill-rule="evenodd"/>
        </g>
      </g>
    </g>
  </g>
</svg>
