<svg xmlns="http://www.w3.org/2000/svg" xmlns:xlink="http://www.w3.org/1999/xlink" width="52" height="55" viewBox="0 0 52 55"><defs><path id="9f91a" d="M773.515 450.792a.983.983 0 0 0-.676.933v1.776h-7.858v-1.776c0-.425-.272-.8-.676-.933a14.7 14.7 0 0 1-10.128-13.989c0-8.124 6.61-14.733 14.733-14.733 8.124 0 14.733 6.61 14.733 14.733a14.7 14.7 0 0 1-10.128 13.989zm-1.658 9.584a.981.981 0 0 0-.982.982v1.965h-3.93v-1.965a.981.981 0 0 0-.982-.982h-.982v-4.911h7.858v4.911zm-2.947-40.27c-9.207 0-16.698 7.49-16.698 16.697a16.659 16.659 0 0 0 10.805 15.617v8.938c0 .543.439.982.982.982h.982v1.965c0 .543.44.982.982.982h5.894a.981.981 0 0 0 .982-.982v-1.965h.982a.981.981 0 0 0 .982-.982v-8.938a16.659 16.659 0 0 0 10.805-15.617c0-9.207-7.49-16.698-16.698-16.698z"/><path id="9f91b" d="M768.91 418.14a.981.981 0 0 0 .982-.981v-3.93a.981.981 0 1 0-1.964 0v3.93c0 .543.439.982.982.982z"/><path id="9f91c" d="M792.483 435.82h-3.929a.981.981 0 1 0 0 1.965h3.93a.981.981 0 1 0 0-1.964z"/><path id="9f91d" d="M749.266 435.82h-3.929a.981.981 0 1 0 0 1.965h3.929a.981.981 0 1 0 0-1.964z"/><path id="9f91e" d="M784.885 419.44l-2.778 2.777a.981.981 0 1 0 1.389 1.389l2.778-2.778a.981.981 0 1 0-1.39-1.389z"/><path id="9f91f" d="M754.324 450l-2.777 2.778a.981.981 0 1 0 1.388 1.388l2.778-2.777a.981.981 0 1 0-1.389-1.389z"/><path id="9f91g" d="M783.496 450a.981.981 0 1 0-1.389 1.389l2.778 2.777a.98.98 0 0 0 1.389 0 .981.981 0 0 0 0-1.388z"/><path id="9f91h" d="M754.324 423.606a.98.98 0 0 0 1.39 0 .981.981 0 0 0 0-1.389l-2.779-2.778a.981.981 0 1 0-1.388 1.39z"/><path id="9f91i" d="M768.91 425.016c-6.5 0-11.786 5.288-11.786 11.787a.981.981 0 1 0 1.964 0c0-5.416 4.406-9.822 9.822-9.822a.981.981 0 1 0 0-1.965z"/></defs><g><g transform="translate(-743 -411)"><g><use fill="#ffb03a" xlink:href="#9f91a"/><use fill="#fff" fill-opacity="0" stroke="#ffb03a" stroke-miterlimit="50" stroke-width=".75" xlink:href="#9f91a"/></g><g><use fill="#ffb03a" xlink:href="#9f91b"/><use fill="#fff" fill-opacity="0" stroke="#ffb03a" stroke-miterlimit="50" stroke-width=".75" xlink:href="#9f91b"/></g><g><use fill="#ffb03a" xlink:href="#9f91c"/><use fill="#fff" fill-opacity="0" stroke="#ffb03a" stroke-miterlimit="50" stroke-width=".75" xlink:href="#9f91c"/></g><g><use fill="#ffb03a" xlink:href="#9f91d"/><use fill="#fff" fill-opacity="0" stroke="#ffb03a" stroke-miterlimit="50" stroke-width=".75" xlink:href="#9f91d"/></g><g><use fill="#ffb03a" xlink:href="#9f91e"/><use fill="#fff" fill-opacity="0" stroke="#ffb03a" stroke-miterlimit="50" stroke-width=".75" xlink:href="#9f91e"/></g><g><use fill="#ffb03a" xlink:href="#9f91f"/><use fill="#fff" fill-opacity="0" stroke="#ffb03a" stroke-miterlimit="50" stroke-width=".75" xlink:href="#9f91f"/></g><g><use fill="#ffb03a" xlink:href="#9f91g"/><use fill="#fff" fill-opacity="0" stroke="#ffb03a" stroke-miterlimit="50" stroke-width=".75" xlink:href="#9f91g"/></g><g><use fill="#ffb03a" xlink:href="#9f91h"/><use fill="#fff" fill-opacity="0" stroke="#ffb03a" stroke-miterlimit="50" stroke-width=".75" xlink:href="#9f91h"/></g><g><use fill="#ffb03a" xlink:href="#9f91i"/><use fill="#fff" fill-opacity="0" stroke="#ffb03a" stroke-miterlimit="50" stroke-width=".75" xlink:href="#9f91i"/></g></g></g></svg>