<svg xmlns="http://www.w3.org/2000/svg" xmlns:xlink="http://www.w3.org/1999/xlink" width="86" height="102" viewBox="0 0 43 51"><defs><path id="kvxha" d="M338.393 426.712c0-.03.01-.062.01-.082.339-7.35 5.556-8.138 7.79-8.138h.124c2.767.061 7.472 1.189 7.79 8.138a.2.2 0 0 0 .01.082c.01.072.727 7.042-2.532 10.711-1.291 1.456-3.013 2.173-5.279 2.194H346.204c-2.255-.02-3.987-.738-5.269-2.194-3.249-3.649-2.552-10.65-2.542-10.711zm7.698 15.672h.328c3.003-.051 5.433-1.107 7.226-3.126 3.946-4.449 3.29-12.075 3.219-12.802-.257-5.463-2.84-8.077-4.971-9.297-1.59-.912-3.444-1.404-5.515-1.445h-.174c-1.138 0-3.372.184-5.515 1.404-2.152 1.22-4.776 3.834-5.032 9.338-.072.727-.728 8.353 3.218 12.802 1.784 2.02 4.213 3.075 7.216 3.126z"/><path id="kvxhb" d="M367.319 455.033v-.031c0-.082-.01-.164-.01-.256-.062-2.03-.195-6.776-4.644-8.293-.03-.01-.072-.02-.102-.03-4.623-1.18-8.467-3.844-8.508-3.875a1.382 1.382 0 1 0-1.589 2.265c.175.123 4.254 2.963 9.359 4.275 2.388.85 2.654 3.403 2.726 5.74 0 .092 0 .174.01.256.01.922-.05 2.347-.215 3.167-1.66.943-8.169 4.203-18.07 4.203-9.86 0-16.41-3.27-18.081-4.213-.164-.82-.236-2.245-.216-3.167 0-.082.01-.164.01-.257.072-2.337.339-4.889 2.727-5.74 5.105-1.312 9.184-4.161 9.358-4.274a1.382 1.382 0 1 0-1.589-2.265c-.04.03-3.864 2.696-8.507 3.874-.04.01-.072.02-.102.031-4.449 1.527-4.582 6.273-4.644 8.292 0 .093 0 .175-.01.257v.03c-.01.533-.02 3.27.523 4.644.102.266.287.492.533.645.307.205 7.677 4.9 20.008 4.9 12.33 0 19.7-4.705 20.008-4.9.235-.153.43-.379.533-.645.512-1.364.502-4.1.492-4.633z"/></defs><g><g transform="translate(-325 -415)"><g><use fill="#dcdcdc" xlink:href="#kvxha"/></g><g><use fill="#dcdcdc" xlink:href="#kvxhb"/></g></g></g></svg>