<?xml version="1.0" encoding="iso-8859-1"?>
<!-- Generator: Adobe Illustrator 16.0.0, SVG Export Plug-In . SVG Version: 6.00 Build 0)  -->
<!DOCTYPE svg PUBLIC "-//W3C//DTD SVG 1.1//EN" "http://www.w3.org/Graphics/SVG/1.1/DTD/svg11.dtd">
<svg version="1.1" id="Capa_1" xmlns="http://www.w3.org/2000/svg" xmlns:xlink="http://www.w3.org/1999/xlink" x="0px" y="0px"
	 width="430.118px" height="430.118px" viewBox="0 0 430.118 430.118" style="enable-background:new 0 0 430.118 430.118;"
	 xml:space="preserve">
<g>
	<path id="Arto" d="M279.912,430.118L279.912,430.118c-36.585,0-56.56-24.875-65.206-39.707
		c-9.677-16.186-20.771-18.384-30.334-18.384c-7.922,0-16.65,1.783-25.902,3.654c-8.459,1.703-17.219,3.505-26.243,4.111
		l-1.032,0.062l-0.999-0.169c-45.492-8.344-74.505-26.163-86.257-52.952c-17.219-39.287,9.864-82.085,11.023-83.877l183.664-212.13
		C266.388,10.342,290.656,0,310.725,0c42.909,0,56.724,46.19,58.035,70.611c0.014,0.597-0.756,35.976-1.531,77.473
		c-0.672,35.944,10.959,46.678,11.065,46.773c7.001,4.14,11.911,11.017,13.231,19.135c2.73,16.869-10.706,33.194-12.251,34.996
		l-2.23,2.604l-3.436,0.224c-5.292,3.342-8.718,28.264-9.68,73.89c-0.158,7.495-0.298,13.479-0.62,16.838
		c-0.826,45.057-16.358,62.129-27.983,70.991C314.935,424.76,296.64,430.118,279.912,430.118z M184.377,355.958
		c19.494,0,33.588,8.372,44.333,26.331c6.939,11.901,22.762,31.755,51.202,31.755c13.955,0,29.622-4.69,46.56-13.927
		c7.934-6.16,19.924-19.741,20.651-58.479c0.327-3.729,0.443-9.319,0.583-16.273c0.967-44.902,3.268-82.696,20.731-88.769
		c3.286-4.531,8.21-13.17,7.066-20.082c-0.364-2.191-1.456-5.484-6.665-8.648c-2.613-1.974-18.659-15.819-17.838-60.065
		c0.779-41.558,1.55-76.937,1.55-76.937c-0.107-1.668-3.561-54.798-41.826-54.798c-16.363,0-37.117,9.091-61.708,27.05
		L67.969,252.396l0,0c0.109,0-22.838,36.851-9.12,67.994c9.407,21.39,34.051,35.941,73.29,43.297
		c7.631-0.598,15.488-2.203,23.086-3.733C164.859,357.984,174.81,355.958,184.377,355.958z M326.821,222.554
		c-13.974,0.775-26.378,0.775-26.378,0.775l-0.015-119.991c0,0-3.883-32.322-34.942-10.008L101.724,285.644
		c0,0-10.863,16.148,0,19.205c0,0,10.862,8.48,20.183,4.62c7.761-6.902,42.688-53.839,131.954-64.126
		c-0.774,46.461,0.775,111.819,0.775,111.819s24.838,26.159,48.893,0c0-26.78-0.775-112.043-0.775-122.297
		c1.713,0.393,8.111-1.712,24.838-3.817C327.596,231.048,340.804,227.156,326.821,222.554z M257.744,223.33
		c0,0-37.271,3.08-52.022,3.799c-14.75,0.737-3.885-6.875-3.885-6.875l55.902-62.314v65.391H257.744z"/>
</g>
<g>
</g>
<g>
</g>
<g>
</g>
<g>
</g>
<g>
</g>
<g>
</g>
<g>
</g>
<g>
</g>
<g>
</g>
<g>
</g>
<g>
</g>
<g>
</g>
<g>
</g>
<g>
</g>
<g>
</g>
</svg>
