<?xml version="1.0" encoding="iso-8859-1"?>
<!-- Generator: Adobe Illustrator 16.0.0, SVG Export Plug-In . SVG Version: 6.00 Build 0)  -->
<!DOCTYPE svg PUBLIC "-//W3C//DTD SVG 1.1//EN" "http://www.w3.org/Graphics/SVG/1.1/DTD/svg11.dtd">
<svg version="1.1" id="Capa_1" xmlns="http://www.w3.org/2000/svg" xmlns:xlink="http://www.w3.org/1999/xlink" x="0px" y="0px"
	 width="430.117px" height="430.117px" viewBox="0 0 430.117 430.117" style="enable-background:new 0 0 430.117 430.117;"
	 xml:space="preserve">
<g>
	<path id="Basecamp" d="M1.806,311.418c3.026,4.461,6.293,8.755,9.777,12.867c6.963,8.204,14.811,15.644,23.298,22.243
		c18.066,14.029,38.902,24.091,60.553,31.176c25.042,8.21,51.235,12.587,77.434,14.767c30.39,2.529,61.195,2.492,91.516-0.69
		c28.092-2.959,56.08-8.798,82.397-19.252c23.299-9.264,44.725-22.485,63.459-39.208c4.844-4.341,9.53-8.97,13.395-14.234
		c3.257-4.453,5.871-9.372,6.342-14.953c0.532-6.544-0.541-13.199-1.834-19.584c-1.433-7.075-3.313-14.048-5.097-21.039
		c-0.662-2.548-1.292-5.096-1.866-7.653c-6.87-30.299-17.366-59.797-31.615-87.392c-12.078-23.379-26.984-45.455-44.286-65.269
		c-16.157-18.509-34.956-34.695-56.546-46.489c-11.462-6.261-23.587-11.257-36.076-15.002c-6.749-2.033-13.609-3.699-20.526-5.048
		c-1.773-0.348-3.565-0.798-5.371-0.798c-2.283,0-4.569,0-6.856,0c-4.401,0-8.797,0-13.194,0c-2.007,0-4.032-0.096-6.03,0.149
		c-1.841,0.219-3.68,0.48-5.521,0.784c-3.503,0.571-6.987,1.269-10.447,2.095c-6.858,1.65-13.6,3.801-20.167,6.382
		c-13.129,5.16-25.569,12.027-37.173,20.033c-22.675,15.637-42.37,35.542-58.95,57.506c-17.576,23.298-31.617,49.198-42.466,76.276
		c-11.532,28.796-19.495,58.973-24.418,89.604C0.912,292.623,0,296.707,0,300.688c0,2.142,0,4.284,0,6.407
		c0,1.031-0.023,1.578,0.539,2.432C0.961,310.153,1.372,310.778,1.806,311.418z M29.836,292.428
		c0.362-2.025,0.789-4.042,1.255-6.044c0.894-3.757,1.97-7.473,3.228-11.136c4.816-14.081,12.095-27.148,19.905-39.759
		c3.885-6.259,7.857-12.452,11.808-18.659c4.035-6.343,8.148-12.646,12.781-18.568c7.512-9.614,16.755-19.982,28.735-23.851
		c16.837-5.435,29.431,12.09,39.171,22.911c5.542,6.142,11.512,12.605,19.145,16.111c3.517,1.614,7.351,2.445,11.222,2.207
		c5.643-0.359,10.648-4.235,14.844-7.719c11.498-9.54,20.878-21.592,29.837-33.467c9.801-12.998,19.271-26.271,30.48-38.114
		c4.598-4.849,9.498-11.288,16.083-13.434c3.006-0.98,6.282-0.677,9.147,0.642c1.568,0.721,3.001,1.738,4.242,2.942
		c1.409,1.368,3.09,2.443,4.658,3.629c12.031,9.103,23.158,19.389,33.668,30.203c9.147,9.406,17.833,19.251,26.149,29.412
		c8.098,9.924,15.896,20.034,22.599,30.99c8.148,13.348,15.041,27.386,22.63,41.051c6.927,12.462,13.927,26.873,7.011,40.931
		c-0.364,0.742-0.762,1.484-1.186,2.193c-12.271,20.769-34.42,33.696-56.28,42.163c-26.337,10.184-54.685,15.037-82.748,16.997
		c-29.006,2.035-58.364,1.941-87.321-0.774c-26.168-2.455-52.521-7.113-77.142-16.624c-20.58-7.948-40.417-19.695-54.183-37.327
		c-3.211-4.117-6.058-8.514-8.482-13.143c-0.287-0.551-0.571-1.116-0.858-1.686C29.827,293.683,29.673,293.347,29.836,292.428z"/>
</g>
<g>
</g>
<g>
</g>
<g>
</g>
<g>
</g>
<g>
</g>
<g>
</g>
<g>
</g>
<g>
</g>
<g>
</g>
<g>
</g>
<g>
</g>
<g>
</g>
<g>
</g>
<g>
</g>
<g>
</g>
</svg>
