<?xml version="1.0" encoding="iso-8859-1"?>
<!-- Generator: Adobe Illustrator 16.0.0, SVG Export Plug-In . SVG Version: 6.00 Build 0)  -->
<!DOCTYPE svg PUBLIC "-//W3C//DTD SVG 1.1//EN" "http://www.w3.org/Graphics/SVG/1.1/DTD/svg11.dtd">
<svg version="1.1" id="Capa_1" xmlns="http://www.w3.org/2000/svg" xmlns:xlink="http://www.w3.org/1999/xlink" x="0px" y="0px"
	 width="430.118px" height="430.118px" viewBox="0 0 430.118 430.118" style="enable-background:new 0 0 430.118 430.118;"
	 xml:space="preserve">
<g>
	<path id="Bebo" d="M236.564,430.118h-43.012c-94.884,0-172.047-77.202-172.047-172.047V43.012C21.506,19.235,40.741,0,64.518,0
		c23.732,0,43.012,19.235,43.012,43.012v215.059c0,47.422,38.602,86.023,86.023,86.023h43.012c47.423,0,86.024-33.771,86.024-75.271
		c0-42.424-23.145-75.271-43.013-75.271h-86.023c-23.776,0-43.012-19.28-43.012-43.012c0-23.776,19.235-43.012,43.012-43.012h86.023
		c71.154,0,129.036,72.33,129.036,161.294C408.612,357.741,331.409,430.118,236.564,430.118z"/>
</g>
<g>
</g>
<g>
</g>
<g>
</g>
<g>
</g>
<g>
</g>
<g>
</g>
<g>
</g>
<g>
</g>
<g>
</g>
<g>
</g>
<g>
</g>
<g>
</g>
<g>
</g>
<g>
</g>
<g>
</g>
</svg>
