<?xml version="1.0" encoding="iso-8859-1"?>
<!-- Generator: Adobe Illustrator 16.0.0, SVG Export Plug-In . SVG Version: 6.00 Build 0)  -->
<!DOCTYPE svg PUBLIC "-//W3C//DTD SVG 1.1//EN" "http://www.w3.org/Graphics/SVG/1.1/DTD/svg11.dtd">
<svg version="1.1" id="Capa_1" xmlns="http://www.w3.org/2000/svg" xmlns:xlink="http://www.w3.org/1999/xlink" x="0px" y="0px"
	 width="90px" height="90px" viewBox="0 0 90 90" style="enable-background:new 0 0 90 90;" xml:space="preserve">
<g>
	<path id="Bing" d="M0,6v48.064h0.063C0.735,70.675,20.565,84,45,84c24.855,0,45-13.783,45-30.79c0-17.006-20.145-30.789-45-30.789
		c-10.874,0-20.854,2.642-28.636,7.04V6H0z M45,32.685c15.82,0,28.637,9.188,28.637,20.525c0,11.339-12.816,20.526-28.637,20.526
		c-15.813,0-28.636-9.188-28.636-20.526C16.364,41.873,29.188,32.685,45,32.685z M26.071,53.21c0-7.497,8.477-13.566,18.929-13.566
		c10.459,0,18.93,6.069,18.93,13.566c0,7.494-8.471,13.567-18.93,13.567C34.548,66.777,26.071,60.704,26.071,53.21z"/>
</g>
<g>
</g>
<g>
</g>
<g>
</g>
<g>
</g>
<g>
</g>
<g>
</g>
<g>
</g>
<g>
</g>
<g>
</g>
<g>
</g>
<g>
</g>
<g>
</g>
<g>
</g>
<g>
</g>
<g>
</g>
</svg>
