<?xml version="1.0" encoding="iso-8859-1"?>
<!-- Generator: Adobe Illustrator 16.0.0, SVG Export Plug-In . SVG Version: 6.00 Build 0)  -->
<!DOCTYPE svg PUBLIC "-//W3C//DTD SVG 1.1//EN" "http://www.w3.org/Graphics/SVG/1.1/DTD/svg11.dtd">
<svg version="1.1" id="Capa_1" xmlns="http://www.w3.org/2000/svg" xmlns:xlink="http://www.w3.org/1999/xlink" x="0px" y="0px"
	 width="90px" height="90px" viewBox="0 0 90 90" style="enable-background:new 0 0 90 90;" xml:space="preserve">
<g>
	<path id="CloudApp" d="M19.123,77.442l-0.006,0.021h0.46c0.238,0.011,0.473,0.037,0.713,0.037c0.242,0,0.476-0.026,0.714-0.037
		h45.104v-0.012c0.33,0.012,0.651,0.049,0.983,0.049C79.743,77.5,90,67.16,90,54.406c0-12.756-10.257-23.095-22.909-23.095
		c-0.466,0-0.923,0.042-1.383,0.07C63.742,20.643,54.421,12.5,43.198,12.5c-12.651,0-22.908,10.34-22.908,23.095
		c0,0.335,0.036,0.664,0.05,0.996c-0.017,0-0.032-0.002-0.05-0.002C9.085,36.589,0,45.747,0,57.044
		C0,67.944,8.464,76.829,19.123,77.442z"/>
</g>
<g>
</g>
<g>
</g>
<g>
</g>
<g>
</g>
<g>
</g>
<g>
</g>
<g>
</g>
<g>
</g>
<g>
</g>
<g>
</g>
<g>
</g>
<g>
</g>
<g>
</g>
<g>
</g>
<g>
</g>
</svg>
