<?xml version="1.0" encoding="iso-8859-1"?>
<!-- Generator: Adobe Illustrator 16.0.0, SVG Export Plug-In . SVG Version: 6.00 Build 0)  -->
<!DOCTYPE svg PUBLIC "-//W3C//DTD SVG 1.1//EN" "http://www.w3.org/Graphics/SVG/1.1/DTD/svg11.dtd">
<svg version="1.1" id="Capa_1" xmlns="http://www.w3.org/2000/svg" xmlns:xlink="http://www.w3.org/1999/xlink" x="0px" y="0px"
	 width="430.117px" height="430.118px" viewBox="0 0 430.117 430.118" style="enable-background:new 0 0 430.117 430.118;"
	 xml:space="preserve">
<g>
	<path id="Blogger" d="M292.938,430.118c74.995,0,135.91-61.092,136.335-135.672l0.844-109.816l-1.269-5.974l-3.604-7.516
		l-6.091-4.711c-7.915-6.21-48.015,0.42-58.81-9.388c-7.663-6.996-8.858-19.637-11.173-36.77
		c-4.308-33.18-7.028-34.912-12.228-46.162C318.07,34.166,266.84,4.149,231.646,0h-95.332C61.316,0,0,61.181,0,135.908v158.538
		c0,74.58,61.316,135.672,136.313,135.672H292.938z M138.05,111.032h75.581c14.431,0,26.117,11.714,26.117,25.951
		c0,14.179-11.687,25.989-26.117,25.989H138.05c-14.433,0-26.096-11.815-26.096-25.989
		C111.954,122.747,123.617,111.032,138.05,111.032z M111.954,292.439c0-14.234,11.663-25.86,26.096-25.86h153.577
		c14.337,0,25.977,11.626,25.977,25.86c0,14.043-11.64,25.855-25.977,25.855H138.05
		C123.617,318.294,111.954,306.482,111.954,292.439z"/>
</g>
<g>
</g>
<g>
</g>
<g>
</g>
<g>
</g>
<g>
</g>
<g>
</g>
<g>
</g>
<g>
</g>
<g>
</g>
<g>
</g>
<g>
</g>
<g>
</g>
<g>
</g>
<g>
</g>
<g>
</g>
</svg>
