<?xml version="1.0" encoding="iso-8859-1"?>
<!-- Generator: Adobe Illustrator 16.0.0, SVG Export Plug-In . SVG Version: 6.00 Build 0)  -->
<!DOCTYPE svg PUBLIC "-//W3C//DTD SVG 1.1//EN" "http://www.w3.org/Graphics/SVG/1.1/DTD/svg11.dtd">
<svg version="1.1" id="Capa_1" xmlns="http://www.w3.org/2000/svg" xmlns:xlink="http://www.w3.org/1999/xlink" x="0px" y="0px"
	 width="430.117px" height="430.117px" viewBox="0 0 430.117 430.117" style="enable-background:new 0 0 430.117 430.117;"
	 xml:space="preserve">
<g>
	<path id="Bnter" d="M33.864,335.562h16.178c0.772,5.881,1.706,22.467-8.263,39.596c0,0,45.539-2.193,54.792-39.596h299.683
		c18.705,0,33.863-15.196,33.863-33.948V88.905c0-18.748-15.158-33.946-33.863-33.946H33.864C15.168,54.959,0,70.157,0,88.905
		v212.709C0,320.366,15.168,335.562,33.864,335.562z M360.4,218.451c8.896,0,16.102,7.221,16.102,16.12
		c0,8.9-7.205,16.125-16.102,16.125c-8.876,0-16.063-7.225-16.063-16.125C344.337,225.672,351.524,218.451,360.4,218.451z
		 M264.017,267.507c0.084,1.088,0.158,2.166,0.158,3.271c0,22.505-18.192,40.729-40.632,40.729c-18.01,0-33.25-11.732-38.596-27.979
		L264.017,267.507z M71.413,218.451c8.875,0,16.083,7.221,16.083,16.12c0,8.9-7.208,16.125-16.083,16.125s-16.09-7.225-16.09-16.125
		C55.323,225.672,62.539,218.451,71.413,218.451z"/>
</g>
<g>
</g>
<g>
</g>
<g>
</g>
<g>
</g>
<g>
</g>
<g>
</g>
<g>
</g>
<g>
</g>
<g>
</g>
<g>
</g>
<g>
</g>
<g>
</g>
<g>
</g>
<g>
</g>
<g>
</g>
</svg>
