<?xml version="1.0" encoding="iso-8859-1"?>
<!-- Generator: Adobe Illustrator 16.0.0, SVG Export Plug-In . SVG Version: 6.00 Build 0)  -->
<!DOCTYPE svg PUBLIC "-//W3C//DTD SVG 1.1//EN" "http://www.w3.org/Graphics/SVG/1.1/DTD/svg11.dtd">
<svg version="1.1" id="Capa_1" xmlns="http://www.w3.org/2000/svg" xmlns:xlink="http://www.w3.org/1999/xlink" x="0px" y="0px"
	 width="90px" height="90px" viewBox="0 0 90 90" style="enable-background:new 0 0 90 90;" xml:space="preserve">
<g>
	<path id="Brightkite" d="M56.895,39.322c0,1.001,0.527,5.174-1.311,8.385C53.744,50.916,48,49.004,48,49.004V32.645
		c0,0,1.061-2.003,5.408-1.502C57.76,31.642,56.895,38.321,56.895,39.322z M87,0v45.508v6.18v4.965c0,1.998-1.361,4.166-3.889,5.334
		C77.341,64.657,3,90,3,90L19.508,5.309c0,0,1.342-5.309,8.479-5.309C35.124,0,87,0,87,0z M65.344,28.305
		c-3.682-10.018-16.531-5.509-16.701-2.171L48,25.967V9.273l-11,1.669v42.235c0,0,6.478,6.011,17.014,4.341
		C64.552,55.848,66.152,47,66.152,47S69.021,38.321,65.344,28.305z"/>
</g>
<g>
</g>
<g>
</g>
<g>
</g>
<g>
</g>
<g>
</g>
<g>
</g>
<g>
</g>
<g>
</g>
<g>
</g>
<g>
</g>
<g>
</g>
<g>
</g>
<g>
</g>
<g>
</g>
<g>
</g>
</svg>
