<?xml version="1.0" encoding="iso-8859-1"?>
<!-- Generator: Adobe Illustrator 16.0.0, SVG Export Plug-In . SVG Version: 6.00 Build 0)  -->
<!DOCTYPE svg PUBLIC "-//W3C//DTD SVG 1.1//EN" "http://www.w3.org/Graphics/SVG/1.1/DTD/svg11.dtd">
<svg version="1.1" id="Capa_1" xmlns="http://www.w3.org/2000/svg" xmlns:xlink="http://www.w3.org/1999/xlink" x="0px" y="0px"
	 width="90px" height="90px" viewBox="0 0 90 90" style="enable-background:new 0 0 90 90;" xml:space="preserve">
<g>
	<path id="Cinch" d="M90,18.882c0,7.992-7.393,14.807-17.82,17.566l-8.353,8.573v-7.317c-0.632,0.027-1.265,0.063-1.905,0.063
		c-15.51,0-28.084-8.454-28.084-18.885C33.838,8.454,46.412,0,61.922,0C77.43,0,90,8.454,90,18.882z M26.879,37.087
		C12.035,37.087,0,48.932,0,63.544C0,78.154,12.035,90,26.879,90h12.359c0.122,0,0.238-0.018,0.36-0.02V75.824H31.92
		c0,0-14.161,1.185-14.402-12.281C17.759,50.076,31.92,51.262,31.92,51.262h7.679V37.105c-0.122-0.001-0.238-0.018-0.36-0.018
		H26.879z"/>
</g>
<g>
</g>
<g>
</g>
<g>
</g>
<g>
</g>
<g>
</g>
<g>
</g>
<g>
</g>
<g>
</g>
<g>
</g>
<g>
</g>
<g>
</g>
<g>
</g>
<g>
</g>
<g>
</g>
<g>
</g>
</svg>
