<?xml version="1.0" encoding="iso-8859-1"?>
<!-- Generator: Adobe Illustrator 16.0.0, SVG Export Plug-In . SVG Version: 6.00 Build 0)  -->
<!DOCTYPE svg PUBLIC "-//W3C//DTD SVG 1.1//EN" "http://www.w3.org/Graphics/SVG/1.1/DTD/svg11.dtd">
<svg version="1.1" id="Capa_1" xmlns="http://www.w3.org/2000/svg" xmlns:xlink="http://www.w3.org/1999/xlink" x="0px" y="0px"
	 width="430.118px" height="430.117px" viewBox="0 0 430.118 430.117" style="enable-background:new 0 0 430.118 430.117;"
	 xml:space="preserve">
<g>
	<path id="Coroflot" d="M181.259,281.014c0,10.879-8.844,19.69-19.741,19.69c-10.898,0-19.728-8.812-19.728-19.69
		c0-10.888,8.83-19.732,19.728-19.732C172.416,261.281,181.259,270.121,181.259,281.014z M399.053,259.718
		c0,57.475-46.652,104.058-104.146,104.058c-0.91,0-1.797-0.08-2.702-0.103c-18.174,39.198-57.778,66.444-103.852,66.444
		c-63.253,0-114.516-51.23-114.516-114.441c0-50.315,32.571-92.963,77.772-108.273c1.675-77.569-27.116-128.902-60.317-125.899
		c-34.737,3.148-63.155,3.148-59.986-14.199c3.146-17.333,31.559,1.586,34.737-20.507C69.18,24.735,53.405,15.272,77.085,2.662
		c21.8-11.619,27.522,16.893,25.823,44.876c80.624-19.749,147.498,77.042,168.146,111.006c7.668-1.806,15.625-2.887,23.858-2.887
		C352.401,155.649,399.053,202.24,399.053,259.718z M177.914,201.807c3.444-0.311,6.912-0.525,10.44-0.525
		c6.609,0,13.04,0.677,19.354,1.752c11.402-17.49,27.914-31.302,47.408-39.409C197.3,72.909,146.793,61.325,118.002,64.632
		C169.368,103.667,176.854,182.686,177.914,201.807z M278.223,315.676c0-39.628-25.749-73.212-61.433-85.118
		c-0.042,0.107-0.093,0.22-0.13,0.322c-6.539-2.184-13.357-3.575-20.465-4.195c0.042-0.131,0.103-0.252,0.145-0.388
		c-2.632-0.238-5.288-0.406-7.985-0.406c-49.644,0-89.874,40.217-89.874,89.781c0,49.587,40.23,89.809,89.874,89.809
		c33.575,0,62.809-18.44,78.239-45.7c-0.121-0.037-0.242-0.061-0.354-0.099c3.416-6.039,6.138-12.451,8.088-19.251
		c0.112,0.027,0.233,0.046,0.336,0.069C276.939,332.608,278.223,324.296,278.223,315.676z M378.57,259.718
		c0-46.183-37.481-83.594-83.662-83.594c-26.972,0-50.811,12.823-66.034,32.665c43.217,16.36,73.991,57.991,73.991,106.888
		c0,9.46-1.278,18.599-3.439,27.392C343.492,340.706,378.57,304.335,378.57,259.718z"/>
</g>
<g>
</g>
<g>
</g>
<g>
</g>
<g>
</g>
<g>
</g>
<g>
</g>
<g>
</g>
<g>
</g>
<g>
</g>
<g>
</g>
<g>
</g>
<g>
</g>
<g>
</g>
<g>
</g>
<g>
</g>
</svg>
