<?xml version="1.0" encoding="iso-8859-1"?>
<!-- Generator: Adobe Illustrator 16.0.0, SVG Export Plug-In . SVG Version: 6.00 Build 0)  -->
<!DOCTYPE svg PUBLIC "-//W3C//DTD SVG 1.1//EN" "http://www.w3.org/Graphics/SVG/1.1/DTD/svg11.dtd">
<svg version="1.1" id="Capa_1" xmlns="http://www.w3.org/2000/svg" xmlns:xlink="http://www.w3.org/1999/xlink" x="0px" y="0px"
	 width="430.118px" height="430.118px" viewBox="0 0 430.118 430.118" style="enable-background:new 0 0 430.118 430.118;"
	 xml:space="preserve">
<g>
	<path id="Delicious" d="M413.214,131.339c-16.34-38.61-43.595-71.413-77.898-94.597c-17.161-11.6-36.1-20.794-56.304-27.074
		C258.78,3.384,237.303-0.014,215.068,0c-29.655-0.014-57.984,6.016-83.716,16.909c-38.615,16.33-71.437,43.586-94.62,77.898
		c-11.589,17.163-20.78,36.093-27.064,56.313C3.374,171.331-0.005,192.833,0,215.064c-0.005,29.649,6.016,57.983,16.909,83.723
		c16.33,38.605,43.59,71.406,77.898,94.602c17.158,11.598,36.088,20.764,56.317,27.06c20.211,6.301,41.708,9.67,63.944,9.67
		c29.641,0,57.975-6.006,83.709-16.895c38.615-16.339,71.42-43.581,94.61-77.898c11.584-17.179,20.778-36.108,27.06-56.322
		c6.292-20.203,9.671-41.7,9.671-63.938C430.127,185.405,424.111,157.085,413.214,131.339z M386.434,287.446
		c-14.113,33.351-37.724,61.773-67.416,81.823c-14.836,10.043-31.189,17.982-48.654,23.4c-17.459,5.418-36.016,8.345-55.295,8.368
		h-0.019V215.27H29.09c0-0.07,0-0.145,0-0.205c0-25.721,5.199-50.144,14.605-72.384c14.097-33.353,37.708-61.79,67.395-81.847
		c14.844-10.022,31.202-17.95,48.666-23.384c17.458-5.428,36.014-8.359,55.312-8.359v185.974h185.96
		C401.028,240.779,395.829,265.193,386.434,287.446z"/>
</g>
<g>
</g>
<g>
</g>
<g>
</g>
<g>
</g>
<g>
</g>
<g>
</g>
<g>
</g>
<g>
</g>
<g>
</g>
<g>
</g>
<g>
</g>
<g>
</g>
<g>
</g>
<g>
</g>
<g>
</g>
</svg>
