<?xml version="1.0" encoding="iso-8859-1"?>
<!-- Generator: Adobe Illustrator 16.0.0, SVG Export Plug-In . SVG Version: 6.00 Build 0)  -->
<!DOCTYPE svg PUBLIC "-//W3C//DTD SVG 1.1//EN" "http://www.w3.org/Graphics/SVG/1.1/DTD/svg11.dtd">
<svg version="1.1" id="Capa_1" xmlns="http://www.w3.org/2000/svg" xmlns:xlink="http://www.w3.org/1999/xlink" x="0px" y="0px"
	 width="430.118px" height="430.118px" viewBox="0 0 430.118 430.118" style="enable-background:new 0 0 430.118 430.118;"
	 xml:space="preserve">
<g>
	<polygon id="DesignBump" points="286.055,258.43 269.729,272.851 269.729,119.477 344.911,119.477 215.059,0 85.197,119.477 
		159.808,119.477 159.808,157.586 144.299,146.318 50.18,234.175 97.68,234.175 97.68,430.118 157.948,430.118 157.948,430.118 
		175.358,430.118 175.358,430.118 183.703,430.118 183.703,234.175 236.56,234.175 174.145,173.592 174.145,100.361 
		121.871,100.361 215.059,14.652 308.251,100.361 255.392,100.361 255.392,288.874 193.553,344.094 245.833,344.094 
		245.833,430.118 253.702,430.118 253.702,430.118 271.12,430.118 271.12,430.118 331.857,430.118 331.857,344.094 379.938,344.094 
			"/>
</g>
<g>
</g>
<g>
</g>
<g>
</g>
<g>
</g>
<g>
</g>
<g>
</g>
<g>
</g>
<g>
</g>
<g>
</g>
<g>
</g>
<g>
</g>
<g>
</g>
<g>
</g>
<g>
</g>
<g>
</g>
</svg>
