<?xml version="1.0" encoding="iso-8859-1"?>
<!-- Generator: Adobe Illustrator 16.0.0, SVG Export Plug-In . SVG Version: 6.00 Build 0)  -->
<!DOCTYPE svg PUBLIC "-//W3C//DTD SVG 1.1//EN" "http://www.w3.org/Graphics/SVG/1.1/DTD/svg11.dtd">
<svg version="1.1" id="Capa_1" xmlns="http://www.w3.org/2000/svg" xmlns:xlink="http://www.w3.org/1999/xlink" x="0px" y="0px"
	 width="430.122px" height="430.122px" viewBox="0 0 430.122 430.122" style="enable-background:new 0 0 430.122 430.122;"
	 xml:space="preserve">
<g>
	<path id="Designmoo" d="M305.545,306.776c-2.613,0-3.645,1.083-5.772,3.169c-3.785,4.719-10.749,13.628-22.463,25.146
		c-19.275,19.499-32.581,29.024-41.448,29.024l-1.979-0.173c-6.216-1.535-7.205-6.813-7.103-12.073
		c0.14-6.805,2.333-13.059,4.088-19.317c14.436-44.113,35.587-84.932,53.686-127.402c9.853-22.598,21.217-44.645,28.987-67.7
		c3.337-8.345,5.609-17.791,5.773-26.668c0.299-14.706-9.498-23.602-21.464-26.224l-1.815-0.285c-2.698,0-1.224,2.996-3.604,13.348
		c-1.204,6.805-3.435,13.614-5.638,20.414c-10.039,32.035-25.805,60.877-39.927,89.202l-4.303,8.34l-0.486-3.174
		c-2.855-16.237-20.39-26.131-36.585-26.131c-22.99,0-42.069,14.155-58.124,29.851c-20.75,20.414-37.024,48.192-45.299,73.408
		c-15.042,48.179-19.933,108.528,34.406,109.522c14.669,0,32.142-10.44,48.733-31.4l3.16-3.71c-0.005,0.541-0.052,2.081-0.08,3.183
		c-0.285,15.22,8.368,31.471,24.549,31.471c18.808,0,40.039-16.792,72.578-52.985c9.152-9.979,16.661-19.42,21.524-27.77
		c1.074-2.642,2.18-4.723,2.198-6.259C309.214,308.4,307.636,306.776,305.545,306.776z M191.744,326.191
		c-8.069,14.155-19.807,26.757-28.348,34.126c-4.975,3.98-9.614,5.703-13.777,5.703c-10.039,0-16.802-10.427-16.148-25.674
		c1.311-38.741,19.266-78.584,45.564-109.522c7.953-8.998,16.578-19.97,29.599-19.97c11.038,0,16.606,6.804,16.363,19.419
		C224.325,264.315,209.586,296.881,191.744,326.191z M174.532,71.98l23.694-6.222c3.491-0.91,7.075-4.494,7.981-7.995l6.198-23.783
		c0.892-3.477,2.375-3.477,3.29,0l6.198,23.783c0.919,3.496,4.485,7.085,7.967,7.995l23.704,6.222c3.473,0.896,3.473,2.394,0,3.304
		l-23.704,6.203c-3.481,0.924-7.048,4.513-7.967,7.995l-6.198,23.774c-0.91,3.481-2.398,3.481-3.29,0l-6.198-23.774
		c-0.906-3.486-4.49-7.071-7.981-7.995l-23.694-6.203C171.064,74.374,171.064,72.876,174.532,71.98z M106.201,242.641l-14.71-56.444
		c-2.422-9.297-11.98-18.888-21.268-21.324L6.941,148.277c-9.255-2.427-9.255-6.398,0-8.839l63.286-16.592
		c9.287-2.427,18.846-12.027,21.268-21.319l16.536-63.486c2.422-9.296,6.384-9.296,8.816,0l16.55,63.486
		c2.413,9.292,11.985,18.893,21.249,21.319l63.295,16.592c9.265,2.44,9.265,6.412,0,8.839l-63.295,16.597
		c-9.259,2.436-18.832,12.027-21.249,21.324l-7.561,29.029C118.695,223.576,112.062,232.835,106.201,242.641z M388.47,259.834
		l37.528,9.852c5.498,1.442,5.498,3.8,0,5.242l-37.528,9.828c-5.493,1.456-11.154,7.141-12.601,12.648l-9.824,37.64
		c-1.433,5.507-3.762,5.507-5.209,0l-9.814-37.64c-1.438-5.508-7.095-11.192-12.606-12.648l-37.509-9.828
		c-5.503-1.442-5.503-3.8,0-5.242l37.509-9.852c5.508-1.424,11.169-7.113,12.606-12.634l9.814-37.636
		c1.447-5.507,3.776-5.507,5.209,0l9.824,37.636C377.316,252.721,382.972,258.411,388.47,259.834z"/>
</g>
<g>
</g>
<g>
</g>
<g>
</g>
<g>
</g>
<g>
</g>
<g>
</g>
<g>
</g>
<g>
</g>
<g>
</g>
<g>
</g>
<g>
</g>
<g>
</g>
<g>
</g>
<g>
</g>
<g>
</g>
</svg>
