<?xml version="1.0" encoding="iso-8859-1"?>
<!-- Generator: Adobe Illustrator 16.0.0, SVG Export Plug-In . SVG Version: 6.00 Build 0)  -->
<!DOCTYPE svg PUBLIC "-//W3C//DTD SVG 1.1//EN" "http://www.w3.org/Graphics/SVG/1.1/DTD/svg11.dtd">
<svg version="1.1" id="Capa_1" xmlns="http://www.w3.org/2000/svg" xmlns:xlink="http://www.w3.org/1999/xlink" x="0px" y="0px"
	 width="90px" height="90px" viewBox="0 0 90 90" style="enable-background:new 0 0 90 90;" xml:space="preserve">
<g>
	<path id="DesignFloat" d="M51.395,22.505v-8.812c12,2.771,20.651,11.033,23.41,24.033h-8.769
		C63.764,29.726,58.395,24.788,51.395,22.505z M38.394,22.498v-8.805c-14,2.771-21.354,11.033-24.114,24.033h8.773
		C25.328,29.726,31.394,24.788,38.394,22.498z M23.053,49.727H14.28c2.763,15,10.114,21.971,24.114,24.74v-8.806
		C31.394,63.38,25.332,56.727,23.053,49.727z M84.333,44.086c0,22.064-17.812,39.951-39.786,39.951
		C22.573,84.037,4.76,66.15,4.76,44.086c0-22.069,17.813-39.95,39.787-39.95C66.523,4.136,84.333,22.017,84.333,44.086z
		 M80.348,44.081c0-19.854-16.031-35.953-35.804-35.953c-19.775,0-35.802,16.1-35.802,35.953c0,19.856,16.026,35.944,35.802,35.944
		C64.316,80.027,80.348,63.939,80.348,44.081z M44.544,62.293c-10.02-0.012-18.123-8.154-18.142-18.207
		c0.019-10.065,8.122-18.2,18.142-18.22c10.022,0.02,18.122,8.154,18.138,18.22C62.666,54.139,54.568,62.282,44.544,62.293z
		 M58.654,44.086c0-7.827-6.313-14.175-14.106-14.175s-14.112,6.348-14.112,14.175c0,7.822,6.317,14.163,14.111,14.163
		S58.654,51.909,58.654,44.086z M51.395,65.662v8.805c12-2.77,20.651-9.74,23.41-24.74h-8.769
		C63.76,56.727,58.395,63.38,51.395,65.662z M85.598,67.398c-2.436,0-4.412,1.982-4.412,4.429s1.978,4.428,4.412,4.428
		c2.434,0,4.402-1.981,4.402-4.428S88.031,67.398,85.598,67.398z M74.941,78.686c-3.115,0-5.635,2.529-5.635,5.658
		c0,3.12,2.52,5.656,5.635,5.656c3.106,0,5.634-2.536,5.634-5.656C80.575,81.215,78.048,78.686,74.941,78.686z M84.191,53.014
		c-1.418,0-2.571,1.158-2.571,2.582s1.153,2.582,2.571,2.582c1.426,0,2.576-1.158,2.576-2.582S85.617,53.014,84.191,53.014z
		 M6.207,82.958c-1.566,0-2.831,1.274-2.831,2.841c0,1.575,1.265,2.85,2.831,2.85c1.56,0,2.829-1.273,2.829-2.85
		C9.037,84.232,7.767,82.958,6.207,82.958z M5.317,68.008c-1.495,0-2.707,1.211-2.707,2.713c0,1.496,1.212,2.717,2.707,2.717
		c1.496,0,2.701-1.221,2.701-2.717C8.018,69.219,6.813,68.008,5.317,68.008z M14.156,74.85c-2.001,0-3.626,1.631-3.626,3.643
		c0,2.016,1.625,3.641,3.626,3.641c2.008,0,3.627-1.625,3.627-3.641C17.783,76.48,16.164,74.85,14.156,74.85z M85.625,19.709
		c-1.042,0-1.884,0.845-1.884,1.898c0,1.04,0.842,1.893,1.884,1.893c1.047,0,1.891-0.853,1.891-1.893
		C87.516,20.554,86.672,19.709,85.625,19.709z M3.186,11.745C1.432,11.745,0,13.176,0,14.944c0,1.761,1.432,3.192,3.186,3.192
		c1.761,0,3.187-1.432,3.187-3.192C6.373,13.175,4.947,11.745,3.186,11.745z M10.497,0C8.282,0,6.495,1.795,6.495,4.019
		c0,2.217,1.787,4.011,4.002,4.011c2.209,0,3.997-1.794,3.997-4.011C14.494,1.795,12.706,0,10.497,0z M4.226,24.898
		c-1.111,0-2.008,0.903-2.008,2.017c0,1.11,0.896,2.016,2.008,2.016c1.109,0,2.01-0.905,2.01-2.016
		C6.236,25.801,5.335,24.898,4.226,24.898z"/>
</g>
<g>
</g>
<g>
</g>
<g>
</g>
<g>
</g>
<g>
</g>
<g>
</g>
<g>
</g>
<g>
</g>
<g>
</g>
<g>
</g>
<g>
</g>
<g>
</g>
<g>
</g>
<g>
</g>
<g>
</g>
</svg>
