<?xml version="1.0" encoding="iso-8859-1"?>
<!-- Generator: Adobe Illustrator 16.0.0, SVG Export Plug-In . SVG Version: 6.00 Build 0)  -->
<!DOCTYPE svg PUBLIC "-//W3C//DTD SVG 1.1//EN" "http://www.w3.org/Graphics/SVG/1.1/DTD/svg11.dtd">
<svg version="1.1" id="Capa_1" xmlns="http://www.w3.org/2000/svg" xmlns:xlink="http://www.w3.org/1999/xlink" x="0px" y="0px"
	 width="90px" height="90px" viewBox="0 0 90 90" style="enable-background:new 0 0 90 90;" xml:space="preserve">
<g>
	<path id="deviantART" d="M30.418,28.698c-0.263,0.041-0.492,0.104-0.754,0.149L25.334,20l-12.84,1.468l5.232,10.768
		C-9.349,43.481,2.648,70,2.648,70L43.96,58.038l-11.351-23.18c20.373-5.89,37.385,6.152,37.385,6.152l-14.022,3.81l-4.037-7.544
		c-3.8-0.709-8.124-0.925-12.732-0.152l9.548,19.519L90,44.69C90,44.69,75.04,21.057,30.418,28.698z M13.827,56.264
		c0,0-3.98-8.842,7.603-16.413l6.161,12.68L13.827,56.264z"/>
</g>
<g>
</g>
<g>
</g>
<g>
</g>
<g>
</g>
<g>
</g>
<g>
</g>
<g>
</g>
<g>
</g>
<g>
</g>
<g>
</g>
<g>
</g>
<g>
</g>
<g>
</g>
<g>
</g>
<g>
</g>
</svg>
