<?xml version="1.0" encoding="iso-8859-1"?>
<!-- Generator: Adobe Illustrator 16.0.0, SVG Export Plug-In . SVG Version: 6.00 Build 0)  -->
<!DOCTYPE svg PUBLIC "-//W3C//DTD SVG 1.1//EN" "http://www.w3.org/Graphics/SVG/1.1/DTD/svg11.dtd">
<svg version="1.1" id="Capa_1" xmlns="http://www.w3.org/2000/svg" xmlns:xlink="http://www.w3.org/1999/xlink" x="0px" y="0px"
	 width="430.117px" height="430.117px" viewBox="0 0 430.117 430.117" style="enable-background:new 0 0 430.117 430.117;"
	 xml:space="preserve">
<g>
	<path id="Digg" d="M76.465,62.128v76.465H0v3.25v36.058v73.504l0,0v40.119l0,0l0,0h44.794l0,0h30.29l0,0h44.393V178.714v-42.41
		V62.128H76.465z M43.012,253.291v-76.465h33.454v76.465H43.012z M129.035,138.593h43.012v152.931h-43.012V138.593z M129.035,62.128
		h43.012v43.012h-43.012V62.128z M305.861,138.593L305.861,138.593H191.163v40.121l0,0v112.811h71.687v33.453h-71.687v43.012h71.72
		h42.979v-74.678v-43.297V138.593L305.861,138.593z M234.175,253.291v-76.465h28.675v76.465H234.175z M430.117,138.593H315.42l0,0
		l0,0v112.812v40.119h76.465v33.453H315.42v43.012h75.242h39.455v-45.85v-28.329v-42.405v-72.691l0,0V138.593z M391.885,253.291
		h-33.453v-76.465h33.453V253.291z"/>
</g>
<g>
</g>
<g>
</g>
<g>
</g>
<g>
</g>
<g>
</g>
<g>
</g>
<g>
</g>
<g>
</g>
<g>
</g>
<g>
</g>
<g>
</g>
<g>
</g>
<g>
</g>
<g>
</g>
<g>
</g>
</svg>
