<?xml version="1.0" encoding="iso-8859-1"?>
<!-- Generator: Adobe Illustrator 16.0.0, SVG Export Plug-In . SVG Version: 6.00 Build 0)  -->
<!DOCTYPE svg PUBLIC "-//W3C//DTD SVG 1.1//EN" "http://www.w3.org/Graphics/SVG/1.1/DTD/svg11.dtd">
<svg version="1.1" id="Capa_1" xmlns="http://www.w3.org/2000/svg" xmlns:xlink="http://www.w3.org/1999/xlink" x="0px" y="0px"
	 width="90px" height="90px" viewBox="0 0 90 90" style="enable-background:new 0 0 90 90;" xml:space="preserve">
<g>
	<path id="Digg__x28_alt_x29_" d="M90,22.602h-6.232v0.014h-5.313V5h-6.063h-0.17H44.762v5.956V22.37H39.35h-0.025h-6.117v22.696
		H5.904V22.37H0v22.819h5.902v6.082h10.58v10.539H12.05v6.205h14.98v10.789H12.05V68.016H6.025V85h6.025h14.98h0.02h6.023V68.016
		H27.05v-6.205h-4.428V51.271h16.975v33.555h5.958v0.062h39.288v-6.084V49.893H90V22.602z M72.221,10.956v22.328H50.818V10.956
		H72.221z M65.201,78.805V61.811h-5.482v16.994H45.746V51.271v-0.061v-6.145H39.35V28.694h5.412v10.792h5.951h0.105h21.402h0.17
		h6.062V28.694h5.314v16.496h-5.07v33.615H65.201z M27.051,22.37v-5.955h6.156v5.955H27.051z M27.051,16.416h-15v-6.201h15V16.416z
		 M12.051,22.37H5.905v-5.955h6.146V22.37z"/>
</g>
<g>
</g>
<g>
</g>
<g>
</g>
<g>
</g>
<g>
</g>
<g>
</g>
<g>
</g>
<g>
</g>
<g>
</g>
<g>
</g>
<g>
</g>
<g>
</g>
<g>
</g>
<g>
</g>
<g>
</g>
</svg>
