<?xml version="1.0" encoding="iso-8859-1"?>
<!-- Generator: Adobe Illustrator 16.0.0, SVG Export Plug-In . SVG Version: 6.00 Build 0)  -->
<!DOCTYPE svg PUBLIC "-//W3C//DTD SVG 1.1//EN" "http://www.w3.org/Graphics/SVG/1.1/DTD/svg11.dtd">
<svg version="1.1" id="Capa_1" xmlns="http://www.w3.org/2000/svg" xmlns:xlink="http://www.w3.org/1999/xlink" x="0px" y="0px"
	 width="90.002px" height="90.002px" viewBox="0 0 90.002 90.002" style="enable-background:new 0 0 90.002 90.002;"
	 xml:space="preserve">
<g>
	<path id="Diigo" d="M45.064,34.461c11.202-0.175,17.343-6.125,23.069-11.699V90H56.85c-0.102-2.707-0.158-5.449-0.201-8.203V62.983
		c0.076-7.114,0.191-14.231,0.218-21.216c-1.586,0.421-3.375,1.258-5.392,1.789c-6.062,1.599-14.038,0.762-18.65-1.938
		c0.015,3.314,0.037,6.655,0.063,10.007v35.16c-0.019,1.072-0.031,2.148-0.054,3.217H21.508V22.587
		C27.296,28.716,33.709,34.637,45.064,34.461z M62.745,14.853c4.009,0,7.257-3.326,7.257-7.427S66.753,0,62.745,0
		c-4.008,0-7.258,3.324-7.258,7.426S58.737,14.853,62.745,14.853z M27.26,14.853c4.008,0,7.256-3.326,7.256-7.427S31.268,0,27.26,0
		C23.25,0,20,3.324,20,7.426S23.25,14.853,27.26,14.853z"/>
</g>
<g>
</g>
<g>
</g>
<g>
</g>
<g>
</g>
<g>
</g>
<g>
</g>
<g>
</g>
<g>
</g>
<g>
</g>
<g>
</g>
<g>
</g>
<g>
</g>
<g>
</g>
<g>
</g>
<g>
</g>
</svg>
