<?xml version="1.0" encoding="iso-8859-1"?>
<!-- Generator: Adobe Illustrator 16.0.0, SVG Export Plug-In . SVG Version: 6.00 Build 0)  -->
<!DOCTYPE svg PUBLIC "-//W3C//DTD SVG 1.1//EN" "http://www.w3.org/Graphics/SVG/1.1/DTD/svg11.dtd">
<svg version="1.1" id="Capa_1" xmlns="http://www.w3.org/2000/svg" xmlns:xlink="http://www.w3.org/1999/xlink" x="0px" y="0px"
	 width="430.123px" height="430.123px" viewBox="0 0 430.123 430.123" style="enable-background:new 0 0 430.123 430.123;"
	 xml:space="preserve">
<g>
	<path id="Dropbox_1_" d="M348.911,169.42L220.258,91.062l81.133-67.164l128.732,79.217L348.911,169.42z M300.532,317.532
		l123.547-72.331l-74.31-62.858l-120.961,73.191L300.532,317.532z M201.328,255.534L80.355,182.343L6.06,245.201l123.559,72.331
		L201.328,255.534z M86.406,307.199v23.251l123.472,75.774V262.414l-81.989,67.168L86.406,307.199z M343.712,307.199l-41.453,22.388
		l-82.001-67.173v143.811l123.454-75.774V307.199z M209.878,91.062l-81.135-67.164L0,103.115l81.226,66.305L209.878,91.062z"/>
</g>
<g>
</g>
<g>
</g>
<g>
</g>
<g>
</g>
<g>
</g>
<g>
</g>
<g>
</g>
<g>
</g>
<g>
</g>
<g>
</g>
<g>
</g>
<g>
</g>
<g>
</g>
<g>
</g>
<g>
</g>
</svg>
