<?xml version="1.0" encoding="iso-8859-1"?>
<!-- Generator: Adobe Illustrator 16.0.0, SVG Export Plug-In . SVG Version: 6.00 Build 0)  -->
<!DOCTYPE svg PUBLIC "-//W3C//DTD SVG 1.1//EN" "http://www.w3.org/Graphics/SVG/1.1/DTD/svg11.dtd">
<svg version="1.1" id="Capa_1" xmlns="http://www.w3.org/2000/svg" xmlns:xlink="http://www.w3.org/1999/xlink" x="0px" y="0px"
	 width="430.114px" height="430.114px" viewBox="0 0 430.114 430.114" style="enable-background:new 0 0 430.114 430.114;"
	 xml:space="preserve">
<g>
	<path id="Drupal" d="M309.033,79.982c-22.028-13.69-42.854-19.062-63.631-32.756C232.521,38.529,214.651,17.812,199.658,0
		c-2.886,28.593-11.625,40.221-21.62,48.512c-21.165,16.547-34.485,21.51-52.799,31.47c-15.385,7.88-98.956,57.585-98.956,164.513
		c0,106.899,90.238,185.619,190.424,185.619c100.223,0,187.124-72.508,187.124-182.319
		C403.831,137.982,322.334,88.264,309.033,79.982z M310.723,388.315c-2.091,2.059-21.217,15.322-43.656,17.413
		c-22.458,2.054-52.821,3.3-71.103-13.278c-2.9-2.912-2.098-7.023,0-8.676c2.074-1.685,3.733-2.931,6.242-2.931s2.056,0,3.33,0.83
		c8.312,6.642,20.777,12.004,47.371,12.004c26.625,0,45.354-7.416,53.652-13.665c3.743-2.894,5.404-0.401,5.834,1.261
		C312.795,382.919,313.63,385.426,310.723,388.315z M238.663,353.433c4.573-4.158,12.078-10.79,19.153-13.679
		c7.066-2.913,10.771-2.492,17.446-2.492c6.646,0,13.739,0.415,18.715,3.752c4.975,3.318,7.901,10.753,9.529,14.869
		c1.681,4.173,0,6.646-3.295,8.321c-2.893,1.639-3.322,0.817-6.234-4.555c-2.89-5.381-5.396-10.79-19.957-10.79
		c-14.542,0-19.125,4.989-26.191,10.79c-7.066,5.787-9.567,7.864-12.074,4.555C233.268,360.896,234.099,357.564,238.663,353.433z
		 M388.737,274.443c0,12.835-4.145,36.035-14.15,50.535c-9.945,14.524-16.176,19.919-27.862,19.079
		c-14.981-1.26-44.897-47.66-64.023-48.51c-24.082-0.816-76.495,50.181-117.671,50.181c-24.957,0-32.413-3.725-40.723-9.139
		c-12.494-8.699-18.736-21.953-18.325-40.192c0.446-32.343,30.759-62.558,69.036-62.959c48.617-0.43,82.341,48.024,106.843,47.632
		c20.802-0.392,60.737-41.023,80.274-41.023C382.918,240.046,388.737,261.562,388.737,274.443z"/>
</g>
<g>
</g>
<g>
</g>
<g>
</g>
<g>
</g>
<g>
</g>
<g>
</g>
<g>
</g>
<g>
</g>
<g>
</g>
<g>
</g>
<g>
</g>
<g>
</g>
<g>
</g>
<g>
</g>
<g>
</g>
</svg>
