<?xml version="1.0" encoding="iso-8859-1"?>
<!-- Generator: Adobe Illustrator 16.0.0, SVG Export Plug-In . SVG Version: 6.00 Build 0)  -->
<!DOCTYPE svg PUBLIC "-//W3C//DTD SVG 1.1//EN" "http://www.w3.org/Graphics/SVG/1.1/DTD/svg11.dtd">
<svg version="1.1" id="Capa_1" xmlns="http://www.w3.org/2000/svg" xmlns:xlink="http://www.w3.org/1999/xlink" x="0px" y="0px"
	 width="430.117px" height="430.117px" viewBox="0 0 430.117 430.117" style="enable-background:new 0 0 430.117 430.117;"
	 xml:space="preserve">
<g>
	<path id="eBay" d="M386.107,121.866l-33.51,72.041l-31.008-72.041h-47.512l8,16.12c-4.494-0.502-9.502-1.008-15.01-1.008
		c-12.498,0-23.508,2.016-30.998,8.067c-8.009,5.036-12.508,14.605-12.508,29.218h33.005c0-9.572,0.505-18.638,12.508-18.638
		c12.004,0,13.502,7.556,13.502,17.63v9.568c-19.009-0.507-37.509,0-49.014,9.061c-5.003-5.031-11.509-8.058-21.506-8.058
		c-12.006,0-20.01,3.533-27.006,13.603h-0.502v-62.966h-33.005v56.919c-4.999-2.518-11.005-4.023-18.003-5.544
		c-11.506-2.518-26.514-4.023-45.516-4.023C8.501,181.815,0,206.494,0,235.211c0,33.248,10.008,56.425,88.021,56.425
		c18.008,0,33.517-2.025,46.013-4.546c6.499-1.507,12.508-3.523,17.506-6.048v24.698h31.514v-13.105h0.497
		c6.006,11.588,15.004,15.616,28.005,15.616c27.51,0,32.004-24.685,33.012-46.849c2.497,0.504,4.999,0.504,8.004,0.504
		c14.496,0,24.003-6.048,31.004-18.131h0.499l1.498,16.12h31.018c-0.499-7.557-1.498-15.112-1.498-22.669v-31.735l13.493,27.708
		v58.936h43.511v-58.936l58.021-111.333H386.107z M88.021,199.946c29.008,0,28.009,14.617,28.009,24.688H61.015
		C61.015,216.071,60.518,199.946,88.021,199.946z M134.034,253.348h-0.497h-19.508c0,9.062-4.501,19.135-26.007,19.135
		c-26.5,0-27.006-18.636-27.006-31.232h90.525v12.093h-17.506V253.348z M212.058,244.783c0,30.224-1.997,42.82-14.003,42.82
		c-11.506,0-13.509-12.597-13.509-42.82c0-23.676,0-40.3,13.509-40.3C212.56,204.483,212.058,221.107,212.058,244.783z
		 M266.07,241.25c-11.001,0-12.499-10.575-12.499-19.135c0-21.166,12.499-19.648,29.006-20.659
		C282.577,214.563,285.573,241.25,266.07,241.25z"/>
</g>
<g>
</g>
<g>
</g>
<g>
</g>
<g>
</g>
<g>
</g>
<g>
</g>
<g>
</g>
<g>
</g>
<g>
</g>
<g>
</g>
<g>
</g>
<g>
</g>
<g>
</g>
<g>
</g>
<g>
</g>
</svg>
