<?xml version="1.0" encoding="iso-8859-1"?>
<!-- Generator: Adobe Illustrator 16.0.0, SVG Export Plug-In . SVG Version: 6.00 Build 0)  -->
<!DOCTYPE svg PUBLIC "-//W3C//DTD SVG 1.1//EN" "http://www.w3.org/Graphics/SVG/1.1/DTD/svg11.dtd">
<svg version="1.1" id="Capa_1" xmlns="http://www.w3.org/2000/svg" xmlns:xlink="http://www.w3.org/1999/xlink" x="0px" y="0px"
	 width="430.12px" height="430.119px" viewBox="0 0 430.12 430.119" style="enable-background:new 0 0 430.12 430.119;"
	 xml:space="preserve">
<g>
	<path id="Ember" d="M390.342,148.046c-6.264,23.293-30.948,34.936-30.948,34.936C303.147,40.053,229.593,0,229.593,0
		c-3.127,45.849-58.581,82-58.581,82l-38.478-20.255c6.214,32.537-13.672,62.926-13.672,62.926
		c-79.692,52.05-49.025,159.11-49.025,159.11l-33.993-15.443C61.14,451.521,215.758,429.269,215.758,429.269
		C436.056,427.714,390.342,148.046,390.342,148.046z M209.852,394.751c-132.19-0.929-104.757-168.734-104.757-168.734
		c3.745,13.979,18.556,20.965,18.556,20.965c33.755-85.76,77.884-109.784,77.884-109.784c1.888,27.489,35.162,49.205,35.162,49.205
		l23.074-12.163c-3.729,19.527,8.204,37.75,8.204,37.75c47.811,31.221,29.422,95.468,29.422,95.468l20.391-9.26
		C302.615,408.099,209.852,394.751,209.852,394.751z"/>
</g>
<g>
</g>
<g>
</g>
<g>
</g>
<g>
</g>
<g>
</g>
<g>
</g>
<g>
</g>
<g>
</g>
<g>
</g>
<g>
</g>
<g>
</g>
<g>
</g>
<g>
</g>
<g>
</g>
<g>
</g>
</svg>
