<?xml version="1.0" encoding="iso-8859-1"?>
<!-- Generator: Adobe Illustrator 16.0.0, SVG Export Plug-In . SVG Version: 6.00 Build 0)  -->
<!DOCTYPE svg PUBLIC "-//W3C//DTD SVG 1.1//EN" "http://www.w3.org/Graphics/SVG/1.1/DTD/svg11.dtd">
<svg version="1.1" id="Capa_1" xmlns="http://www.w3.org/2000/svg" xmlns:xlink="http://www.w3.org/1999/xlink" x="0px" y="0px"
	 width="90px" height="90px" viewBox="0 0 90 90" style="enable-background:new 0 0 90 90;" xml:space="preserve">
<g>
	<path id="Etsy" d="M18.604,88.889c7.581-0.33,16.789,0,25.766,0c9.267,0,18.754-0.615,26.227,0c3.019,0.25,5.796,2.057,8.283,0.457
		c1.92-2.474,0.496-5.793,0.921-9.119c0.807-6.316,6.631-13.889-1.843-15.5c-3.608,3.289-1.176,6.412-3.219,10.486
		c-2.475,4.932-11.342,6.639-19.785,7.293c-7.246,0.562-19.947,1.289-22.547-3.646c-2.195-4.165-0.922-10.625-0.922-15.956
		c0-6.03-0.647-11.804,0.922-16.414c9.205,0.673,21.109-3.068,27.607,0.911c4.347,2.664,1.875,7.877,6.901,9.574
		c3.46-0.93,1.613-5.401,1.379-9.574c-0.147-2.689-0.137-6.468,0-9.574c0.187-4.192,1.805-9.054-2.762-9.118
		c-3.586,2.787-0.89,7.432-4.602,10.029c-1.187,0.832-3.763,1.183-5.519,1.37c-6.896,0.728-17.712,0.134-23.469-0.913
		c-0.793-8.402-0.725-19.852,0-28.266c3.125-3.104,10.313-3.212,15.185-3.193c8.535,0.034,21.846,0.744,24.387,5.016
		c1.383,2.324,0.286,7.188,2.762,7.75c4.979,1.137,2.559-7.747,2.762-11.854c0.15-3.079,1.511-5.062,0.918-7.295
		c-1.61-2.201-4.012-1.098-5.52-0.911C56.779,2.377,32.999,1.352,16.303,1.352c-1.994,0-5.477-0.994-6.901,1.368
		c-0.963,5.266,6.226,3.089,8.741,5.927c0.818,0.923,2.027,5,2.301,7.751c0.728,7.307,0,18.467,0,29.179
		c0,11.319,0.859,22.737,0,29.636c-0.3,2.408-1.753,6.289-2.301,6.838c-3.135,3.133-11.422-0.336-10.584,6.385
		C10.471,90.395,14.688,89.061,18.604,88.889z"/>
</g>
<g>
</g>
<g>
</g>
<g>
</g>
<g>
</g>
<g>
</g>
<g>
</g>
<g>
</g>
<g>
</g>
<g>
</g>
<g>
</g>
<g>
</g>
<g>
</g>
<g>
</g>
<g>
</g>
<g>
</g>
</svg>
