<?xml version="1.0" encoding="iso-8859-1"?>
<!-- Generator: Adobe Illustrator 16.0.0, SVG Export Plug-In . SVG Version: 6.00 Build 0)  -->
<!DOCTYPE svg PUBLIC "-//W3C//DTD SVG 1.1//EN" "http://www.w3.org/Graphics/SVG/1.1/DTD/svg11.dtd">
<svg version="1.1" id="Capa_1" xmlns="http://www.w3.org/2000/svg" xmlns:xlink="http://www.w3.org/1999/xlink" x="0px" y="0px"
	 width="90px" height="90px" viewBox="0 0 90 90" style="enable-background:new 0 0 90 90;" xml:space="preserve">
<g>
	<path id="Evernote" d="M24.755,19.396l-14.588-0.017L28.444,0.99l0.005,14.831L24.755,19.396z M76.434,12.091
		c-1.556-2.68-9.688-5.768-13.912-5.768c-4.217,0-10.879,0-10.879,0S48.15,0,39.937,0c-8.218,0-7.666,3.663-7.666,6.791v12.646
		l-3.725,3.932h-17.2c0,0-4.846,3.205-4.846,10.133c0,6.929,2.15,31.07,16.585,33.305c17.08,2.646,20.005-5.293,20.005-6.246
		c0-4.021,0.102-10.111,0.102-10.111s5.001,9.556,12.555,9.556c7.553,0,11.944,4.339,11.944,8.808c0,4.472,0,8.268,0,8.268
		s-0.281,5.175-4.721,5.175c-4.445,0-9.479,0-9.479,0s-3.111-2.423-3.111-5.772c0-3.351,1.521-4.262,3.297-4.262
		s3.233,0.206,3.233,0.206v-7.048c0,0-14.304-0.093-14.304,10.86C42.607,87.188,50.087,90,56.085,90c5.993,0,9.771,0,9.771,0
		S83.5,87.73,83.5,52.875C83.5,18.016,77.988,14.773,76.434,12.091z M58.889,43.337c0,0,0.858-5.748,4.191-5.748
		s7.911,7.677,7.911,7.677S60.549,43.337,58.889,43.337z"/>
</g>
<g>
</g>
<g>
</g>
<g>
</g>
<g>
</g>
<g>
</g>
<g>
</g>
<g>
</g>
<g>
</g>
<g>
</g>
<g>
</g>
<g>
</g>
<g>
</g>
<g>
</g>
<g>
</g>
<g>
</g>
</svg>
