<?xml version="1.0" encoding="iso-8859-1"?>
<!-- Generator: Adobe Illustrator 16.0.0, SVG Export Plug-In . SVG Version: 6.00 Build 0)  -->
<!DOCTYPE svg PUBLIC "-//W3C//DTD SVG 1.1//EN" "http://www.w3.org/Graphics/SVG/1.1/DTD/svg11.dtd">
<svg version="1.1" id="Capa_1" xmlns="http://www.w3.org/2000/svg" xmlns:xlink="http://www.w3.org/1999/xlink" x="0px" y="0px"
	 width="90px" height="90px" viewBox="0 0 90 90" style="enable-background:new 0 0 90 90;" xml:space="preserve">
<g>
	<path id="Feedburner" d="M73.906,59.148c0.25-1.342,0.423-2.689,0.431-4.039c0.067-16.917-9.127-23.513-18.864-29.15
		c2.819,14.815-6.301,23.961-17.632,20.759C54.402,19.63,30.304,19.564,37.669,0C26.343,8.046,14.981,30.563,15.017,46.997
		c0.006,4.34,0.443,8.374,1.252,12.069C8.116,62.334,3,66.962,3,72.092C3,81.956,21.868,90,45.002,90C68.139,90,87,81.956,87,72.092
		C87,67.001,81.95,62.411,73.906,59.148z M28.927,37.646c-3.133,14.127,5.266,24.647,13.354,24.75
		c9.124,0.067,14.534-8.457,17.11-19.63c4.848,3.7,7.351,8.859,7.672,14.119c-0.014-0.004-0.024-0.007-0.037-0.011
		c0.367,5.957-2.067,12.043-7.123,16.3c-0.026,0.023-0.053,0.046-0.08,0.067c-1.088,0.907-2.299,1.726-3.625,2.444
		c-0.116,0.063-0.239,0.123-0.36,0.187c-0.53,0.276-1.081,0.532-1.647,0.774c-0.164,0.07-0.326,0.142-0.492,0.209
		c-1.391,0.559-2.887,1.011-4.486,1.346c-0.225,0.046-0.453,0.085-0.682,0.127c-0.604,0.109-1.223,0.206-1.854,0.283
		c-0.248,0.029-0.492,0.062-0.746,0.088c-0.859,0.084-1.736,0.146-2.646,0.165c-0.635,0.013-1.264-0.013-1.887-0.056
		c-0.164-0.011-0.326-0.025-0.489-0.039c-0.528-0.049-1.052-0.112-1.569-0.199c-0.098-0.016-0.196-0.026-0.293-0.045
		c-0.625-0.111-1.242-0.25-1.848-0.418c-0.074-0.021-0.147-0.045-0.221-0.065c-0.566-0.162-1.123-0.347-1.67-0.556
		c-0.057-0.021-0.115-0.043-0.173-0.065c-7.505-2.948-12.96-10.257-12.668-20.413c-0.014,0.003-0.025,0.008-0.038,0.012
		C22.591,51.359,24.532,44.82,28.927,37.646z"/>
</g>
<g>
</g>
<g>
</g>
<g>
</g>
<g>
</g>
<g>
</g>
<g>
</g>
<g>
</g>
<g>
</g>
<g>
</g>
<g>
</g>
<g>
</g>
<g>
</g>
<g>
</g>
<g>
</g>
<g>
</g>
</svg>
