<?xml version="1.0" encoding="iso-8859-1"?>
<!-- Generator: Adobe Illustrator 16.0.0, SVG Export Plug-In . SVG Version: 6.00 Build 0)  -->
<!DOCTYPE svg PUBLIC "-//W3C//DTD SVG 1.1//EN" "http://www.w3.org/Graphics/SVG/1.1/DTD/svg11.dtd">
<svg version="1.1" id="Capa_1" xmlns="http://www.w3.org/2000/svg" xmlns:xlink="http://www.w3.org/1999/xlink" x="0px" y="0px"
	 width="430.123px" height="430.124px" viewBox="0 0 430.123 430.124" style="enable-background:new 0 0 430.123 430.124;"
	 xml:space="preserve">
<g>
	<path id="Folkd" d="M275.829,126.133c-2.801,2.938-9.437,2.107-15.215,2.131c-1.568,4.861-1.933,10.907-4.341,14.956
		c9.614,7.626,28.399,6.25,36.936,14.939c18.394-6.831,3.771-20.804,15.22-32.026c17.398-2.156,21.282,8.984,26.07,19.217
		c-4.098,3.785-14.356,1.554-21.73,2.126c-3.967,3.218-5.114,9.215-8.689,12.823c3.948,8.923,14.738,11.126,17.398,21.333
		c22.337-5.764,45.383-10.891,69.521-14.925c6.329-6.604,4.892-20.832,15.22-23.487c16.96,3.253,22.407,17.821,23.905,36.287
		c-9.008,16.02-32.278,9.294-39.125-4.254c-22.504,3.496-44.038,7.967-65.189,12.799c-1.699,4.984,1.559,19.394-2.165,27.771
		c14.206,9.612,19.825-7.514,32.595-6.415c7.393,7.715,7.607,36.459-8.69,34.154c-9.292-0.821-10.36-9.75-10.869-19.205
		c-6.642,1.531-7.916-2.198-13.035-2.151c-9.96,5.885-14.935,16.643-26.07,21.356c1.438,18.99,22.467,5.82,32.595,14.958
		c-0.892,15.495-12.303,20.647-28.264,21.347c-1.009-12.853,3.332-23.088-10.855-29.888c-14.422,2.193-21.072,12.018-34.766,14.953
		c-0.215,6.613,2.66,10.188,4.341,14.935c3.817,2.614,17.912-3.252,21.739,4.271c-0.131,16.508-22.626,28.077-34.771,19.224
		c-0.971-9.492,5.876-11.299,8.69-17.091c-4.116-4.494-6.259-10.935-8.69-17.081c-13.487,5.255-25.575,11.887-43.459,12.825
		c0.058,5.017-3.741,6.272-2.184,12.797c-0.831,7.943,10.473,3.963,10.874,10.679c3.671,19.387-27.293,22.374-32.585,8.54
		c-0.438-13.222,15.887-9.996,10.854-27.76c-10.919-4.214-29.419-0.975-39.12-6.403c-5.75,2.166-5.874,9.876-10.855,12.812
		c0.98,6.161,7.691,6.684,6.524,14.948c-14.188,5.568-35.509,1.102-32.593-17.081c8.224-9.446,22.935-1.171,28.234-14.948
		c-8.55-10.091-17.913-19.401-21.711-34.154c-32.602,7.113-59.022,20.312-89.097,29.889c-2.847,7.178-2.987,17.002-8.688,21.352
		c-9.061,2.268-9.586,0.551-19.564,0c-8.608-13.129-3.948-41.486,13.042-42.699c9.362-2.086,6.316,8.009,13.047,8.541
		c30.978-7.258,58.075-18.365,89.085-25.618c-6.637-38.165,49.268-65.028-13.042-59.804c-6.07-18.82,5.731-33.244,17.382-32.03
		c19.537,2.061,4.359,26.54,19.546,34.184c13.936-7.675,23.699-19.417,41.287-23.499c1.262-6.928-1.468-9.929-2.166-14.944
		c-1.351-5.075-13.376,0.332-15.217-4.282c0-4.963,0-9.959,0-14.935c7.04-6.527,25.55-5.442,30.429,2.137
		c1.743,9.549-3.867,11.857-10.863,12.797c0.569,6.576,4.711,9.621,6.504,14.956c13.798-5.675,34.833-4.193,54.332-4.263
		c3.099-2.635,4.116-7.351,4.34-12.823c1.652-8.039-11.537-1.468-8.69-10.667C245.651,97.043,275.895,110.023,275.829,126.133z
		 M293.209,222.21c10.029-5.804,5.661-25.758,6.524-40.574C272.968,159.765,255.42,223.125,293.209,222.21z M197.611,245.7
		c19.947,2.684,47.835-18.897,45.623-38.417c-2.124-18.839-39.189-35.83-60.836-25.646
		C154.508,194.81,175.617,242.746,197.611,245.7z"/>
</g>
<g>
</g>
<g>
</g>
<g>
</g>
<g>
</g>
<g>
</g>
<g>
</g>
<g>
</g>
<g>
</g>
<g>
</g>
<g>
</g>
<g>
</g>
<g>
</g>
<g>
</g>
<g>
</g>
<g>
</g>
</svg>
