<?xml version="1.0" encoding="iso-8859-1"?>
<!-- Generator: Adobe Illustrator 16.0.0, SVG Export Plug-In . SVG Version: 6.00 Build 0)  -->
<!DOCTYPE svg PUBLIC "-//W3C//DTD SVG 1.1//EN" "http://www.w3.org/Graphics/SVG/1.1/DTD/svg11.dtd">
<svg version="1.1" id="Capa_1" xmlns="http://www.w3.org/2000/svg" xmlns:xlink="http://www.w3.org/1999/xlink" x="0px" y="0px"
	 width="430.117px" height="430.118px" viewBox="0 0 430.117 430.118" style="enable-background:new 0 0 430.117 430.118;"
	 xml:space="preserve">
<g>
	<path id="Formspring" d="M178.121,33.309C206.145,11.875,243.248,0,282.554,0c28.703,0,56.556,6.385,80.535,18.428l0.057,0.023
		l0.061,0.03c6.188,2.796,10.058,8.961,10.058,15.56c0,1.62-0.233,3.274-0.724,4.926c-1.479,4.861-5.055,8.851-9.754,10.844
		c-2.185,0.924-4.495,1.381-6.786,1.381c-2.697,0-5.4-0.63-7.846-1.883c-15.093-7.68-32.17-12.496-50.082-14.27
		c-14.239-2.782-28.913-4.229-43.759-4.229c-34.695,0-68.034,7.731-96.805,22.136C163.42,45.94,170.255,39.346,178.121,33.309z
		 M394.434,310.295c0-5.399-2.539-10.688-7.3-14.024c-3.024-2.114-6.487-3.146-9.903-3.146c-5.433,0.009-10.771,2.539-14.113,7.275
		c-8.667,12.224-17.987,21.613-28.418,28.619c-12.232,8.186-31.577,20.801-31.722,20.918l-0.01,0.019
		c-4.872,3.164-7.794,8.531-7.794,14.295l0.037,22.78l-52.971-22.458c-2.114-0.896-4.406-1.372-6.74-1.372l-0.966,0.032
		c-3.976,0.229-7.994,0.336-11.971,0.336c-58.866-0.032-112.649-23.983-140.493-63.136l-0.187-0.229l0.168,0.229
		c-0.539-0.774-1.186-1.489-1.879-2.18l-0.177-0.191l-0.157-0.22c-10.977-16.227-16.689-33.803-16.68-52.145
		c0-32.637,18.071-62.077,46.792-83.182c28.761-21.137,68.261-34.151,111.781-34.151c31.689,0,62.306,6.949,88.6,20.141l0.859,0.411
		l0.037,0.009c13.143,6.709,23.699,15.287,31.018,25.032c7.327,9.722,11.396,20.64,11.396,31.834
		c-0.019,18.134-10.426,35.374-28.692,48.54c-20.265,14.622-47.362,22.575-76.335,22.575c-7.318,0-14.641-0.528-21.739-1.55
		l-0.247-0.047h-0.01c-20.302-3.071-39.689-9.712-56.183-19.271l-0.354-0.173l-0.086-0.042
		c-32.172-18.999-51.011-47.287-51.011-77.8c0-2.371,0.138-4.721,0.364-7.05c-13.301,9.472-24.063,20.766-31.505,33.206
		c8.188,32.383,31.365,61.855,65.666,81.784l1.281,0.639l0.056,0.02c19.823,11.182,42.902,19.014,66.839,22.616l0.421,0.056h0.019
		c8.681,1.242,17.6,1.886,26.48,1.886c36.324,0,70.641-10.389,96.571-29.132c27.844-20.105,42.904-47.123,42.928-76.258
		c0.01-35.355-22.999-68.23-62.165-87.86l-0.896-0.43l-0.032-0.014c-30.798-15.29-66.506-23.394-103.287-23.394
		c-50.79-0.009-98.7,15.304-134.834,42.935c-37.661,28.852-58.206,67.372-58.215,108.677c0,25.936,8.41,51.492,24.383,73.997
		c0.665,0.9,1.447,1.764,2.303,2.585l0.206,0.168l0.128,0.196c34.305,46.27,97.943,75.196,166.869,75.173
		c3.043,0,6.114-0.052,9.194-0.163l0.606-0.023l73.235,31.134c2.176,0.9,4.472,1.344,6.777,1.344c3.332,0,6.646-0.942,9.483-2.823
		c4.825-3.174,7.742-8.55,7.742-14.281l0.042-39.483l1.223-0.826c6.777-4.443,16.083-10.566,23.093-15.252
		c13.722-9.189,26.276-21.707,37.318-37.3C393.425,317.147,394.434,313.703,394.434,310.295z M254.523,235.403l-0.41,2.684
		l0.429-2.684l0.103,0.014c7.626,1.111,15.477,1.662,23.326,1.662c20.396,0,40.044-3.79,57.461-10.706
		c4.182-6.702,6.395-13.708,6.403-20.743c0-6.121-1.755-12.226-4.938-18.137c-16.232,9.712-37.112,15.304-58.927,15.304
		c-6.207,0-12.396-0.427-18.36-1.295c-40.501-6.037-72.748-27.284-86.105-55.009c-11.518,2.95-22.386,6.917-32.39,11.738
		C158.403,197.037,200.703,227.399,254.523,235.403z M401.443,143.345c0-31.246-20.06-60.38-54.307-77.896l-1.11-0.511l-0.01-0.019
		c-27.241-13.658-58.847-20.895-91.437-20.895c-44.674-0.009-86.796,13.462-118.582,37.794
		c-10.734,8.195-19.873,17.314-27.342,27.097c32.614-17.247,70.746-26.745,110.617-27.197c11.359-2.252,23.199-3.428,35.307-3.428
		c27.525,0,54.054,6.104,76.769,17.665l0.9,0.425l0.047,0.028c15.438,8.093,26.519,19.317,31.605,31.876
		c14.463,12.895,25.108,28.145,31.181,44.752C399.212,163.53,401.443,153.561,401.443,143.345z"/>
</g>
<g>
</g>
<g>
</g>
<g>
</g>
<g>
</g>
<g>
</g>
<g>
</g>
<g>
</g>
<g>
</g>
<g>
</g>
<g>
</g>
<g>
</g>
<g>
</g>
<g>
</g>
<g>
</g>
<g>
</g>
</svg>
