<?xml version="1.0" encoding="iso-8859-1"?>
<!-- Generator: Adobe Illustrator 16.0.0, SVG Export Plug-In . SVG Version: 6.00 Build 0)  -->
<!DOCTYPE svg PUBLIC "-//W3C//DTD SVG 1.1//EN" "http://www.w3.org/Graphics/SVG/1.1/DTD/svg11.dtd">
<svg version="1.1" id="Capa_1" xmlns="http://www.w3.org/2000/svg" xmlns:xlink="http://www.w3.org/1999/xlink" x="0px" y="0px"
	 width="90px" height="90px" viewBox="0 0 90 90" style="enable-background:new 0 0 90 90;" xml:space="preserve">
<g>
	<path id="foursquare" d="M90,6.5L56.334,40.843L44.227,29.174L39.15,34.06c-2.697-7.686-10.211-13.218-19.042-13.218
		C9.011,20.842,0,29.579,0,40.354C0,51.039,8.836,59.71,19.801,59.859L44.14,83.5l27.961-27.163l-2.668-2.767L90,37.653V6.5z
		 M86.947,35.896L41.883,71.361L24.914,56.332c-1.563,0.456-3.221,0.708-4.935,0.708c-9.475,0-17.152-7.457-17.152-16.662
		c0-9.197,7.678-16.66,17.152-16.66c9.472,0,17.155,7.463,17.155,16.66c0,2.469-0.568,4.808-1.561,6.914l6.938,11.233l44.467-45.84
		L86.947,35.896z"/>
</g>
<g>
</g>
<g>
</g>
<g>
</g>
<g>
</g>
<g>
</g>
<g>
</g>
<g>
</g>
<g>
</g>
<g>
</g>
<g>
</g>
<g>
</g>
<g>
</g>
<g>
</g>
<g>
</g>
<g>
</g>
</svg>
