<?xml version="1.0" encoding="iso-8859-1"?>
<!-- Generator: Adobe Illustrator 16.0.0, SVG Export Plug-In . SVG Version: 6.00 Build 0)  -->
<!DOCTYPE svg PUBLIC "-//W3C//DTD SVG 1.1//EN" "http://www.w3.org/Graphics/SVG/1.1/DTD/svg11.dtd">
<svg version="1.1" id="Capa_1" xmlns="http://www.w3.org/2000/svg" xmlns:xlink="http://www.w3.org/1999/xlink" x="0px" y="0px"
	 width="430.117px" height="430.116px" viewBox="0 0 430.117 430.116" style="enable-background:new 0 0 430.117 430.116;"
	 xml:space="preserve">
<g>
	<path id="Github" d="M332.146,1.3c-38.456,24.038-78.108,3.762-106.689,0C99.268-15.326,59.152,131.895,151.094,190.921
		c-23.671,12.258-22.124,74.668,3.239,83.559c-59.739,6.833-70.816,91.027-38.793,125.349c38.965,41.752,158.828,38.989,193.976,0
		c24.539-27.237,27.946-83.372,6.454-109.266c-19.593-23.63-117.904-27.2-116.374-64.284c1.064-25.921,36.613-21.835,58.194-32.143
		c40.589-19.408,64.434-77.478,48.491-122.135c9.049-1.701,16.797-4.721,25.864-6.422V1.3z M176.966,136.295
		c-47.308-103.065,108.771-95.673,61.428,0C222.862,147.802,192.302,148.946,176.966,136.295z M264.25,338.766
		c4.191,46.223-89.396,48.271-100.219,16.087c-9.11-27.116,2.231-34.803,29.09-41.789
		C223.543,305.144,261.44,307.851,264.25,338.766z"/>
</g>
<g>
</g>
<g>
</g>
<g>
</g>
<g>
</g>
<g>
</g>
<g>
</g>
<g>
</g>
<g>
</g>
<g>
</g>
<g>
</g>
<g>
</g>
<g>
</g>
<g>
</g>
<g>
</g>
<g>
</g>
</svg>
