<?xml version="1.0" encoding="iso-8859-1"?>
<!-- Generator: Adobe Illustrator 16.0.0, SVG Export Plug-In . SVG Version: 6.00 Build 0)  -->
<!DOCTYPE svg PUBLIC "-//W3C//DTD SVG 1.1//EN" "http://www.w3.org/Graphics/SVG/1.1/DTD/svg11.dtd">
<svg version="1.1" id="Capa_1" xmlns="http://www.w3.org/2000/svg" xmlns:xlink="http://www.w3.org/1999/xlink" x="0px" y="0px"
	 width="430.117px" height="430.118px" viewBox="0 0 430.117 430.118" style="enable-background:new 0 0 430.117 430.118;"
	 xml:space="preserve">
<g>
	<path id="Goodreads" d="M213.901,302.077c46.55-0.388,79.648-23.671,99.288-69.843h1.026v70.422c0,5.25-0.346,13.385-1.026,24.445
		c-1.4,11.444-5.144,23.766-11.216,36.959c-6.081,12.414-15.9,22.995-29.435,31.718c-13.391,9.502-32.063,14.449-56.047,14.841
		c-23.102,0-42.638-6.016-58.63-18.043c-16.344-11.835-25.893-31.045-28.665-57.619h-20.32c2.084,34.527,13.105,59.169,33.08,73.917
		c19.453,14.16,44.132,21.244,74.02,21.244c29.522,0,52.549-5.525,69.051-16.591c16.326-10.669,28.05-23.966,35.181-39.871
		c7.122-15.905,11.379-31.045,12.76-45.393c1.055-14.365,1.568-24.642,1.568-30.849V6.987h-20.33v64.021h-1.026
		c-7.827-23.468-20.764-41.22-38.84-53.254C256.102,5.922,235.949,0,213.892,0c-38.41,0.779-67.591,15.619-87.563,44.529
		c-20.507,28.707-30.747,64.121-30.747,106.218c0,43.266,9.724,79.056,29.176,107.38
		C144.409,287.044,174.11,301.689,213.901,302.077z M140.414,60.245c15.971-26.194,40.463-39.771,73.488-40.741
		c33.874,0.975,58.964,14.165,75.308,39.582c16.326,25.419,24.493,55.972,24.493,91.67c0,35.701-8.167,66.058-24.493,91.083
		c-16.344,26.589-41.434,40.165-75.308,40.744c-31.967-0.588-56.304-13.782-72.972-39.577
		c-16.855-25.029-25.277-55.778-25.277-92.254C115.648,116.605,123.901,86.434,140.414,60.245z"/>
</g>
<g>
</g>
<g>
</g>
<g>
</g>
<g>
</g>
<g>
</g>
<g>
</g>
<g>
</g>
<g>
</g>
<g>
</g>
<g>
</g>
<g>
</g>
<g>
</g>
<g>
</g>
<g>
</g>
<g>
</g>
</svg>
