<?xml version="1.0" encoding="iso-8859-1"?>
<!-- Generator: Adobe Illustrator 16.0.0, SVG Export Plug-In . SVG Version: 6.00 Build 0)  -->
<!DOCTYPE svg PUBLIC "-//W3C//DTD SVG 1.1//EN" "http://www.w3.org/Graphics/SVG/1.1/DTD/svg11.dtd">
<svg version="1.1" id="Capa_1" xmlns="http://www.w3.org/2000/svg" xmlns:xlink="http://www.w3.org/1999/xlink" x="0px" y="0px"
	 width="90px" height="90px" viewBox="0 0 90 90" style="enable-background:new 0 0 90 90;" xml:space="preserve">
<g>
	<path id="Google_Buzz" d="M90,41.586c0,7.683-3.003,14.798-8.105,20.651L54.941,34.97l22.244-18.59
		C85.109,22.885,90,31.776,90,41.586z M32.505,49.35l41.931-35.044C66.541,8.824,56.256,5.5,44.997,5.5
		c-16.361,0-30.681,7.005-38.557,17.479L32.505,49.35z M12.223,66.301l17.7-14.793L4.523,25.81C1.627,30.575,0,35.928,0,41.586
		C0,51.153,4.648,59.844,12.223,66.301z M79.585,64.672L52.361,37.128L32.735,53.532l-0.406,0.41l-0.038,0.2l-5.762,5.056h-0.243
		L18,65.727l0,0l-3.153,2.697c0.624,0.448,1.326,0.86,1.982,1.282c-1.515,4.15-3.771,8.836-7.157,13.695
		c7.908,3.438,16.924-1.825,23.261-7.054c3.838,0.854,7.881,1.326,12.061,1.326C58.896,77.674,71.33,72.615,79.585,64.672z"/>
</g>
<g>
</g>
<g>
</g>
<g>
</g>
<g>
</g>
<g>
</g>
<g>
</g>
<g>
</g>
<g>
</g>
<g>
</g>
<g>
</g>
<g>
</g>
<g>
</g>
<g>
</g>
<g>
</g>
<g>
</g>
</svg>
