<?xml version="1.0" encoding="iso-8859-1"?>
<!-- Generator: Adobe Illustrator 16.0.0, SVG Export Plug-In . SVG Version: 6.00 Build 0)  -->
<!DOCTYPE svg PUBLIC "-//W3C//DTD SVG 1.1//EN" "http://www.w3.org/Graphics/SVG/1.1/DTD/svg11.dtd">
<svg version="1.1" id="Capa_1" xmlns="http://www.w3.org/2000/svg" xmlns:xlink="http://www.w3.org/1999/xlink" x="0px" y="0px"
	 width="430.118px" height="430.118px" viewBox="0 0 430.118 430.118" style="enable-background:new 0 0 430.118 430.118;"
	 xml:space="preserve">
<g>
	<path id="Google_Talk" d="M430.118,171.427c0-94.693-96.282-171.424-215.02-171.424C96.279,0.002,0,76.734,0,171.427
		c0,82.25,72.72,150.973,169.749,167.569c-2.235,27.442-7.922,58.716-19.896,91.12c47.461-12.644,88.961-55.039,117.682-92.423
		C360.934,319.025,430.118,251.661,430.118,171.427z M307.309,277.008c-2.875,0.546-5.769,0.994-8.709,1.302
		c-3.099,0.299-6.235,0.509-9.409,0.509c-2.763,0-5.474-0.219-8.177-0.443c33.716-24.264,55.669-63.075,55.669-106.948
		c0-48.188-26.443-90.266-65.913-113.646c5.988-1.162,12.121-1.864,18.421-1.864c57.098,0,103.376,49.907,103.376,111.478
		C392.566,222.254,355.753,267.762,307.309,277.008z"/>
</g>
<g>
</g>
<g>
</g>
<g>
</g>
<g>
</g>
<g>
</g>
<g>
</g>
<g>
</g>
<g>
</g>
<g>
</g>
<g>
</g>
<g>
</g>
<g>
</g>
<g>
</g>
<g>
</g>
<g>
</g>
</svg>
