<?xml version="1.0" encoding="iso-8859-1"?>
<!-- Generator: Adobe Illustrator 16.0.0, SVG Export Plug-In . SVG Version: 6.00 Build 0)  -->
<!DOCTYPE svg PUBLIC "-//W3C//DTD SVG 1.1//EN" "http://www.w3.org/Graphics/SVG/1.1/DTD/svg11.dtd">
<svg version="1.1" id="Capa_1" xmlns="http://www.w3.org/2000/svg" xmlns:xlink="http://www.w3.org/1999/xlink" x="0px" y="0px"
	 width="430.116px" height="430.116px" viewBox="0 0 430.116 430.116" style="enable-background:new 0 0 430.116 430.116;"
	 xml:space="preserve">
<g>
	<path id="Gowalla" d="M259.432,193.714c-2.395,26.598,4.779,62.726-3.612,83.266c-123.02,14.478-106.381-249.236,0-228.108
		c-18.258,84.904,80.927,80.703,83.237,21.716c1.694-44.244-48.244-64.788-76.008-68.788
		C179.97-10.176,75.769,37.554,64.026,146.638C52.363,254.96,94.992,289.115,176.195,327.678
		c-41.458,118.702,113.77,125.391,166.461,65.186c39.487-45.107,15.784-126.833,25.333-199.149
		C331.809,193.714,295.611,193.714,259.432,193.714z M226.851,371.148c-33.673-19.598-1.782-62.362,25.343-65.186
		c4.205-0.588,6.445,0.812,7.243,3.636C262.596,344.134,253.005,365.925,226.851,371.148z"/>
</g>
<g>
</g>
<g>
</g>
<g>
</g>
<g>
</g>
<g>
</g>
<g>
</g>
<g>
</g>
<g>
</g>
<g>
</g>
<g>
</g>
<g>
</g>
<g>
</g>
<g>
</g>
<g>
</g>
<g>
</g>
</svg>
