<?xml version="1.0" encoding="iso-8859-1"?>
<!-- Generator: Adobe Illustrator 16.0.0, SVG Export Plug-In . SVG Version: 6.00 Build 0)  -->
<!DOCTYPE svg PUBLIC "-//W3C//DTD SVG 1.1//EN" "http://www.w3.org/Graphics/SVG/1.1/DTD/svg11.dtd">
<svg version="1.1" id="Capa_1" xmlns="http://www.w3.org/2000/svg" xmlns:xlink="http://www.w3.org/1999/xlink" x="0px" y="0px"
	 width="430.117px" height="430.117px" viewBox="0 0 430.117 430.117" style="enable-background:new 0 0 430.117 430.117;"
	 xml:space="preserve">
<g>
	<path id="Gowalla__x28_alt_x29_" d="M115.328,1.12c2.954-0.387,5.878-0.768,8.804-1.118c13.558,1.664,20.498,12.272,21.616,30.471
		c1.806,29.19-9.453,62.033-14.739,82.563c49.455,10.975,89.361,35.843,114.362,80.168c11.351,20.146,21.432,43.427,22.612,72.811
		c0.159,4.471-1.867,11.062-0.934,14.991c1.027,4.442,7.654,9.759,11.257,13.403c10.884,11.084,26.285,25.669,39.47,30.308
		c24.013,8.443,58.287-6.305,81.268-11.131c15.393-3.225,25.595-1.693,30.141,10.264c0.312,2.562,0.625,5.114,0.933,7.677
		c-4.545,17.138-20.932,27.372-37.606,35.97c-48.048,24.754-126.927,37.322-191.063,36.552
		c-12.062,10.487-28.703,17.329-48.297,21.777c-9.701,1.241-19.441,2.492-29.141,3.738c-24.199,0.924-52.318,2.333-66.062-11.318
		c-6.284-6.239-10.981-17.944-8.401-29.36c3.981-17.711,25.566-28.432,46.839-33.641c-0.745-5.95-5.223-11.027-7.589-17.403
		c-9.206-24.362-6.438-55.855,1.93-74.565c-5.258-1.946-11.693-2.329-17.014-4.191c-2.021,5.787-1.491,10.655-4.415,14.711
		c-11.751,16.335-43.14,9.213-41.273-16.629c1.152-15.574,23.734-28.04,36.27-35.778c6.681-4.125,15.924-9.023,23.823-13.684
		c7.743-4.578,16.799-10.849,18.538-17.238c1.927-7.005-1.242-18.003-3.454-22.925c-3.333,0.315-4.728,4.282-6.784,6.55
		c-6.499,7.169-14.06,14.268-22.173,21.24c-10.452,8.946-22.084,19.021-35.769,22.985c-17.229,4.993-31.536-2.175-37.386-18.542
		c-0.345-3.024-0.716-6.035-1.089-9.04c7.091-36.485,36.795-54.904,69.138-71.171c-12.846-14.496-38.38-37.157-41.425-68.981
		C26.408,36.511,31.82,23.725,42.3,17.586c18.787-11.063,33.874,7.803,45.315,16.113C93.155,19.854,100.557,7.517,115.328,1.12z
		 M210.471,166.536c-20.096-20.083-47.709-35.743-80.059-41.374c-6.348-1.127-11.136-1.605-12.284-4.798
		c-0.777-2.143,1.12-8.382,2.521-13.08c6.809-22.64,12.715-40.097,13.992-66.191c0.719-14.461-2.203-35.596-17.193-28.201
		c-12.165,5.974-18.199,20.649-22.304,31.872c11.757,10.489,33.031,61.811,0.625,61.491C72.533,106.003,78.162,61.204,82.95,46.33
		c-5.349-4.83-8.368-9.467-14.06-13.782c-3.918-2.978-10.198-9.21-19.968-5.916c-5.974,1.986-9.423,10.265-10.011,14.006
		c-0.875,5.696,0.278,12.186,1.367,16.827c4.73,20.33,22.61,41.183,34.462,51.48c4.167,3.647,14.123,6.324,13.873,12.372
		c-0.128,4.833-13.315,7.962-19.973,11.066c-9.017,4.214-15.331,8.534-19.902,11.738c-12.69,8.921-24.633,18.255-31.538,29.542
		c-2.863,4.732-7.218,13.047-5.664,21.23c1.869,9.878,10.639,15.219,22.18,12.725c12.163-2.59,26.094-14.069,38.229-25.419
		c5.782-5.4,9.637-8.602,15.984-15.509c4.541-4.889,10.452-15.861,16.048-15.509c5.631,0.387,11.696,15.987,12.942,21.707
		c3.83,16.953-1.647,28.017-8.214,34.319c-9.238,8.856-23.977,14.643-38.468,23.338c-9.236,5.535-31.134,17.875-30.824,29.421
		c0.311,13.302,17.663,13.843,21.242,5.055c2.334-5.787-3.139-15.289,1.214-18.547c4.321-3.263,13.063,1.218,16.731,2.072
		c7.217,1.694,13.128,3.136,16.985,3.519c8.301-9.558,16.545-28.395,33.718-28.395c14.895,0,24.042,24.82,13.185,35.073
		c-10.293,9.819-26.5,6.114-39.876,5.857c-13,20.53-10.697,67.248,6.499,87.61c14.902-1.367,28.742-1.312,41.339,0.35
		c-28.154-39.072-10.576-98.708,36.106-105.103c41.49-5.722,67.024,22.323,70.543,25.707
		C253.73,224.438,236.005,192.113,210.471,166.536z M97.101,94.749c6.94-0.388,5.444-10.749,3.388-17.432
		c-2.179-7.134-5.974-12.305-8.272-17.329c-0.128-0.411-0.22-0.798-0.808-0.602C89.484,66.732,87.055,95.355,97.101,94.749z
		 M108.857,253.892c9.024,0.121,21.209,1.307,26.936-4.892c1.027-5.441-1.491-10.846-4.382-13.553
		C119.619,235.797,113.494,245.733,108.857,253.892z M187.922,258.596c-39.406,6.553-51.847,57.592-27.899,87.807
		c4.947,6.24,17.856,13.339,17.354,18.295c-0.588,6.104-6.562,4.089-11.351,2.88c-14.902-3.804-31.853-6.054-47.338-4.546
		c16.267,19.224,45.688,28.012,77.259,29.706c10.825-8.854,15.116-28.521,6.279-44.664c-3.388-6.175-8.893-8.568-7.124-13.245
		c1.897-4.957,9.362-2.847,15.424-3.389c26.346-2.432,38.667-23.727,44.137-44.607C236.63,270.973,219.399,253.346,187.922,258.596z
		 M211.871,342.566c9.735,14.706,5.381,37.057,0.248,47.385c-0.033,0.093-1.743,2.973-0.343,2.884
		c66.779-2.403,150.445-13.88,193.336-46.05c5.661-4.219,15.672-12.662,13.497-19.41c-3.047-9.362-28.46,0.994-36.758,3.29
		c-12.134,3.327-28.927,6.679-42.451,7.542c-37.393,2.408-53.467-22.342-73.871-41.435c-0.905-1.031-1.811-1.923-2.156-0.448
		C255.695,319.314,242.445,337.861,211.871,342.566z M110.133,371.913c-3.981-4.089-4.292-8.252-9.768-6.553
		c-18.036,5.665-40.65,13.264-40.312,30.667c0.191,11.574,9.458,17.613,16.179,19.858c12.998,4.378,33.745,3.258,53.181,1.661
		c20.468-1.661,40.837-6.688,52.626-14.519C153.586,399.317,128.018,390.366,110.133,371.913z"/>
</g>
<g>
</g>
<g>
</g>
<g>
</g>
<g>
</g>
<g>
</g>
<g>
</g>
<g>
</g>
<g>
</g>
<g>
</g>
<g>
</g>
<g>
</g>
<g>
</g>
<g>
</g>
<g>
</g>
<g>
</g>
</svg>
