<?xml version="1.0" encoding="iso-8859-1"?>
<!-- Generator: Adobe Illustrator 16.0.0, SVG Export Plug-In . SVG Version: 6.00 Build 0)  -->
<!DOCTYPE svg PUBLIC "-//W3C//DTD SVG 1.1//EN" "http://www.w3.org/Graphics/SVG/1.1/DTD/svg11.dtd">
<svg version="1.1" id="Capa_1" xmlns="http://www.w3.org/2000/svg" xmlns:xlink="http://www.w3.org/1999/xlink" x="0px" y="0px"
	 width="430.123px" height="430.124px" viewBox="0 0 430.123 430.124" style="enable-background:new 0 0 430.123 430.124;"
	 xml:space="preserve">
<g>
	<path id="LoveDsgn" d="M332.247,0.279c-30.733-1.3-45.854,1.878-64.069,10.982c-24.11,12.001-39.045,36.56-52.617,67.519
		c-18.594-32.56-29.58-55.046-56.733-68.455c-16.484-8.167-33.388-12.608-68.055-7.997C63.442,8.575,34.45,28.981,28.121,75.291
		c-4.69,16.449-1.339,51.338,21.609,85.599c6.898,10.314,14.865,24.822,26.383,40.436c22.887,31.069,52.995,67.625,68.681,92.142
		c39.432,61.661,45.532,72.004,57.489,99.94c1.983,3.925,11.929,32.796,13.931,36.716c11.612-52.603,55.944-126.669,110.167-190.481
		c55.332-65.118,96.762-139.586,68.12-191.402C381.961,21.584,359.424,7.566,332.247,0.279z"/>
</g>
<g>
</g>
<g>
</g>
<g>
</g>
<g>
</g>
<g>
</g>
<g>
</g>
<g>
</g>
<g>
</g>
<g>
</g>
<g>
</g>
<g>
</g>
<g>
</g>
<g>
</g>
<g>
</g>
<g>
</g>
</svg>
