<?xml version="1.0" encoding="iso-8859-1"?>
<!-- Generator: Adobe Illustrator 16.0.0, SVG Export Plug-In . SVG Version: 6.00 Build 0)  -->
<!DOCTYPE svg PUBLIC "-//W3C//DTD SVG 1.1//EN" "http://www.w3.org/Graphics/SVG/1.1/DTD/svg11.dtd">
<svg version="1.1" id="Capa_1" xmlns="http://www.w3.org/2000/svg" xmlns:xlink="http://www.w3.org/1999/xlink" x="0px" y="0px"
	 width="430.117px" height="430.117px" viewBox="0 0 430.117 430.117" style="enable-background:new 0 0 430.117 430.117;"
	 xml:space="preserve">
<g>
	<path id="hi5" d="M415.024,189.175l3.897-75.509H274.312l-21.595,117.102l0.583,0.074c-1.82,3.673-3.183,7.64-4.023,11.85v18.668
		h14.328v27.779c14.692,15.803,39.754,27.312,74.207,27.312c54.353,0,92.305-34.35,92.305-83.531
		C430.117,217.574,424.975,201.807,415.024,189.175z M339.315,297.718c-44.058,0-70.791-22.668-70.791-44.907
		c0-14.972,10.264-28.665,28.441-28.665c12.62,0,19.032,8.345,19.032,18.188c0,5.344-2.137,7.481-2.137,11.762
		c0,5.987,2.781,10.057,12.834,10.057c14.113,0,20.965-14.767,20.965-29.523c0-13.04-5.139-22.88-16.251-22.88
		c-8.13,0-12.41,3.204-14.123,8.337l-41.061-5.339l15.187-82.341h109.284l-2.138,41.49h-72.498l-4.069,21.814
		c4.704-7.269,19.681-13.474,38.933-13.474c34.209,0,51.963,26.304,51.963,50.685C412.887,268.847,387.003,297.718,339.315,297.718z
		 M268.016,242.627V125.003h-79.384v36.354h-26.306v69.761h14.328v11.509h-14.328v69.764h120.019v-69.764H268.016z M207.365,143.736
		h41.917v27.8h-41.917V143.736z M263.61,293.657h-82.549V261.36h14.325v-48.974h-14.325v-32.296h68.221v81.27h14.328V293.657z
		 M181.062,293.657V261.36h14.029v-18.733h-14.326v-27.461c0-32.016-22.215-56.161-51.671-56.161
		c-8.569,0-16.398,1.668-23.398,4.478v-49.816H0v69.763h14.118v59.197H0v69.769h195.086v-18.734h-14.024V293.657z M176.353,293.657
		h-74.634V261.36h6.413v-31.866c0-9.843-0.644-18.822-6.413-18.822c-5.563,0-11.122,7.062-14.764,21.389v29.3h6.205v32.297H18.733
		V261.36h14.118v-96.664H18.733V132.4h68.221v72.073c7.269-13.688,22.243-26.735,42.134-26.735c19.03,0,32.936,16.039,32.936,37.428
		v46.194h14.328V293.657z"/>
</g>
<g>
</g>
<g>
</g>
<g>
</g>
<g>
</g>
<g>
</g>
<g>
</g>
<g>
</g>
<g>
</g>
<g>
</g>
<g>
</g>
<g>
</g>
<g>
</g>
<g>
</g>
<g>
</g>
<g>
</g>
</svg>
