<?xml version="1.0" encoding="iso-8859-1"?>
<!-- Generator: Adobe Illustrator 16.0.0, SVG Export Plug-In . SVG Version: 6.00 Build 0)  -->
<!DOCTYPE svg PUBLIC "-//W3C//DTD SVG 1.1//EN" "http://www.w3.org/Graphics/SVG/1.1/DTD/svg11.dtd">
<svg version="1.1" id="Capa_1" xmlns="http://www.w3.org/2000/svg" xmlns:xlink="http://www.w3.org/1999/xlink" x="0px" y="0px"
	 width="430.117px" height="430.117px" viewBox="0 0 430.117 430.117" style="enable-background:new 0 0 430.117 430.117;"
	 xml:space="preserve">
<g>
	<path id="Hype_Machine" d="M215.059,38.232C96.284,38.232,0,110.516,0,199.685c0,47.959,27.899,91.022,72.141,120.597
		c-4.035,22.533-11.7,49.719-26.301,71.603c18.988,0,66.828-22.178,100.706-39.176c21.524,5.433,44.545,8.42,68.513,8.42
		c118.777,0,215.059-72.284,215.059-161.444C430.117,110.516,333.836,38.232,215.059,38.232z M317.981,201.984
		c-0.732,3.068-2.067,6.335-4.167,9.835c-3.874,7.347-9.11,13.843-15.383,19.182c-30.191,31.657-83.474,67.085-83.474,67.085
		s-53.281-35.46-83.475-67.085c-6.275-5.334-11.509-11.835-15.39-19.182c-2.098-3.5-3.43-6.771-4.163-9.835
		c-2.135-6.406-3.302-13.278-3.302-20.417c0-35.787,28.894-64.809,64.555-64.809c23.996,0,41.707,25.916,41.707,43.196
		c0-17.28,8.975-43.196,41.845-43.196c35.657,0,64.556,29.022,64.556,64.809C321.291,188.706,320.124,195.578,317.981,201.984z"/>
</g>
<g>
</g>
<g>
</g>
<g>
</g>
<g>
</g>
<g>
</g>
<g>
</g>
<g>
</g>
<g>
</g>
<g>
</g>
<g>
</g>
<g>
</g>
<g>
</g>
<g>
</g>
<g>
</g>
<g>
</g>
</svg>
