<?xml version="1.0" encoding="iso-8859-1"?>
<!-- Generator: Adobe Illustrator 16.0.0, SVG Export Plug-In . SVG Version: 6.00 Build 0)  -->
<!DOCTYPE svg PUBLIC "-//W3C//DTD SVG 1.1//EN" "http://www.w3.org/Graphics/SVG/1.1/DTD/svg11.dtd">
<svg version="1.1" id="Capa_1" xmlns="http://www.w3.org/2000/svg" xmlns:xlink="http://www.w3.org/1999/xlink" x="0px" y="0px"
	 width="90.002px" height="90.002px" viewBox="0 0 90.002 90.002" style="enable-background:new 0 0 90.002 90.002;"
	 xml:space="preserve">
<g>
	<path id="Hyves" d="M70.029,0.002c2.056,0,4.125,0,6.188,0c2.144-0.136,5.444,6.061,4.54,8.706
		c-0.562,1.742-5.175,2.531-6.188,3.832c-1.754,2.232-1.094,9.15-1.094,13.801c0,12.264,0,24.184,0,37.222
		c0,2.084-0.271,6.245,0.37,6.894c0.661,0.659,3.039,0.235,3.988,0.542c2.188,0.704,4.839,4.937,3.11,7.805
		c-0.479,0.776-2.676,1.281-4.196,1.995c-3.599,1.714-9.785,3.682-14.912,3.267c-2.903-0.207-7.552-4.484-7.092-7.625
		c0.198-1.354,1.348-2.083,2.911-2.726c1.051-0.415,3.465-0.18,4.359-1.083c1.148-1.127,0.264-5.863,0.174-8.519
		c-0.035-1.622,0.037-2.751,0-4.735c0-1.417,0.144-3.926-0.174-4.368c-0.787-1.011-7.479-0.198-8.908,0
		c-6.783,1.002-10.409,1.488-16.018,3.267c-1.691,0.551-5.615,1.219-6.747,2.934c-1.165,1.786-0.225,7.787,0,10.521
		c0.11,1.265-0.36,3.682,0.2,4.529c0.742,1.183,3.808,0.648,4.521,0.901c1.763,0.614,4.341,3.321,4.025,6.002
		c-0.571,4.637-11.83,6.28-17.302,6.722c-2.107,0.153-2.887,0.207-4.368-0.161c-2.406-0.678-5.526-3.935-5.273-6.37
		c0.208-1.979,2.993-3.134,4.938-3.826c0.616-0.227,1.816-0.308,2.151-0.723c0.742-0.886,0.291-4.646,0-6.885
		c-0.805-6.669-0.976-14.735-1.085-21.609c-0.107-8.177-0.543-13.869-0.543-22.353c0-2.383,0.228-6.289-0.353-7.078
		c-0.687-0.853-2.884-0.699-4.188-1.259c-2.27-0.976-3.4-2.428-4.566-5.27c0-0.533,0-1.09,0-1.625
		c1.953-3.817,6.883-4.619,12.192-5.642c7.505-1.435,14.776-2.823,16.938,3.452c0.436,1.25,0.706,3.361,0,4.53
		c-1.311,2.169-6.376,1.7-7.462,3.47c-0.471,0.729-0.379,3.447-0.379,5.807c0,7.078-0.895,12.016-0.353,19.237
		c0.072,1.055,0.416,4.366,1.104,4.715c1.076,0.56,3.011-0.349,3.997-0.526c7.145-1.55,11.396-2.633,19.291-3.456
		c2.035-0.23,6.982-0.269,8.005-1.088c1.5-1.254,0.577-4.945,0.353-6.724c-0.625-5.432-0.553-9.293,0-14.527
		c0.226-1.993,0.859-5.839-0.174-6.906c-0.658-0.673-3.234-0.763-4.006-1.092c-2.749-1.151-6.04-3.988-4.902-7.991
		c0.291-1.073,1.938-1.938,3.076-2.525C60.273,1.324,65.12,0.999,70.029,0.002z"/>
</g>
<g>
</g>
<g>
</g>
<g>
</g>
<g>
</g>
<g>
</g>
<g>
</g>
<g>
</g>
<g>
</g>
<g>
</g>
<g>
</g>
<g>
</g>
<g>
</g>
<g>
</g>
<g>
</g>
<g>
</g>
</svg>
