<?xml version="1.0" encoding="iso-8859-1"?>
<!-- Generator: Adobe Illustrator 16.0.0, SVG Export Plug-In . SVG Version: 6.00 Build 0)  -->
<!DOCTYPE svg PUBLIC "-//W3C//DTD SVG 1.1//EN" "http://www.w3.org/Graphics/SVG/1.1/DTD/svg11.dtd">
<svg version="1.1" id="Capa_1" xmlns="http://www.w3.org/2000/svg" xmlns:xlink="http://www.w3.org/1999/xlink" x="0px" y="0px"
	 width="430.117px" height="430.118px" viewBox="0 0 430.117 430.118" style="enable-background:new 0 0 430.117 430.118;"
	 xml:space="preserve">
<g>
	<path id="Instapaper" d="M310.641,418.049c-26.285-1.891-43.329-5.825-51.104-11.836c-7.775-5.983-11.663-21.524-11.663-46.559
		V70.473c0-23.915,3.888-39.304,11.663-46.186c7.775-6.882,24.819-10.958,51.104-12.23V0H119.477v12.058
		c26.285,1.271,43.317,5.353,51.111,12.23c7.783,6.877,11.668,22.271,11.668,46.186v289.182c0,25.034-3.885,40.575-11.668,46.559
		c-7.794,6.011-24.827,9.94-51.111,11.836v12.068h191.164V418.049z"/>
</g>
<g>
</g>
<g>
</g>
<g>
</g>
<g>
</g>
<g>
</g>
<g>
</g>
<g>
</g>
<g>
</g>
<g>
</g>
<g>
</g>
<g>
</g>
<g>
</g>
<g>
</g>
<g>
</g>
<g>
</g>
</svg>
