<?xml version="1.0" encoding="iso-8859-1"?>
<!-- Generator: Adobe Illustrator 16.0.0, SVG Export Plug-In . SVG Version: 6.00 Build 0)  -->
<!DOCTYPE svg PUBLIC "-//W3C//DTD SVG 1.1//EN" "http://www.w3.org/Graphics/SVG/1.1/DTD/svg11.dtd">
<svg version="1.1" id="Capa_1" xmlns="http://www.w3.org/2000/svg" xmlns:xlink="http://www.w3.org/1999/xlink" x="0px" y="0px"
	 width="90px" height="90.001px" viewBox="0 0 90 90.001" style="enable-background:new 0 0 90 90.001;" xml:space="preserve">
<g>
	<path id="Kik" d="M7.5,80.781V9.218C7.5,4.125,11.129,0,15.614,0c4.48,0,8.111,4.125,8.111,9.218v40.271l20.279-21.833
		c2.348-2.548,4.269-4.125,7.149-4.125c4.375,0,7.15,4.003,7.15,8.249c0,3.154-1.492,5.581-3.734,8.005L41.763,52.277l15.263,23.41
		c1.389,2.184,2.029,3.881,2.029,5.942c0,4.974-3.524,8.369-7.58,8.369c-3.201,0-5.123-1.213-7.044-4.245L30.234,63.559l-6.51,6.672
		v10.552c0,5.096-3.631,9.219-8.111,9.219C11.129,90,7.5,85.877,7.5,80.781z M72.752,69.891c5.385,0,9.748-4.389,9.748-9.802
		s-4.363-9.803-9.748-9.803s-9.749,4.39-9.749,9.803S67.368,69.891,72.752,69.891z"/>
</g>
<g>
</g>
<g>
</g>
<g>
</g>
<g>
</g>
<g>
</g>
<g>
</g>
<g>
</g>
<g>
</g>
<g>
</g>
<g>
</g>
<g>
</g>
<g>
</g>
<g>
</g>
<g>
</g>
<g>
</g>
</svg>
