<?xml version="1.0" encoding="iso-8859-1"?>
<!-- Generator: Adobe Illustrator 16.0.0, SVG Export Plug-In . SVG Version: 6.00 Build 0)  -->
<!DOCTYPE svg PUBLIC "-//W3C//DTD SVG 1.1//EN" "http://www.w3.org/Graphics/SVG/1.1/DTD/svg11.dtd">
<svg version="1.1" id="Capa_1" xmlns="http://www.w3.org/2000/svg" xmlns:xlink="http://www.w3.org/1999/xlink" x="0px" y="0px"
	 width="75.899px" height="75.899px" viewBox="0 0 75.899 75.899" style="enable-background:new 0 0 75.899 75.899;"
	 xml:space="preserve">
<g>
	<path id="Krop" d="M28.153,55.288c0.42,1.939-1.572,3.994-2.967,4.296c-0.621,0.135-1.076-0.092-1.16-0.479
		s0.314-0.799,0.213-1.265c-0.303-1.396-6.412-5.999-17.896-14.799c-0.747,11.933-0.817,18.36-0.96,19.203
		c-0.23,1.188-1.431,2.015-2.826,2.316c-1.241,0.269-2.186-0.34-2.453-1.58c-0.404-1.861,0.35-16.394,2.54-43.414
		c-0.085-0.387-0.229-0.681-0.245-0.758c-0.705-3.257,0.863-5.384,2.958-5.836c1.318-0.285,3.348,0.088,3.649,1.483
		c0.286,1.319-0.864,8.387-1.952,21.368c4.534-7.557,11.15-16.376,19.358-26.839c1.207-1.559,2.158-2.415,3.088-2.617
		c0.854-0.185,1.42,0.181,1.637,1.188c0.168,0.775-0.207,1.669-1.07,2.181c-4.561,5.938-11.053,15.705-19.853,29.056
		C21.972,46.234,27.667,53.04,28.153,55.288z M75.384,30.457c1.896,8.764-1.692,18.064-6.502,19.104
		c-1.86,0.403-3.957-0.28-4.912-1.697c-0.155,10.912,0.033,17.042,0.353,18.516c0.184,0.854,0.934,0.936,1,1.243
		c0.184,0.854-0.533,1.658-1.312,1.826c-1.858,0.402-3.112-0.138-3.467-1.767c-0.279-1.292-0.902-11.411-0.082-29.788
		c-0.979,1.331-2.119,2.26-3.406,2.779c-0.521,8.475-3.274,13.373-7.772,14.346c-3.006,0.65-5.584-0.709-6.703-3.936
		c-1.299,2.89-2.629,4.413-4.783,4.88c-2.869,0.62-4.994-0.949-5.666-4.052c-0.705-3.257-0.508-7.604,0.461-13.251l-2.227-0.169
		c-0.963,7.19-1.99,11.066-3.619,11.419c-0.543,0.118-1.092-0.171-1.26-0.943c-0.117-0.544,1.385-4.85,1.576-12.601
		c-0.973-0.359-1.537-0.724-1.688-1.422c-0.318-1.474,1.244-4.003,3.57-4.506c1.086-0.234,2.09,0.278,2.291,1.209
		c0.102,0.465,0.113,1.272,0.064,2.177l2.729,0.222c0.236-0.781,0.662-1.442,1.242-2.136c0.432-0.256,0.803-0.417,0.957-0.45
		c1.164-0.251,2.934,0.422,3.151,1.429c0.168,0.775-0.225,1.592-1.126,2.679c-2.125,6.305-2.637,11.449-1.848,15.093
		c0.285,1.319,0.996,1.978,1.539,1.859c1.367-0.295,2.834-2.713,4.08-7.239c0.168-2.734,0.784-6.002,2.01-9.258
		c1.014-2.817,2.297-4.396,3.848-4.73c1.008-0.219,1.961,0.063,2.535,0.832c0.447-0.178,0.818-0.34,1.283-0.44
		c2.096-0.453,4.19,1.367,5.127,5.304c2.562-1.475,3.184-4.009,3.934-5.291c0.379-7.76,0.607-10.953,2.295-11.318
		c0.853-0.184,2.072,0.201,2.273,1.132c0.234,1.085-0.48,4.163-0.707,9.489c1.648-4.01,3.031-6.258,4.658-6.611
		C71.763,23.852,74.409,25.959,75.384,30.457z M52.859,37.035c-0.304-1.396-1.013-2.053-1.865-1.868
		c-2.328,0.504-5.375,8.551-4.15,14.212c0.353,1.628,1.063,2.285,2.148,2.051C51.552,50.875,54.083,42.696,52.859,37.035z
		 M71.499,30.892c-0.352-1.629-0.986-2.305-1.684-2.153c-1.24,0.269-4.438,5.75-5.398,15.943c0.475,1.438,1.855,2.195,3.096,1.927
		c2.095-0.452,3.089-2.615,3.832-6.673C72.003,36.222,71.97,33.062,71.499,30.892z"/>
</g>
<g>
</g>
<g>
</g>
<g>
</g>
<g>
</g>
<g>
</g>
<g>
</g>
<g>
</g>
<g>
</g>
<g>
</g>
<g>
</g>
<g>
</g>
<g>
</g>
<g>
</g>
<g>
</g>
<g>
</g>
</svg>
