<?xml version="1.0" encoding="iso-8859-1"?>
<!-- Generator: Adobe Illustrator 16.0.0, SVG Export Plug-In . SVG Version: 6.00 Build 0)  -->
<!DOCTYPE svg PUBLIC "-//W3C//DTD SVG 1.1//EN" "http://www.w3.org/Graphics/SVG/1.1/DTD/svg11.dtd">
<svg version="1.1" id="Capa_1" xmlns="http://www.w3.org/2000/svg" xmlns:xlink="http://www.w3.org/1999/xlink" x="0px" y="0px"
	 width="430.117px" height="430.117px" viewBox="0 0 430.117 430.117" style="enable-background:new 0 0 430.117 430.117;"
	 xml:space="preserve">
<g>
	<path id="Meetup" d="M196.502,221.383c-1.44,0-2.887-0.117-3.958-1.62c0.324-5.693,2.184-9.948,3.99-14.052
		c0.808-1.848,1.619-3.689,2.28-5.673l0.807-2.336l0.666,2.371c1.561,5.5,1.064,15.752-1.354,21.269L196.502,221.383z
		 M376.176,185.448l-0.719,0.672c-12.289,11.586-16.746,31.253-19.957,48.764c10.254-2.771,18.968-12.241,22.729-22.658
		c2.291-6.361,3.873-16.024-1.568-25.914L376.176,185.448z M151.727,217.01c0.644,0.252,1.377,0.55,2.394,0.55l0.511-0.106
		l1.244-0.611c0.964-4.712,0.663-10.816-0.81-16.746c-3.781,4.292-6.088,9.299-6.961,15.709l-0.117,0.868l1.923-0.103
		C150.627,216.57,151.139,216.757,151.727,217.01z M430.117,328.729c0,8.485-6.879,15.364-15.363,15.364H15.364
		C6.877,344.094,0,337.215,0,328.729V101.387C0,92.9,6.877,86.023,15.364,86.023h399.39c8.484,0,15.363,6.877,15.363,15.364V328.729
		z M129.178,245.189c-4.261-11.752-7.024-25.062-9.678-38.103c-3.435-16.75-6.972-33.759-12.979-47.035
		c-0.711,0.065-1.418,0.726-2.098,0.726c-2.124,0-3.972,0.501-5.817,0.205c-1.752-0.306-3.512,1.505-5.586,1.505
		c-0.191,0-0.401,0-0.593,0c-0.539,0-1.027-2.107-1.26-2.261c-9.579,12.956-12.872,30.448-17.201,48.183
		c-2.394-4.2-4.588-8.51-6.763-12.921c-3.843-7.752-7.815-15.714-12.316-22.094c-1.26-0.107-2.49-0.117-3.666-0.117
		c-5.154,0-9.833,0.929-14.229,2.21l-0.227,11.903c-0.483,20.442-0.894,38.093,4.259,54.754c0.957,0.158,1.93,0.237,2.896,0.237
		c6.174,0,11.637-3.015,14.008-4.223c0.378-5.228-0.273-9.307-0.943-13.638c-0.357-2.222-0.721-4.457,0.455-7.364
		c3.58,4.648,6.728,9.744,9.864,14.836c1.998,3.226,3.995,6.437,5.523,9.208c1.034,0.107,2.009,0.149,2.94,0.149
		c2.413,0,4.545-0.299,6.671-0.588c2.212-0.299,4.401-0.578,6.905-0.578l1.421,0.518c2.837-6.301,2.992-15.564,3.139-24.535
		c0.133-8.233,0.282-16.729,3.939-23.06c3.99,18.388,9.428,36.254,16.591,54.586c2.52-0.345,5.311-1.209,7.892-2.007
		c1.92-0.598,3.659-1.162,5.041-1.162C128.069,244.526,128.681,244.835,129.178,245.189z M178.651,249.035
		c-1.375-2.492-3.358-3.654-6.184-3.654c-2.158,0-4.62,0.611-6.991,1.265c-2.427,0.653-4.917,1.278-7.164,1.278
		c-0.621,0-1.199-0.153-1.773-0.271c-2.7-0.514-4.884-2.203-6.471-4.555c-2.868-4.266-3.57-11.257-0.999-19.77
		c4.145,1.119,9.357,1.287,15.065,1.287c0.481,0,0.94,0,1.405,0c1.461,0,2.795,0.467,3.664,0.822
		c2.808-11.397,1.295-26.934-0.954-35.872c-1.741-0.364-3.288-0.999-4.833-1.528c-2.705-0.934-5.236-1.841-8.702-1.841
		c-0.597,0-1.218-0.028-1.836,0.042c-10.977,1.473-18.442,16.872-20.143,31.34c-1.578,13.348,1.3,29.379,14.069,34.308
		c2.63,1.013,5.899,1.517,9.703,1.517C164.099,253.403,172.908,251.275,178.651,249.035z M222.218,245.786
		c-0.69-2.291-2.679-3.556-5.628-4.476c-2.507,3.888-6.406,6.04-11.017,6.04c-4.898,0-9.763-2.488-12.685-6.511
		c-2.791-3.837-3.475-8.625-1.008-13.979c3.958,0.808,7.829,1.545,11.437,1.545c2.996,0,5.691-0.476,7.962-0.737
		c-0.702-8.765,0.315-14.918,1.396-21.427c0.898-5.439,1.829-11.051,2.025-17.842c-4.998-3.78-10.316-5.71-16.248-6.235
		c-14.639,11.191-21.434,28.343-20.794,52.299c2.002,10.595,15.964,17.147,27.762,17.147
		C212.611,251.611,218.647,249.272,222.218,245.786z M272.931,212.938c-1.82-1.458-3.36-3.169-4.905-4.91
		c-2.917-3.269-5.68-6.354-10.165-7.558c-0.929,0.019-1.115,0.695-1.218,2.765c-0.094,1.664-0.233,4.226-2.772,4.226l-1.745,0.019
		l0.074-0.607c0.625-7.428,0.079-15.982-0.518-25.463c-0.822-13.444-1.686-26.017,0.704-37.388
		c-2.959-3.549-7.472-5.428-16.208-5.428c-0.117,0-0.22,0-0.322,0c-0.724,0-1.382-2.24-1.578-2.632
		c-4.494,13.833-2.31,28.994-0.195,45.562c1.213,9.453,2.361,18.271,0.961,26.826c-1.727,0-3.481-0.217-5.181-0.35
		c-1.507-0.128-2.996-0.287-4.331-0.287c-2.506,0-4.004,0.437-4.904,1.458c-1.018,1.141-1.321,3.097-1.266,5.458
		c3.454,2.371,9.428,2.53,15.201,2.679l3.636,0.831c0.158,5.05,0.556,9.866,0.942,14.696c0.588,7.071,1.167,14.38,1.022,22.352
		c1.53-0.215,2.907-0.29,4.242-0.374c2.586-0.163,5.031-0.317,7.804-0.644c-0.089-5.643-0.299-11.02-0.5-16.195
		c-0.275-7.229-0.536-14.094,0.089-21.51c2.558-0.733,5.661-0.901,8.653-1.06C265.463,215.124,270.653,214.839,272.931,212.938z
		 M326.257,203.956c-3.594-2.938-8.046-8.013-13.124-8.013c-0.401,0-0.793,0-1.148,0c-0.546,0-1.008,1.391-1.26,1.136l-0.126,5.302
		c-0.341,14.536-0.826,34.669-14.725,39.496c-1.325-8.723-1.681-18.253-2.017-26.78c-0.177-4.543-0.345-8.664-0.191-11.546
		c-1.354-0.649-2.6-1.347-3.822-2.094c-3.458-2.074-6.706-4.009-11.957-4.697c-2.096,24.992,0.42,41.542,7.453,49.177
		c2.898,3.15,6.628,4.761,11.085,4.761c3.136,0,6.688-0.77,10.221-2.021l1.344-2.067c2.511-3.846,4.154-6.395,7.906-9.246
		c0.957-1.713,1.979-3.822,3.015-5.465C323.503,224.532,327.844,216.654,326.257,203.956z M393.369,180.429
		c-7.658-4.482-14.328-6.641-20.409-6.641c-7.57,0-14.132,3.402-20.068,10.421c-11.173,13.191-13.502,40.655-15.107,54.483
		c-0.672,0.29-1.409,0.514-2.156,0.729c-1.937,0.574-3.762,1.12-4.462,2.025c5.871,6.805,7.029,18.342,8.149,29.486
		c0.877,8.602,1.755,17.492,4.274,23.536c1.4,0.304,3.36,0.458,6.002,0.458c1.237,0,2.539-0.038,3.832-0.038
		c2.184,0,4.336,0.099,6.039,0.616c-4.065-10.254-5.652-24.152-4.392-44.459c16.577-3.92,31.307-15.681,38.434-30.695
		C397.803,211.278,401.229,196.932,393.369,180.429z"/>
</g>
<g>
</g>
<g>
</g>
<g>
</g>
<g>
</g>
<g>
</g>
<g>
</g>
<g>
</g>
<g>
</g>
<g>
</g>
<g>
</g>
<g>
</g>
<g>
</g>
<g>
</g>
<g>
</g>
<g>
</g>
</svg>
