<?xml version="1.0" encoding="iso-8859-1"?>
<!-- Generator: Adobe Illustrator 16.0.0, SVG Export Plug-In . SVG Version: 6.00 Build 0)  -->
<!DOCTYPE svg PUBLIC "-//W3C//DTD SVG 1.1//EN" "http://www.w3.org/Graphics/SVG/1.1/DTD/svg11.dtd">
<svg version="1.1" id="Capa_1" xmlns="http://www.w3.org/2000/svg" xmlns:xlink="http://www.w3.org/1999/xlink" x="0px" y="0px"
	 width="89.999px" height="89.999px" viewBox="0 0 89.999 89.999" style="enable-background:new 0 0 89.999 89.999;"
	 xml:space="preserve">
<g>
	<path id="Mister_Wong" d="M27.688,42.82c-6.048,6.331-13.074,11.68-19.59,17.535c-1.193-0.627-2.106-1.536-2.733-2.729
		c6.657-5.565,13.163-11.289,19.59-17.086C26.062,41.106,26.881,41.956,27.688,42.82z M63.217,41.904
		c-0.455,0.989-1.668,1.22-2.051,2.281c6.714,5.889,13.514,11.7,20.729,17.081c0.824-0.771,1.836-1.352,2.28-2.5
		C77.04,53.293,70.663,47.066,63.217,41.904z M24.27,14.344c-5.177-0.092-12.349,0.02-18.903,0c0,1.068,0,2.124,0,3.192
		c5.929,0.521,12.826,0.079,19.135,0.23c1.744,13.585,7.108,23.563,19.586,26.418c0,7.367,0,14.727,0,22.092
		C25.597,67.753,11.964,74.09,7.646,89.741c3.363,0.508,7.656,0.084,11.389,0.223c3.756-10.438,12.247-16.143,25.054-17.541
		c0,5.771,0,11.548,0,17.318c0.887,0.476,2.618,0.11,3.871,0.223c0.148-5.922-0.297-12.448,0.23-17.995
		c14.867,0.771,24.896,6.383,28.925,17.995c2.43,0,4.86,0,7.286,0c-4.082-16.03-18.34-21.895-36.441-23.911
		c0-7.365,0-14.732,0-22.099c11.74-3.138,16.412-13.34,18.45-26.187c5.993,0,11.995,0,17.989,0c0.521-1.042,0.011-2.229,0-3.423
		c-6.588-0.264-11.422,0.158-18.221-0.224c0.014-5.632-1-10.235-2.729-14.12c-2.052,0-4.103,0-6.153,0
		c1.227,4.168,2.997,8.989,2.282,14.344c-7.231-0.455-18.769,0.62-27.335-0.455C32.255,8.436,33.621,4.34,34.749,0
		c-2.506,0-5.009,0-7.519,0C25.133,3.542,24.632,9.814,24.27,14.344z M32.925,17.767c8.883,0,17.763,0,26.652,0
		c-0.806,8.329-3.806,18.623-11.162,20.496c-1.754,0.442-3.426,0.429-5.015,0c-7.07-1.919-9.797-11.679-10.931-19.817
		C32.459,18.057,32.639,17.853,32.925,17.767z"/>
</g>
<g>
</g>
<g>
</g>
<g>
</g>
<g>
</g>
<g>
</g>
<g>
</g>
<g>
</g>
<g>
</g>
<g>
</g>
<g>
</g>
<g>
</g>
<g>
</g>
<g>
</g>
<g>
</g>
<g>
</g>
</svg>
