<?xml version="1.0" encoding="iso-8859-1"?>
<!-- Generator: Adobe Illustrator 16.0.0, SVG Export Plug-In . SVG Version: 6.00 Build 0)  -->
<!DOCTYPE svg PUBLIC "-//W3C//DTD SVG 1.1//EN" "http://www.w3.org/Graphics/SVG/1.1/DTD/svg11.dtd">
<svg version="1.1" id="Capa_1" xmlns="http://www.w3.org/2000/svg" xmlns:xlink="http://www.w3.org/1999/xlink" x="0px" y="0px"
	 width="90px" height="89.999px" viewBox="0 0 90 89.999" style="enable-background:new 0 0 90 89.999;" xml:space="preserve">
<g>
	<path id="Mixx_1_" d="M42.433,62.725c-2.48,0-4.772-0.67-6.658-1.804c2.906,0.817,6.424,0.651,9.863-0.687
		c4.01-1.559,7.016-4.365,8.439-7.455C54.052,58.277,48.851,62.725,42.433,62.725z M44.167,68.664
		c8.307,0,15.269-5.151,17.262-12.12c-2.708,5.112-8.335,9.065-15.285,10.046c-6.166,0.857-11.977-0.822-16.004-4.123
		C33.404,66.236,38.467,68.664,44.167,68.664z M66.514,48.068c0.044,0.586,0.089,1.176,0.089,1.763
		c0,12.399-9.953,22.45-22.237,22.45c-8.91,0-16.573-5.305-20.12-12.945c2.679,9.075,11.052,15.7,20.979,15.7
		c12.093,0,21.896-9.815,21.896-21.929C67.119,51.369,66.896,49.684,66.514,48.068z M79.5,55.419c0,19.099-15.447,34.58-34.5,34.58
		c-19.053,0-34.5-15.481-34.5-34.58c0-14.124,8.461-26.251,20.57-31.619l-6.39-18.573c-0.739-2.149,0.443-4.422,2.624-5.045
		l0.089-0.024C27.761,0.048,28.133,0,28.496,0c1.78,0,3.377,1.204,3.812,3.043l4.447,18.835c2.646-0.652,5.397-1.035,8.244-1.035
		C64.052,20.842,79.5,36.322,79.5,55.419z M72.85,55.404c0-15.406-12.469-27.902-27.852-27.902c-2.32,0-4.561,0.314-6.715,0.851
		l5.193,21.995c0.522,2.215,0.381,4.229-0.311,4.482c-0.053,0.018-0.105,0.027-0.159,0.027c-0.704,0-1.764-1.484-2.45-3.477
		l-7.31-21.249c-9.502,4.444-16.103,14.077-16.103,25.272c0,15.408,12.471,27.896,27.854,27.896
		C60.382,83.302,72.85,70.814,72.85,55.404z"/>
</g>
<g>
</g>
<g>
</g>
<g>
</g>
<g>
</g>
<g>
</g>
<g>
</g>
<g>
</g>
<g>
</g>
<g>
</g>
<g>
</g>
<g>
</g>
<g>
</g>
<g>
</g>
<g>
</g>
<g>
</g>
</svg>
