<?xml version="1.0" encoding="iso-8859-1"?>
<!-- Generator: Adobe Illustrator 16.0.0, SVG Export Plug-In . SVG Version: 6.00 Build 0)  -->
<!DOCTYPE svg PUBLIC "-//W3C//DTD SVG 1.1//EN" "http://www.w3.org/Graphics/SVG/1.1/DTD/svg11.dtd">
<svg version="1.1" id="Capa_1" xmlns="http://www.w3.org/2000/svg" xmlns:xlink="http://www.w3.org/1999/xlink" x="0px" y="0px"
	 width="430.117px" height="430.117px" viewBox="0 0 430.117 430.117" style="enable-background:new 0 0 430.117 430.117;"
	 xml:space="preserve">
<g>
	<path id="MobileMe" d="M430.117,275.749c0,46.983-37.812,85.071-84.437,85.071H84.422C37.798,360.82,0,322.732,0,275.749
		c0-42.433,30.826-77.585,71.156-84.017c-0.511-2.978-0.793-6.042-0.793-9.196c0-29.769,23.952-53.898,53.506-53.898
		c13.18,0,25.258,4.802,34.576,12.792c16.612-37.715,37.908-72.134,97.652-72.134c72.456,0,106.797,56.303,106.797,115.715
		c0,2.485-0.104,4.947-0.271,7.383C401.135,200.301,430.117,234.613,430.117,275.749z"/>
</g>
<g>
</g>
<g>
</g>
<g>
</g>
<g>
</g>
<g>
</g>
<g>
</g>
<g>
</g>
<g>
</g>
<g>
</g>
<g>
</g>
<g>
</g>
<g>
</g>
<g>
</g>
<g>
</g>
<g>
</g>
</svg>
