<?xml version="1.0" encoding="iso-8859-1"?>
<!-- Generator: Adobe Illustrator 16.0.0, SVG Export Plug-In . SVG Version: 6.00 Build 0)  -->
<!DOCTYPE svg PUBLIC "-//W3C//DTD SVG 1.1//EN" "http://www.w3.org/Graphics/SVG/1.1/DTD/svg11.dtd">
<svg version="1.1" id="Capa_1" xmlns="http://www.w3.org/2000/svg" xmlns:xlink="http://www.w3.org/1999/xlink" x="0px" y="0px"
	 width="90.001px" height="90px" viewBox="0 0 90.001 90" style="enable-background:new 0 0 90.001 90;" xml:space="preserve">
<g>
	<path id="MSN_Messenger" d="M0.004,53.012c1.491-13.895,13.04-18.81,14.731-19.455c-2.87-2.27-4.708-5.747-4.708-9.644
		c0-6.842,5.659-12.387,12.642-12.387c6.98,0,12.643,5.545,12.643,12.387c0,3.86-1.803,7.308-4.628,9.581
		c2.364,0.834,4.687,2.081,6.764,3.708c-5.495,2.747-17.593,10.665-19.428,27.755c-0.003,0.145-0.003,0.283-0.003,0.423
		C7.389,64.713,6.304,61.833,6.304,61.833v-0.002c-0.676-0.656-1.201-1.46-1.521-2.467c-1.549-0.356-2.522-1.289-2.522-1.289
		S-0.118,57.19,0.004,53.012z M44.322,37.642c-2.508,0.959-19.614,8.24-21.827,28.83c-0.181,6.189,3.34,7.498,3.34,7.498
		s0,0,0,0.002c0,0,1.446,1.379,3.743,1.908c0.473,1.49,1.248,2.684,2.252,3.656v0.003c0,0,1.686,4.499,18.627,5.329
		c0.251,0.045,0.498,0.084,0.743,0.131c1.403,0,2.809,0,4.213,0c0.527,0,1.066,0.004,1.621,0c1.615,0,3.229,0,4.842,0
		c0.417-0.076,0.84-0.146,1.266-0.215c17.408-1.158,19.241-6.598,19.241-6.598l-0.003-0.004c0.462-0.681,0.846-1.439,1.121-2.304
		c7.923-1.565,7.297-10.995,4.925-18.237C85.13,47.583,76.743,40.654,67.952,37.548c4.186-3.365,6.856-8.475,6.856-14.194
		C74.809,13.217,66.422,5,56.077,5c-10.346,0-18.732,8.218-18.732,18.354C37.345,29.129,40.066,34.276,44.322,37.642z"/>
</g>
<g>
</g>
<g>
</g>
<g>
</g>
<g>
</g>
<g>
</g>
<g>
</g>
<g>
</g>
<g>
</g>
<g>
</g>
<g>
</g>
<g>
</g>
<g>
</g>
<g>
</g>
<g>
</g>
<g>
</g>
</svg>
