<?xml version="1.0" encoding="iso-8859-1"?>
<!-- Generator: Adobe Illustrator 16.0.0, SVG Export Plug-In . SVG Version: 6.00 Build 0)  -->
<!DOCTYPE svg PUBLIC "-//W3C//DTD SVG 1.1//EN" "http://www.w3.org/Graphics/SVG/1.1/DTD/svg11.dtd">
<svg version="1.1" id="Capa_1" xmlns="http://www.w3.org/2000/svg" xmlns:xlink="http://www.w3.org/1999/xlink" x="0px" y="0px"
	 width="90px" height="89.999px" viewBox="0 0 90 89.999" style="enable-background:new 0 0 90 89.999;" xml:space="preserve">
<g>
	<path id="Myspace__x28_alt_x29_" d="M65.5,29.999c-8.301,0-15.035-6.717-15.035-14.998C50.464,6.719,57.199,0,65.5,0
		s15.033,6.719,15.033,15.001C80.533,23.282,73.8,29.999,65.5,29.999L65.5,29.999z M53.2,44.453c0-8.286-6.729-14.998-15.034-14.998
		s-15.033,6.712-15.033,14.998c0,0.34,0.027,0.668,0.051,1.002h-0.051v25.998H53.2V45.455h-0.054
		C53.171,45.121,53.2,44.793,53.2,44.453L53.2,44.453z M38.166,27.451c6.087,0,11.023-4.922,11.023-10.998
		c0-6.071-4.937-10.998-11.023-10.998c-6.086,0-11.023,4.927-11.023,10.998C27.142,22.529,32.08,27.451,38.166,27.451L38.166,27.451
		z M86,53.182c0-11.299-9.177-20.456-20.5-20.456c-11.324,0-20.5,9.156-20.5,20.456c0,0.461,0.037,0.912,0.068,1.36H45v35.457h41
		V54.543h-0.068C85.962,54.094,86,53.643,86,53.182L86,53.182z M16.3,27.817C9.504,27.817,4,33.308,4,40.089
		c0,0.275,0.021,0.547,0.041,0.82H4v21.272h24.6V40.91h-0.042c0.018-0.273,0.041-0.545,0.041-0.82
		C28.599,33.308,23.094,27.817,16.3,27.817L16.3,27.817z M16.3,26.182c4.979,0,9.019-4.03,9.019-9s-4.039-9-9.019-9
		s-9.021,4.03-9.021,9S11.319,26.182,16.3,26.182L16.3,26.182z"/>
</g>
<g>
</g>
<g>
</g>
<g>
</g>
<g>
</g>
<g>
</g>
<g>
</g>
<g>
</g>
<g>
</g>
<g>
</g>
<g>
</g>
<g>
</g>
<g>
</g>
<g>
</g>
<g>
</g>
<g>
</g>
</svg>
