<?xml version="1.0" encoding="iso-8859-1"?>
<!-- Generator: Adobe Illustrator 16.0.0, SVG Export Plug-In . SVG Version: 6.00 Build 0)  -->
<!DOCTYPE svg PUBLIC "-//W3C//DTD SVG 1.1//EN" "http://www.w3.org/Graphics/SVG/1.1/DTD/svg11.dtd">
<svg version="1.1" id="Capa_1" xmlns="http://www.w3.org/2000/svg" xmlns:xlink="http://www.w3.org/1999/xlink" x="0px" y="0px"
	 width="90px" height="90px" viewBox="0 0 90 90" style="enable-background:new 0 0 90 90;" xml:space="preserve">
<g>
	<path id="official.fm" d="M78.431,59.584c-4.853-3.709-6.271-26.276-10.834-39.414C63.044,7.044,47.649,6.761,45.363,4.746
		c-2.281-1.991-3.643-4.04-3.643-4.04s-0.21-0.287-0.464-0.452c-0.641-0.75-3.423,0.34-3.423,0.954c0,0.684,0,49.219,0,56.667
		c0,7.284-8.692,4.359-18.968,11.773c-7.862,5.699-9.152,12.254-6.828,16.574c1.993,3.709,10.91,6.676,21.092-1.148
		c9.022-6.927,8.261-16.016,8.261-18.586c0-4.859,0-55.86,0-55.86s0-4.195,0-7.229c0.208,0.312,0.623,0.948,1.407,2.21
		c5.156,8.269-0.58,15.696,5.981,31.408C55.868,54.01,83.275,63.291,78.431,59.584z M71.808,54.022c0,0-8.604-10.352-11.864-18.984
		c-2.792-7.43-6.345-16.484-9.638-21.067c-2.093-2.889-3.975-5.549-4.531-6.47c-0.363-0.602,0.112-0.342,0.112-0.342
		s2.237,2.717,4.726,5.834c4.2,5.244,5.559,8.109,10.025,19.859c1.588,4.178,3.663,9.158,5.755,12.549
		c2.848,4.66,4.788,7.392,5.837,8.771C72.375,54.375,71.808,54.022,71.808,54.022z"/>
</g>
<g>
</g>
<g>
</g>
<g>
</g>
<g>
</g>
<g>
</g>
<g>
</g>
<g>
</g>
<g>
</g>
<g>
</g>
<g>
</g>
<g>
</g>
<g>
</g>
<g>
</g>
<g>
</g>
<g>
</g>
</svg>
