<?xml version="1.0" encoding="iso-8859-1"?>
<!-- Generator: Adobe Illustrator 16.0.0, SVG Export Plug-In . SVG Version: 6.00 Build 0)  -->
<!DOCTYPE svg PUBLIC "-//W3C//DTD SVG 1.1//EN" "http://www.w3.org/Graphics/SVG/1.1/DTD/svg11.dtd">
<svg version="1.1" id="Capa_1" xmlns="http://www.w3.org/2000/svg" xmlns:xlink="http://www.w3.org/1999/xlink" x="0px" y="0px"
	 width="90px" height="89.999px" viewBox="0 0 90 89.999" style="enable-background:new 0 0 90 89.999;" xml:space="preserve">
<g>
	<path id="Pandora" d="M71.671,7.201C66.113,2.4,58.37,0,48.579,0H10v3.151c12.274,0,13.882,2.1,13.882,17.399V69.3
		c0,15.3-1.607,17.548-13.882,17.548v3.151h39.458v-3.151c-12.277,0-13.885-2.248-13.885-17.548V50.548h13.006
		c9.791,0,17.534-2.397,23.093-7.05C77.224,38.7,80,32.699,80,25.348C80,18.001,77.224,12,71.671,7.201z M48.435,45.148H35.573
		V5.551h12.86c12.129,0,18.561,8.247,18.561,19.797C66.994,36.899,60.562,45.148,48.435,45.148z"/>
</g>
<g>
</g>
<g>
</g>
<g>
</g>
<g>
</g>
<g>
</g>
<g>
</g>
<g>
</g>
<g>
</g>
<g>
</g>
<g>
</g>
<g>
</g>
<g>
</g>
<g>
</g>
<g>
</g>
<g>
</g>
</svg>
