<?xml version="1.0" encoding="iso-8859-1"?>
<!-- Generator: Adobe Illustrator 16.0.0, SVG Export Plug-In . SVG Version: 6.00 Build 0)  -->
<!DOCTYPE svg PUBLIC "-//W3C//DTD SVG 1.1//EN" "http://www.w3.org/Graphics/SVG/1.1/DTD/svg11.dtd">
<svg version="1.1" id="Capa_1" xmlns="http://www.w3.org/2000/svg" xmlns:xlink="http://www.w3.org/1999/xlink" x="0px" y="0px"
	 width="430.12px" height="430.12px" viewBox="0 0 430.12 430.12" style="enable-background:new 0 0 430.12 430.12;"
	 xml:space="preserve">
<g>
	<path id="Path" d="M106.75,18.943C51.421,40.855,13.831,83.079,3.33,139.96c-6.445,34.95-3.995,73.042,11.422,105.665
		c3.438,7.253,7.561,14.235,12.463,20.694c2.376,3.146,4.929,6.16,7.691,9.017c4.912-1.75,9.659-3.935,14.179-6.497
		c18.701-10.557,32.501-26.821,48.517-40.491c-53.534-62.028,3.202-138.883,74.176-156.022
		c66.07-15.929,155.622,11.567,175.662,79.548c8.289,28.159,2.861,59.281-20.097,79.667c-12.013,10.669-27.246,17.726-43.361,20.596
		c-9.409,1.671-19.069,1.933-28.581,0.994c-5.298-0.527-10.571-1.428-15.756-2.646c-8.793-2.072-16.615-1.764-16.615-11.243
		c0-24.77,0-49.55,0-74.334c0-12.377,0-24.771,0-37.162c0-7.598,0.747-6.17-5.554-6.954c-4.975-0.606-9.937-1.094-14.925-1.486
		c-17.53-1.372-35.853-2.312-53.242,0.684c-6.506,1.118-6.917,0.077-6.917,7.131c0,5.71,0,11.425,0,17.124
		c0,13.887,0,27.781,0,41.668c0,41.514,3.127,83.518,1.409,124.956c-0.497,12.35-0.84,41.99-14.661,48.108
		c-16.02,7.085-30.18-7.896-44.963-11.019c2.028,20.806-10.986,62.025,13.269,72.526c22.236,9.633,47.823,13.217,71.269,5.264
		c49.116-16.656,64.998-71.322,58.777-116.233c75.821,22.649,157.663-15.247,190.09-83.718
		c23.088-48.75,13.339-109.31-21.422-150.766C331.054-2.635,198.892-17.53,106.75,18.943z"/>
</g>
<g>
</g>
<g>
</g>
<g>
</g>
<g>
</g>
<g>
</g>
<g>
</g>
<g>
</g>
<g>
</g>
<g>
</g>
<g>
</g>
<g>
</g>
<g>
</g>
<g>
</g>
<g>
</g>
<g>
</g>
</svg>
