<?xml version="1.0" encoding="iso-8859-1"?>
<!-- Generator: Adobe Illustrator 16.0.0, SVG Export Plug-In . SVG Version: 6.00 Build 0)  -->
<!DOCTYPE svg PUBLIC "-//W3C//DTD SVG 1.1//EN" "http://www.w3.org/Graphics/SVG/1.1/DTD/svg11.dtd">
<svg version="1.1" id="Capa_1" xmlns="http://www.w3.org/2000/svg" xmlns:xlink="http://www.w3.org/1999/xlink" x="0px" y="0px"
	 width="90px" height="90px" viewBox="0 0 90 90" style="enable-background:new 0 0 90 90;" xml:space="preserve">
<g>
	<path id="PayPal" d="M58.057,0H18.649L1.189,80.146h23.124l5.664-26.558h16.521c15.803,0,29.019-9.744,32.562-26.312
		C83.064,8.521,69.612,0,58.057,0z M40.816,38.242H33.28l4.953-21.924h11.326c3.885,0,6.827,2.314,7.794,5.712
		c-0.496-0.086-0.956-0.235-1.498-0.235H44.53L40.816,38.242z M57.347,27.278c-1.379,5.95-7.033,10.698-12.79,10.921l2.711-12.023
		h10.267C57.473,26.543,57.448,26.897,57.347,27.278z M85.355,32.754c1.326-6.211,0.711-11.275-1.086-15.306
		c3.748,4.47,5.688,10.955,3.824,19.687C84.55,53.701,71.332,63.445,55.532,63.445h-16.52L33.349,90H10.223l0.96-4.381h19.428
		l5.663-26.555h16.521C68.597,59.064,81.813,49.32,85.355,32.754z"/>
</g>
<g>
</g>
<g>
</g>
<g>
</g>
<g>
</g>
<g>
</g>
<g>
</g>
<g>
</g>
<g>
</g>
<g>
</g>
<g>
</g>
<g>
</g>
<g>
</g>
<g>
</g>
<g>
</g>
<g>
</g>
</svg>
