<?xml version="1.0" encoding="iso-8859-1"?>
<!-- Generator: Adobe Illustrator 16.0.0, SVG Export Plug-In . SVG Version: 6.00 Build 0)  -->
<!DOCTYPE svg PUBLIC "-//W3C//DTD SVG 1.1//EN" "http://www.w3.org/Graphics/SVG/1.1/DTD/svg11.dtd">
<svg version="1.1" id="Capa_1" xmlns="http://www.w3.org/2000/svg" xmlns:xlink="http://www.w3.org/1999/xlink" x="0px" y="0px"
	 width="90px" height="90.001px" viewBox="0 0 90 90.001" style="enable-background:new 0 0 90 90.001;" xml:space="preserve">
<g>
	<path id="LiveJournal" d="M78.84,87.629c-0.104,0-0.207-0.02-0.305-0.062L48.119,74.864c-0.246-0.103-0.423-0.322-0.474-0.582
		c-0.049-0.263,0.035-0.529,0.228-0.716c3.496-3.396,5.421-7.947,5.421-12.816c0-2.062-0.351-4.087-1.041-6.02
		c-0.03-0.086-0.046-0.17-0.047-0.256L29.997,24.668c-4.462,3.861-8.684,9.629-8.207,15.252c0.037,0.436-0.286,0.819-0.723,0.854
		c-0.424,0.034-0.816-0.284-0.854-0.72c-0.568-6.713,4.746-13.465,9.908-17.543c6.219-4.914,12.965-7.016,17.605-5.49
		c0.414,0.136,0.642,0.582,0.504,0.999c-0.136,0.414-0.579,0.641-0.998,0.501c-4.05-1.33-10.326,0.685-16.014,5.139L53.9,54.1
		c5.855,3.592,13.716,3.408,19.412-0.496c0.224-0.155,0.511-0.184,0.762-0.074s0.425,0.336,0.469,0.604l5.078,32.584
		c0.044,0.283-0.067,0.566-0.292,0.745C79.187,87.571,79.015,87.629,78.84,87.629z M49.798,73.85l28.044,11.713l-4.678-29.989
		c-5.653,3.37-13.012,3.581-18.837,0.582c0.363,1.497,0.548,3.038,0.548,4.595C54.875,65.654,53.081,70.262,49.798,73.85z
		 M14.948,32.201c-0.406,0-0.752-0.312-0.787-0.724c-0.568-6.713,4.744-13.461,9.908-17.541c6.219-4.912,12.965-7.016,17.605-5.492
		c0.414,0.138,0.641,0.584,0.504,0.998c-0.137,0.416-0.578,0.646-0.998,0.506c-4.084-1.341-10.412,0.711-16.132,5.23
		c-4.839,3.823-9.827,10.078-9.312,16.163c0.037,0.437-0.285,0.819-0.722,0.854C14.993,32.201,14.971,32.201,14.948,32.201z
		 M68.427,82.49c1.15-3.956,4.431-7.003,8.517-7.814L78.84,86.84L68.427,82.49L68.427,82.49z M32.933,3.163
		C22.62,3.163,6.6,17.746,12.382,27.997l34.086,45.319L78.84,86.838l-5.522-35.422L39.231,6.288
		C37.799,4.102,35.55,3.163,32.933,3.163 M32.933,0c3.802,0,6.951,1.582,8.881,4.459L75.841,49.51
		c0.312,0.416,0.521,0.904,0.602,1.422l5.522,35.418c0.177,1.133-0.272,2.271-1.172,2.978c-0.567,0.444-1.256,0.674-1.953,0.674
		c-0.412,0-0.826-0.081-1.221-0.243L45.249,76.234c-0.52-0.215-0.972-0.565-1.31-1.018L9.853,29.899
		c-0.083-0.113-0.159-0.227-0.227-0.349c-2.472-4.381-2.12-9.728,0.99-15.054C15.286,6.504,25.296,0,32.933,0L32.933,0z"/>
</g>
<g>
</g>
<g>
</g>
<g>
</g>
<g>
</g>
<g>
</g>
<g>
</g>
<g>
</g>
<g>
</g>
<g>
</g>
<g>
</g>
<g>
</g>
<g>
</g>
<g>
</g>
<g>
</g>
<g>
</g>
</svg>
