<?xml version="1.0" encoding="iso-8859-1"?>
<!-- Generator: Adobe Illustrator 16.0.0, SVG Export Plug-In . SVG Version: 6.00 Build 0)  -->
<!DOCTYPE svg PUBLIC "-//W3C//DTD SVG 1.1//EN" "http://www.w3.org/Graphics/SVG/1.1/DTD/svg11.dtd">
<svg version="1.1" id="Capa_1" xmlns="http://www.w3.org/2000/svg" xmlns:xlink="http://www.w3.org/1999/xlink" x="0px" y="0px"
	 width="430.117px" height="430.118px" viewBox="0 0 430.117 430.118" style="enable-background:new 0 0 430.117 430.118;"
	 xml:space="preserve">
<g>
	<path id="Picassa" d="M126.951,309.157c4.616,0,273.508,0,281.292,0c-32.954,68.13-99.283,114.026-173.573,120.961h-39.425
		c-23.566-2.198-46.428-8.298-68.289-18.117C126.951,408.911,126.951,313.627,126.951,309.157z M303.724,19.322
		C275.675,6.553,245.834,0,215.05,0c-25.625,0-50.851,4.947-75.094,14.055c5.682,5.166,156.44,142.273,163.768,148.954
		C303.724,153.136,303.724,22.355,303.724,19.322z M117.073,23.905C44.857,61.034,0,134.253,0,215.507
		c0,18.505,2.786,37.317,7.824,55.977c5.838-5.32,186.9-170.147,190.631-173.559C194.815,94.616,119.51,26.126,117.073,23.905z
		 M104.36,399.558c0-8.415,0-175.365,0-185.292c-7.178,6.552-86.385,78.682-88.856,80.927
		C32.746,338.503,64.207,375.251,104.36,399.558z M326.41,31.671c0,8.569,0,250.193,0,254.776c4.42,0,88.101,0,91.521,0
		c8-22.934,12.186-46.811,12.186-70.939C430.117,140.615,390.382,70.697,326.41,31.671z"/>
</g>
<g>
</g>
<g>
</g>
<g>
</g>
<g>
</g>
<g>
</g>
<g>
</g>
<g>
</g>
<g>
</g>
<g>
</g>
<g>
</g>
<g>
</g>
<g>
</g>
<g>
</g>
<g>
</g>
<g>
</g>
</svg>
