<?xml version="1.0" encoding="iso-8859-1"?>
<!-- Generator: Adobe Illustrator 16.0.0, SVG Export Plug-In . SVG Version: 6.00 Build 0)  -->
<!DOCTYPE svg PUBLIC "-//W3C//DTD SVG 1.1//EN" "http://www.w3.org/Graphics/SVG/1.1/DTD/svg11.dtd">
<svg version="1.1" id="Capa_1" xmlns="http://www.w3.org/2000/svg" xmlns:xlink="http://www.w3.org/1999/xlink" x="0px" y="0px"
	 width="90px" height="90px" viewBox="0 0 90 90" style="enable-background:new 0 0 90 90;" xml:space="preserve">
<g>
	<path id="Picassa" d="M26.564,64.689c0.966,0,57.23,0,58.859,0C78.527,78.945,64.648,88.549,49.104,90h-8.25
		c-4.931-0.46-9.715-1.736-14.289-3.791C26.564,85.562,26.564,65.625,26.564,64.689z M63.553,4.043C57.684,1.371,51.439,0,44.998,0
		c-5.362,0-10.64,1.035-15.713,2.941c1.189,1.081,32.734,29.77,34.268,31.168C63.553,32.043,63.553,4.678,63.553,4.043z
		 M24.497,5.002C9.386,12.771,0,28.092,0,45.094c0,3.872,0.583,7.809,1.637,11.713c1.222-1.113,39.108-35.603,39.889-36.316
		C40.764,19.798,25.007,5.467,24.497,5.002z M21.837,83.605c0-1.761,0-36.694,0-38.771C20.335,46.205,3.761,61.298,3.244,61.768
		C6.852,70.83,13.435,78.52,21.837,83.605z M68.3,6.627c0,1.793,0,52.352,0,53.311c0.925,0,18.435,0,19.15,0
		C89.124,55.139,90,50.143,90,45.094C90,29.423,81.686,14.793,68.3,6.627z"/>
</g>
<g>
</g>
<g>
</g>
<g>
</g>
<g>
</g>
<g>
</g>
<g>
</g>
<g>
</g>
<g>
</g>
<g>
</g>
<g>
</g>
<g>
</g>
<g>
</g>
<g>
</g>
<g>
</g>
<g>
</g>
</svg>
