<?xml version="1.0" encoding="iso-8859-1"?>
<!-- Generator: Adobe Illustrator 16.0.0, SVG Export Plug-In . SVG Version: 6.00 Build 0)  -->
<!DOCTYPE svg PUBLIC "-//W3C//DTD SVG 1.1//EN" "http://www.w3.org/Graphics/SVG/1.1/DTD/svg11.dtd">
<svg version="1.1" id="Capa_1" xmlns="http://www.w3.org/2000/svg" xmlns:xlink="http://www.w3.org/1999/xlink" x="0px" y="0px"
	 width="89.999px" height="90px" viewBox="0 0 89.999 90" style="enable-background:new 0 0 89.999 90;" xml:space="preserve">
<g>
	<path id="Ping" d="M0,24.325c2.434-0.428,5.732-0.749,10.162-0.749c4.865,0,8.379,1.016,10.703,2.938
		c2.162,1.764,3.568,4.594,3.568,7.957c0,3.418-1.082,6.195-3.082,8.118c-2.701,2.616-6.811,3.897-11.514,3.897
		c-1.242,0-2.324-0.053-3.242-0.267v13.617H0V24.325z M6.596,41.039c0.865,0.269,1.891,0.32,3.242,0.32
		c4.973,0,8.002-2.456,8.002-6.621c0-4.005-2.813-6.088-7.406-6.088c-1.838,0-3.135,0.16-3.838,0.32V41.039z M26.596,59.837V33.83
		h6.648v26.008H26.596z M37.73,41.574c0-2.991-0.109-5.5-0.217-7.744h5.783l0.324,3.898h0.164c1.188-2.028,4.053-4.486,8.432-4.486
		c4.595,0,9.353,2.938,9.353,11.162v15.434H54.92V45.152c0-3.738-1.406-6.569-5.027-6.569c-2.647,0-4.485,1.87-5.188,3.846
		c-0.217,0.534-0.324,1.335-0.324,2.083v15.326h-6.65V41.574z M89.782,56.046c0,5.447-1.136,9.346-3.892,11.801
		C83.189,70.251,79.354,71,75.729,71c-3.35,0-6.918-0.748-9.188-2.082L68,63.951c1.676,0.961,4.484,1.975,7.676,1.975
		c4.324,0,7.568-2.244,7.568-7.85v-2.244h-0.109c-1.514,2.297-4.164,3.846-7.676,3.846c-6.541,0-11.189-5.34-11.189-12.711
		c0-8.544,5.621-13.725,11.945-13.725c4.053,0,6.379,1.924,7.623,4.06h0.105l0.272-3.472h5.783c-0.106,1.762-0.22,3.898-0.22,7.478
		v14.739H89.782z M83.137,44.244c0-0.641-0.054-1.229-0.216-1.762c-0.705-2.404-2.596-4.22-5.407-4.22
		c-3.73,0-6.486,3.205-6.486,8.491c0,4.433,2.27,8.013,6.434,8.013c2.484,0,4.648-1.604,5.404-4.007
		c0.219-0.641,0.271-1.549,0.271-2.297V44.244z M29.951,19c-3.297,0-5.969,2.641-5.969,5.896s2.672,5.896,5.969,5.896
		c3.295,0,5.967-2.641,5.967-5.896S33.246,19,29.951,19z M29.951,29.612c-2.637,0-4.775-2.112-4.775-4.717s2.139-4.717,4.775-4.717
		c2.635,0,4.773,2.111,4.773,4.717C34.725,27.5,32.586,29.612,29.951,29.612z M32.137,26.477c0.037,0.5-0.344,0.957-0.852,1.021
		c-0.51,0.061-0.953-0.295-0.992-0.797c-0.039-0.5,0.344-0.958,0.852-1.02c0.162-0.02,0.316,0.002,0.453,0.058v-2.463l-2.387,0.438
		v3.076h-0.004c0.002,0.01,0.004,0.018,0.004,0.025c0.037,0.502-0.344,0.958-0.854,1.021c-0.508,0.062-0.951-0.294-0.99-0.795
		c-0.039-0.501,0.342-0.958,0.852-1.021c0.16-0.02,0.314,0.004,0.451,0.06v-3.547v-0.001l3.465-0.584l0.002-0.002l0,0h0.002
		l-0.002,0.016v4.488h-0.004C32.135,26.458,32.135,26.466,32.137,26.477z"/>
</g>
<g>
</g>
<g>
</g>
<g>
</g>
<g>
</g>
<g>
</g>
<g>
</g>
<g>
</g>
<g>
</g>
<g>
</g>
<g>
</g>
<g>
</g>
<g>
</g>
<g>
</g>
<g>
</g>
<g>
</g>
</svg>
