<?xml version="1.0" encoding="iso-8859-1"?>
<!-- Generator: Adobe Illustrator 16.0.0, SVG Export Plug-In . SVG Version: 6.00 Build 0)  -->
<!DOCTYPE svg PUBLIC "-//W3C//DTD SVG 1.1//EN" "http://www.w3.org/Graphics/SVG/1.1/DTD/svg11.dtd">
<svg version="1.1" id="Capa_1" xmlns="http://www.w3.org/2000/svg" xmlns:xlink="http://www.w3.org/1999/xlink" x="0px" y="0px"
	 width="430.118px" height="430.118px" viewBox="0 0 430.118 430.118" style="enable-background:new 0 0 430.118 430.118;"
	 xml:space="preserve">
<g>
	<path id="Playstation" d="M231.59,382.327l-65.649-28.143V47.791c0,0,142.675,23.972,162.313,83.37
		c19.645,59.405-10.967,97.88-21.706,99.01c-29.986,3.127-41.355-15.633-41.355-15.633v-95.883l-32.566-13.548L231.59,382.327z
		 M248.652,340.117v35.946c0,0,154.56-50.021,177.303-69.297c22.747-19.279-53.242-67.215-94.074-57.844
		c0,0-43.391,2.109-82.71,19.279c-0.374,0.154,0,32.301,0,32.301l99.763-23.438l35.148,15.63L248.652,340.117z M149.4,337.514
		c0,0-20.16,10.417-65.132,9.894c-44.97-0.527-84.78-13.03-84.264-40.118c0.516-27.097,74.439-56.798,148.877-69.306v38.036
		l-79.088,20.844c0,0-13.54,17.212,4.655,17.716c41.353,1.158,75.471-9.903,75.471-9.903L149.4,337.514z"/>
</g>
<g>
</g>
<g>
</g>
<g>
</g>
<g>
</g>
<g>
</g>
<g>
</g>
<g>
</g>
<g>
</g>
<g>
</g>
<g>
</g>
<g>
</g>
<g>
</g>
<g>
</g>
<g>
</g>
<g>
</g>
</svg>
