<?xml version="1.0" encoding="iso-8859-1"?>
<!-- Generator: Adobe Illustrator 16.0.0, SVG Export Plug-In . SVG Version: 6.00 Build 0)  -->
<!DOCTYPE svg PUBLIC "-//W3C//DTD SVG 1.1//EN" "http://www.w3.org/Graphics/SVG/1.1/DTD/svg11.dtd">
<svg version="1.1" id="Capa_1" xmlns="http://www.w3.org/2000/svg" xmlns:xlink="http://www.w3.org/1999/xlink" x="0px" y="0px"
	 width="430.121px" height="430.121px" viewBox="0 0 430.121 430.121" style="enable-background:new 0 0 430.121 430.121;"
	 xml:space="preserve">
<g>
	<path id="Plixi" d="M128.327,227.418c1.176,15.462,4.702,52.579,12.468,73.166c-9.53-1.713-20.006-3.785-30.143-5.937
		c-10.986-2.329-22.131-3.641-29.352-9.199c-7.364-5.675-14.295-15.341-14.391-28.749c-0.138-18.939,14.041-34.531,32.231-36.207
		C110.085,219.465,118.677,223.796,128.327,227.418z M338.608,52.631c-16.082-26.768-43.6-55.984-88.642-52.318
		c-23.093,1.893-40.65,13.187-54.682,25.296c-27.986,24.159-47.299,58.53-55.832,100.592c-4.81,23.746-5.202,47.455-4.614,72.426
		c0.317,13.161,0.283,25.347,1.727,37.369c4.237,35.013,10.242,66.973,21.31,95.983c10.466,27.47,24.95,53.167,43.159,74.164
		c6.279,7.239,13.425,16.237,19.576,19.551c23.224,12.498,49.961-2.969,49.489-27.602c-0.224-12.106-5.04-15.425-10.93-23.56
		c-3.407-4.713-6.539-10.155-9.209-14.943c-1.231-2.217-2.454-4.48-3.649-6.758h-0.014c0,0-20.33-23.947-33.589-91.746
		c-3.134-14.58-5.486-29.943-6.856-45.802c0-0.075-0.016-0.145-0.025-0.215h0.009c-0.877-10.291-1.351-20.771-1.351-31.381
		c0-42.949,7.04-78.75,26.472-103.467c5.507-6.987,16.563-16.857,28.208-16.671c18.397,0.315,27.685,19.504,32.235,33.349
		c11.976,36.489,5.95,81.851-6.902,111.515c-6.922,15.929-14.721,29.514-29.365,36.786c-11.481,5.703-24.32,5.265-36.154,2.53
		c0,0-1.738,18.215,18.036,70.78c20.162,0.729,36.595-5.693,50.344-14.099c41.985-25.618,69.092-76.718,74.832-136.237
		C366.648,122.075,356.082,81.73,338.608,52.631z"/>
</g>
<g>
</g>
<g>
</g>
<g>
</g>
<g>
</g>
<g>
</g>
<g>
</g>
<g>
</g>
<g>
</g>
<g>
</g>
<g>
</g>
<g>
</g>
<g>
</g>
<g>
</g>
<g>
</g>
<g>
</g>
</svg>
