<?xml version="1.0" encoding="iso-8859-1"?>
<!-- Generator: Adobe Illustrator 16.0.0, SVG Export Plug-In . SVG Version: 6.00 Build 0)  -->
<!DOCTYPE svg PUBLIC "-//W3C//DTD SVG 1.1//EN" "http://www.w3.org/Graphics/SVG/1.1/DTD/svg11.dtd">
<svg version="1.1" id="Capa_1" xmlns="http://www.w3.org/2000/svg" xmlns:xlink="http://www.w3.org/1999/xlink" x="0px" y="0px"
	 width="90px" height="90px" viewBox="0 0 90 90" style="enable-background:new 0 0 90 90;" xml:space="preserve">
<g>
	<path id="Podcast" d="M0.091,48.51C0.063,47.898,0,47.3,0,46.684C0,20.9,20.146,0,45,0c24.854,0,45,20.9,45,46.684
		c0,0.616-0.068,1.215-0.088,1.826C88.977,23.583,69.26,3.656,45,3.656C20.739,3.656,1.022,23.583,0.091,48.51z M45,20.622
		c15.164,0,27.527,12.291,28.425,27.788c0.034-0.6,0.089-1.191,0.089-1.796c0-16.338-12.765-29.579-28.514-29.579
		S16.487,30.276,16.487,46.614c0,0.604,0.054,1.196,0.087,1.796C17.473,32.913,29.835,20.622,45,20.622z M45,29.274
		c-5.158,0-9.343,4.342-9.343,9.692c0,5.35,4.186,9.691,9.343,9.691c5.156,0,9.342-4.342,9.342-9.691
		C54.342,33.616,50.156,29.274,45,29.274z M45,49.467c-7.513,0-13.605,0.416-13.605,14.686C31.395,78.426,37.487,90,45,90
		c7.514,0,13.605-11.574,13.605-25.85C58.605,49.883,52.514,49.467,45,49.467z"/>
</g>
<g>
</g>
<g>
</g>
<g>
</g>
<g>
</g>
<g>
</g>
<g>
</g>
<g>
</g>
<g>
</g>
<g>
</g>
<g>
</g>
<g>
</g>
<g>
</g>
<g>
</g>
<g>
</g>
<g>
</g>
</svg>
