<?xml version="1.0" encoding="iso-8859-1"?>
<!-- Generator: Adobe Illustrator 16.0.0, SVG Export Plug-In . SVG Version: 6.00 Build 0)  -->
<!DOCTYPE svg PUBLIC "-//W3C//DTD SVG 1.1//EN" "http://www.w3.org/Graphics/SVG/1.1/DTD/svg11.dtd">
<svg version="1.1" id="Capa_1" xmlns="http://www.w3.org/2000/svg" xmlns:xlink="http://www.w3.org/1999/xlink" x="0px" y="0px"
	 width="90px" height="90px" viewBox="0 0 90 90" style="enable-background:new 0 0 90 90;" xml:space="preserve">
<g>
	<path id="Qik" d="M65.279,90c0.147,0,0.324,0,0.48,0c3.955,0,7.91,0,11.867,0c1.65-10.526,3.057-19.925,4.551-29.31
		c1.524-9.65,4.083-19.125,4.883-29.098c1.555-19.828-10.312-30.18-28.892-31.412C37.864-1.195,24.081,5.456,15.028,14.579
		C8.122,21.502,3.453,30.01,2.848,41.282C1.911,59.305,15.527,73.123,39.017,71.17c2.658-0.244,5.402-0.986,7.893-2.109
		c3.691-1.621,6.193-4.482,9.143-6.29C53.825,73.261,49.82,89.847,65.279,90z M52.701,49.937c-3.693,2.637-12.18,4.142-17.631,0.802
		c-9.648-5.939-3.721-24.596,3.331-29.869c1.963-1.475,4.416-2.529,7.921-2.9c2.822-0.282,7.736,0.303,10.031,1.865
		C64.618,25.42,60.516,44.378,52.701,49.937z"/>
</g>
<g>
</g>
<g>
</g>
<g>
</g>
<g>
</g>
<g>
</g>
<g>
</g>
<g>
</g>
<g>
</g>
<g>
</g>
<g>
</g>
<g>
</g>
<g>
</g>
<g>
</g>
<g>
</g>
<g>
</g>
</svg>
