<?xml version="1.0" encoding="iso-8859-1"?>
<!-- Generator: Adobe Illustrator 16.0.0, SVG Export Plug-In . SVG Version: 6.00 Build 0)  -->
<!DOCTYPE svg PUBLIC "-//W3C//DTD SVG 1.1//EN" "http://www.w3.org/Graphics/SVG/1.1/DTD/svg11.dtd">
<svg version="1.1" id="Capa_1" xmlns="http://www.w3.org/2000/svg" xmlns:xlink="http://www.w3.org/1999/xlink" x="0px" y="0px"
	 width="90px" height="90px" viewBox="0 0 90 90" style="enable-background:new 0 0 90 90;" xml:space="preserve">
<g>
	<path id="Rdio" d="M77.748,39.808c0.248,1.697,0.377,3.43,0.377,5.195c0,20.71-17.488,37.497-39.066,37.497
		C17.49,82.5,0,65.713,0,45.003C0,24.29,17.49,7.5,39.059,7.5c4.232,0,8.307,0.654,12.123,1.847l0.008,22.665
		c0,0-11.641-6.373-22.048,1.104c-10.408,7.473-8.449,15.311-8.449,15.311s0.486,12.388,15.174,12.388
		c16.422,0,21.073-14.957,21.073-14.957V11.665c3.168,1.563,6.111,3.525,8.939,5.73c6.982,4.318,14.236,7.107,22.531,6.895
		c0,0,1.59-0.342,1.59,2.816c0,1.718-0.611,3.677-2.326,5.52C87.674,32.626,84.41,37.503,77.748,39.808"/>
</g>
<g>
</g>
<g>
</g>
<g>
</g>
<g>
</g>
<g>
</g>
<g>
</g>
<g>
</g>
<g>
</g>
<g>
</g>
<g>
</g>
<g>
</g>
<g>
</g>
<g>
</g>
<g>
</g>
<g>
</g>
</svg>
