<?xml version="1.0" encoding="iso-8859-1"?>
<!-- Generator: Adobe Illustrator 16.0.0, SVG Export Plug-In . SVG Version: 6.00 Build 0)  -->
<!DOCTYPE svg PUBLIC "-//W3C//DTD SVG 1.1//EN" "http://www.w3.org/Graphics/SVG/1.1/DTD/svg11.dtd">
<svg version="1.1" id="Capa_1" xmlns="http://www.w3.org/2000/svg" xmlns:xlink="http://www.w3.org/1999/xlink" x="0px" y="0px"
	 width="430.123px" height="430.123px" viewBox="0 0 430.123 430.123" style="enable-background:new 0 0 430.123 430.123;"
	 xml:space="preserve">
<g>
	<path id="Readernaut" d="M15.544,173.347c10.041-34.065,37.11-40.359,41.917-41.22C84.075,69.46,146.892,25.419,220.158,25.419
		c73.399,0,136.32,44.211,162.834,107.062c0.761,0.185,1.624,0.401,2.679,0.717V48.953c-9.408-3.799-16.045-12.9-16.045-23.534
		C369.626,11.383,381.182,0,395.444,0c14.253,0,25.8,11.388,25.8,25.419c0,12.034-8.485,22.084-19.882,24.729v90.903
		c8.326,6.04,17.058,15.98,21.87,32.296c0,0,8.652,41.796-5.517,52.344c0,0-6.926,9.744-27.004,17.259
		c-1.559,5.871-3.389,11.64-5.525,17.249c-7.431,1.167-15.514,2.596-23.994,4.341c12.316-21.39,19.341-45.854,19.341-71.852
		c0-83.676-72.499-151.505-161.943-151.505c-89.419,0-161.917,67.829-161.917,151.505c0,26.721,7.404,51.802,20.379,73.593
		c-7.365-1.644-14.438-3.039-21.172-4.248c-2.38-5.987-4.369-12.162-6.074-18.453c-0.11-0.037-0.187-0.056-0.292-0.094
		c-21.233-7.584-28.46-17.805-28.46-17.805C6.889,215.152,15.544,173.347,15.544,173.347z M215.062,360.13
		c-62.032-74.72-215.059-81.469-215.059-81.469v57.032c138.547,0.644,215.059,94.429,215.059,94.429v-0.009
		c0,0,76.512-93.78,215.059-94.425v-57.036C430.12,278.653,277.105,285.411,215.062,360.13z M361.394,218.984
		c0,17.843-3.389,34.9-9.521,50.629c-47.259,10.664-104.411,31.134-136.811,70.146v0.004
		c-31.045-37.401-84.915-57.778-130.965-68.797c-6.443-16.097-10.046-33.617-10.046-51.978c0-78.16,64.331-141.515,143.671-141.515
		C297.071,77.469,361.394,140.829,361.394,218.984z M149.928,196.568c0-8.77-7.217-15.87-16.11-15.87
		c-8.903,0-16.12,7.101-16.12,15.87s7.213,15.873,16.12,15.873C142.71,212.441,149.928,205.337,149.928,196.568z M188.188,156.434
		c0-13.5-11.122-24.444-24.831-24.444c-13.703,0-24.808,10.944-24.808,24.444c0,13.497,11.105,24.446,24.808,24.446
		C177.072,180.884,188.188,169.936,188.188,156.434z"/>
</g>
<g>
</g>
<g>
</g>
<g>
</g>
<g>
</g>
<g>
</g>
<g>
</g>
<g>
</g>
<g>
</g>
<g>
</g>
<g>
</g>
<g>
</g>
<g>
</g>
<g>
</g>
<g>
</g>
<g>
</g>
</svg>
