<?xml version="1.0" encoding="iso-8859-1"?>
<!-- Generator: Adobe Illustrator 16.0.0, SVG Export Plug-In . SVG Version: 6.00 Build 0)  -->
<!DOCTYPE svg PUBLIC "-//W3C//DTD SVG 1.1//EN" "http://www.w3.org/Graphics/SVG/1.1/DTD/svg11.dtd">
<svg version="1.1" id="Capa_1" xmlns="http://www.w3.org/2000/svg" xmlns:xlink="http://www.w3.org/1999/xlink" x="0px" y="0px"
	 width="430.117px" height="430.118px" viewBox="0 0 430.117 430.118" style="enable-background:new 0 0 430.117 430.118;"
	 xml:space="preserve">
<g>
	<path id="Scribd" d="M279.334,383.233c-3.202,3.892-6.618,7.747-10.436,11.411c-24.53,23.647-54.241,35.474-89.132,35.474
		c-33.976,0-64.032-9.222-90.077-27.731c-26.024-18.505-46.057-46.223-60.084-83.2l1.048-0.294
		c-1.158-4.004-1.979-8.167-1.979-12.578c0-25.599,20.89-46.349,46.654-46.349c25.772,0,46.643,20.75,46.643,46.349
		c0,13.147-5.554,24.918-14.356,33.379c18.433,21.231,41.789,32.105,70.237,32.105c20.216,0,37.02-6.007,50.396-18.024
		c13.403-11.994,20.087-27.177,20.087-45.49c0-10.968-3.5-21.958-10.52-33.028c-7.028-11.07-15.747-20.181-26.183-27.331
		c-10.41-7.173-27.031-15.41-49.751-24.656c-22.768-9.271-40.239-17.772-52.523-25.466c-12.272-7.729-22.897-16.904-31.858-27.557
		C68.58,159.588,62,148.964,57.836,138.417c-4.154-10.571-6.247-21.858-6.247-33.893c0-28.943,11.695-53.587,35.089-73.961
		C110.078,10.184,138.456,0,171.813,0c22.104,0,44.543,4.756,67.271,14.27c18.92,7.885,35.021,19.417,48.622,34.177
		c9.735,8.515,16.008,20.836,16.008,34.7c0,25.62-20.891,46.372-46.662,46.372c-25.753,0-46.654-20.752-46.654-46.372
		c0-6.795,1.578-13.194,4.2-19.011c-9.371-4.639-21.849-7.087-37.84-7.087c-19.938,0-36.125,4.478-48.517,13.425
		c-12.417,8.979-18.619,20.488-18.619,34.629c0,12.223,5.444,23.002,16.267,32.359c10.83,9.409,29.283,19.655,55.4,30.795
		c26.099,11.131,46.417,21.506,60.95,31.137c14.533,9.596,26.443,20.211,35.806,31.836c9.334,11.617,16.278,23.85,20.834,36.726
		c0.298,0.812,0.392,1.718,0.672,2.529c-19.761,16.354-32.623,40.669-32.623,68.233C266.929,355.015,271.67,370.081,279.334,383.233
		z M347.641,285.243c-29.72,0-53.802,23.951-53.802,53.476c0,29.523,24.082,53.475,53.802,53.475
		c29.721,0,53.803-23.941,53.803-53.475S377.361,285.243,347.641,285.243z"/>
</g>
<g>
</g>
<g>
</g>
<g>
</g>
<g>
</g>
<g>
</g>
<g>
</g>
<g>
</g>
<g>
</g>
<g>
</g>
<g>
</g>
<g>
</g>
<g>
</g>
<g>
</g>
<g>
</g>
<g>
</g>
</svg>
