<?xml version="1.0" encoding="iso-8859-1"?>
<!-- Generator: Adobe Illustrator 16.0.0, SVG Export Plug-In . SVG Version: 6.00 Build 0)  -->
<!DOCTYPE svg PUBLIC "-//W3C//DTD SVG 1.1//EN" "http://www.w3.org/Graphics/SVG/1.1/DTD/svg11.dtd">
<svg version="1.1" id="Capa_1" xmlns="http://www.w3.org/2000/svg" xmlns:xlink="http://www.w3.org/1999/xlink" x="0px" y="0px"
	 width="90px" height="90px" viewBox="0 0 90 90" style="enable-background:new 0 0 90 90;" xml:space="preserve">
<g>
	<path id="Grooveshark" d="M45,0C20.148,0,0,20.148,0,45c0,24.852,20.148,45,45,45c24.852,0,45-20.148,45-45
		C90,20.148,69.852,0,45,0z M69.234,58.846c-3.463,0-6.926-6.92-6.926-6.92s-4.92-17.316-27.69-20.772
		c2.004,31.148-9.518,27.407-13.854,27.692C16.438,59.131,13.928,52.85,13.928,45c0-17.158,13.914-31.071,31.072-31.071
		c17.16,0,30.66,13.913,31.07,31.071C76.154,48.463,72.691,58.846,69.234,58.846z"/>
</g>
<g>
</g>
<g>
</g>
<g>
</g>
<g>
</g>
<g>
</g>
<g>
</g>
<g>
</g>
<g>
</g>
<g>
</g>
<g>
</g>
<g>
</g>
<g>
</g>
<g>
</g>
<g>
</g>
<g>
</g>
</svg>
