<?xml version="1.0" encoding="iso-8859-1"?>
<!-- Generator: Adobe Illustrator 16.0.0, SVG Export Plug-In . SVG Version: 6.00 Build 0)  -->
<!DOCTYPE svg PUBLIC "-//W3C//DTD SVG 1.1//EN" "http://www.w3.org/Graphics/SVG/1.1/DTD/svg11.dtd">
<svg version="1.1" id="Capa_1" xmlns="http://www.w3.org/2000/svg" xmlns:xlink="http://www.w3.org/1999/xlink" x="0px" y="0px"
	 width="430.118px" height="430.118px" viewBox="0 0 430.118 430.118" style="enable-background:new 0 0 430.118 430.118;"
	 xml:space="preserve">
<g>
	<path id="Simplenote" d="M60.495,364.6C28.56,329.854,3.283,284.765,0,224.303c0-5.871,0-11.759,0-17.633
		c1.291-25.536,7.806-48.675,15.964-69.733c10.575-27.293,26.91-53.387,46.213-69.722c-0.019,13.056,0.324,25.531,1.673,33.603
		c4.086,24.507,17.745,51.345,34.453,68.044c13.534,13.534,31.68,22.829,50.404,32.756c37.362,19.828,72.899,37.339,110.045,57.118
		c23.896,12.741,48.491,28.479,55.44,53.773c9.833,35.764-11.028,68.934-27.728,86.523c-15.392,16.218-35.577,27.33-59.641,31.083
		c-9.518,0-19.039,0-28.562,0C139.268,423.521,92.558,399.481,60.495,364.6z M202.458,148.705
		c34.442,18.05,70.006,36.363,105.019,54.6c18.043,9.407,34.452,19.125,47.035,32.758c22.915,24.829,37.215,57.218,34.442,104.169
		c5.671-5.488,10.823-13.133,15.112-21.002c12.489-22.85,22.603-51.973,25.221-85.688c-0.14-0.984,0.168-1.493,0.831-1.68
		c0-11.206,0-22.407,0-33.605C415.323,80.076,334.909,9.113,221.779,0.002c-3.643,0-7.278,0-10.921,0
		c-22.103,3.699-43.637,10.013-56.278,24.374c-8.884,10.069-15.877,27.958-16.813,39.479
		C133.796,113.272,169.219,131.271,202.458,148.705z"/>
</g>
<g>
</g>
<g>
</g>
<g>
</g>
<g>
</g>
<g>
</g>
<g>
</g>
<g>
</g>
<g>
</g>
<g>
</g>
<g>
</g>
<g>
</g>
<g>
</g>
<g>
</g>
<g>
</g>
<g>
</g>
</svg>
