<?xml version="1.0" encoding="iso-8859-1"?>
<!-- Generator: Adobe Illustrator 16.0.0, SVG Export Plug-In . SVG Version: 6.00 Build 0)  -->
<!DOCTYPE svg PUBLIC "-//W3C//DTD SVG 1.1//EN" "http://www.w3.org/Graphics/SVG/1.1/DTD/svg11.dtd">
<svg version="1.1" id="Capa_1" xmlns="http://www.w3.org/2000/svg" xmlns:xlink="http://www.w3.org/1999/xlink" x="0px" y="0px"
	 width="90px" height="90px" viewBox="0 0 90 90" style="enable-background:new 0 0 90 90;" xml:space="preserve">
<g>
	<path id="Friendster" d="M36.849,15.577c6.207,5.292,8.569,14.571,6.207,22.327c-2.661,6.999-14.526,7.018-17.007-0.203
		c-2.545-7.234-1.446-16.431,3.994-22.108C31.939,13.682,35.018,13.348,36.849,15.577z M53.073,8.574
		c-6.392,2.949-6.741,11.591-6.489,17.756c0.481,5.645,2.162,14.12,9.251,14.353c8.14-3.266,7.956-13.801,6.824-21.087
		C61.959,14.705,59.099,7.701,53.073,8.574z M84.574,19.109c-3.462-0.887-8.604-1.106-10.168,2.931
		c-5.175,10.421-4.707,23.184-12.065,32.664c-5.938,7.201-15.474,12.262-24.959,10.669c-5.042-0.804-9.835-3.701-12.48-8.156
		c-5.348-8.854-5.581-20.425-11.88-28.64C-2.533,21.92-0.059,41.141,0.453,44.352c0.024,0.146,0.049,0.292,0.074,0.438
		c0,0.006,0.003,0.021,0.003,0.021l0,0c0.738,4.641,0.984,9.42,3.221,13.645c8.785,18.125,31.484,26.8,50.403,21.508
		C74.972,74.018,89.4,52.729,90,31.371C89.883,26.932,89.184,21.102,84.574,19.109z"/>
</g>
<g>
</g>
<g>
</g>
<g>
</g>
<g>
</g>
<g>
</g>
<g>
</g>
<g>
</g>
<g>
</g>
<g>
</g>
<g>
</g>
<g>
</g>
<g>
</g>
<g>
</g>
<g>
</g>
<g>
</g>
</svg>
