<?xml version="1.0" encoding="iso-8859-1"?>
<!-- Generator: Adobe Illustrator 16.0.0, SVG Export Plug-In . SVG Version: 6.00 Build 0)  -->
<!DOCTYPE svg PUBLIC "-//W3C//DTD SVG 1.1//EN" "http://www.w3.org/Graphics/SVG/1.1/DTD/svg11.dtd">
<svg version="1.1" id="Capa_1" xmlns="http://www.w3.org/2000/svg" xmlns:xlink="http://www.w3.org/1999/xlink" x="0px" y="0px"
	 width="430.119px" height="430.119px" viewBox="0 0 430.119 430.119" style="enable-background:new 0 0 430.119 430.119;"
	 xml:space="preserve">
<g>
	<path id="SmugMug" d="M173.936,32.259c0,17.831-18.62,32.268-41.553,32.268c-22.965,0-41.593-14.438-41.593-32.268
		C90.79,14.447,109.418,0,132.383,0C155.316,0,173.936,14.447,173.936,32.259z M319.444,0c-22.935,0-41.575,14.447-41.575,32.259
		c0,17.831,18.636,32.268,41.575,32.268c22.962,0,41.578-14.438,41.578-32.268C361.022,14.447,342.406,0,319.444,0z M430.119,164
		c0,31.762-71.075,266.119-253.808,266.119c-182.723,0-203.051-171.804-152.277-277.707c10.151-21.2,20.302-23.356,20.302-23.356
		h355.316C399.652,129.055,430.119,132.2,430.119,164z M387.042,172.071H61.167c-21.52,43.012-30.308,111.996-1.481,160.767
		c26.635,44.953,78.11,54.344,116.625,54.344C314.87,387.182,376.732,215.083,387.042,172.071z"/>
</g>
<g>
</g>
<g>
</g>
<g>
</g>
<g>
</g>
<g>
</g>
<g>
</g>
<g>
</g>
<g>
</g>
<g>
</g>
<g>
</g>
<g>
</g>
<g>
</g>
<g>
</g>
<g>
</g>
<g>
</g>
</svg>
