<?xml version="1.0" encoding="iso-8859-1"?>
<!-- Generator: Adobe Illustrator 16.0.0, SVG Export Plug-In . SVG Version: 6.00 Build 0)  -->
<!DOCTYPE svg PUBLIC "-//W3C//DTD SVG 1.1//EN" "http://www.w3.org/Graphics/SVG/1.1/DTD/svg11.dtd">
<svg version="1.1" id="Capa_1" xmlns="http://www.w3.org/2000/svg" xmlns:xlink="http://www.w3.org/1999/xlink" x="0px" y="0px"
	 width="90px" height="90px" viewBox="0 0 90 90" style="enable-background:new 0 0 90 90;" xml:space="preserve">
<g>
	<path id="Identi.ca" d="M0,42.56c-0.024,22.114,18.33,40.025,41.008,40.012c6.486-0.006,12.623-1.494,18.078-4.111L90,87.5
		L79.912,55.33c1.402-4.029,2.191-8.334,2.199-12.82C82.131,20.396,63.775,2.485,41.097,2.5C18.428,2.516,0.027,20.446,0,42.56z
		 M68.906,42.517c-0.006,3.387-0.672,6.614-1.842,9.606l5.199,14.513l0,0l0.008,0.021l0.459,1.292
		c0.006-0.007,0.012-0.017,0.018-0.023l1.793,4.744l-6.559-1.635l0,0l-14.076-4.439c-3.859,1.968-8.236,3.099-12.888,3.103
		c-15.377,0.008-27.83-12.141-27.813-27.142s12.5-27.167,27.881-27.178C56.472,15.365,68.923,27.516,68.906,42.517z"/>
</g>
<g>
</g>
<g>
</g>
<g>
</g>
<g>
</g>
<g>
</g>
<g>
</g>
<g>
</g>
<g>
</g>
<g>
</g>
<g>
</g>
<g>
</g>
<g>
</g>
<g>
</g>
<g>
</g>
<g>
</g>
</svg>
