<?xml version="1.0" encoding="iso-8859-1"?>
<!-- Generator: Adobe Illustrator 16.0.0, SVG Export Plug-In . SVG Version: 6.00 Build 0)  -->
<!DOCTYPE svg PUBLIC "-//W3C//DTD SVG 1.1//EN" "http://www.w3.org/Graphics/SVG/1.1/DTD/svg11.dtd">
<svg version="1.1" id="Capa_1" xmlns="http://www.w3.org/2000/svg" xmlns:xlink="http://www.w3.org/1999/xlink" x="0px" y="0px"
	 width="430.118px" height="430.118px" viewBox="0 0 430.118 430.118" style="enable-background:new 0 0 430.118 430.118;"
	 xml:space="preserve">
<g>
	<path id="Spotify" d="M75.936,378.883c33.108-47.721,88.122-79.069,150.604-79.069c56.892,0,107.571,25.986,141.202,66.646
		c38.536-38.872,62.376-92.334,62.376-151.391C430.118,96.29,333.836,0,215.059,0C96.289,0,0,96.29,0,215.069
		C0,280.734,29.526,339.446,75.936,378.883z M330.019,279.577c-3.127,6.973-8.718,8.387-15.271,5.362
		c-28.638-13.25-60.514-20.67-94.126-20.67c-34.506,0-67.171,7.821-96.398,21.725c-3.132,1.498-10.013,2.152-13.11-6.762
		c-3.097-8.924,1.797-13.969,4.611-15.271c31.893-14.916,67.381-23.382,104.897-23.382c36.856,0,72.326,7.01,103.203,22.598
		C328.693,265.642,333.141,272.604,330.019,279.577z M348.318,224.641c-2.227,3.118-5.689,5.279-9.811,5.279
		c-1.139,0-2.175-0.369-3.216-0.663c-35.097-15.506-73.847-24.215-114.675-24.215c-40.521,0-79.018,8.576-113.909,23.861
		c-1.263,0.443-2.562,0.83-3.977,0.83c-4.195,0-7.724-2.24-9.936-5.46l-2.322-6.973c0.042-3.617,1.729-6.746,4.256-8.975
		c38.445-17.257,81.011-26.979,125.892-26.979c44.86,0,87.4,9.698,125.839,26.959c2.576,2.194,4.224,5.421,4.289,9.041
		L348.318,224.641z M79.109,137.787c43.747-17.653,91.451-27.517,141.508-27.517c49.598,0,96.884,9.661,140.288,27.006
		c5.876,2.997,9.997,8.894,9.997,15.938c0,9.978-8.098,18.064-18.066,18.064c-1.396,0-2.712-0.311-4.009-0.616
		c-39.629-15.976-82.869-24.866-128.205-24.866c-45.373,0-88.646,8.9-128.286,24.904c-1.284,0.287-2.556,0.579-3.918,0.579
		c-9.969,0-18.064-8.086-18.064-18.064C70.349,146.643,73.88,140.946,79.109,137.787z M226.54,370.894
		c-36.424,0-68.683,17.553-89.265,44.496c24.157,9.385,50.318,14.729,77.784,14.729c34.042,0,66.1-8.116,94.705-22.196
		C289.19,385.221,259.536,370.894,226.54,370.894z"/>
</g>
<g>
</g>
<g>
</g>
<g>
</g>
<g>
</g>
<g>
</g>
<g>
</g>
<g>
</g>
<g>
</g>
<g>
</g>
<g>
</g>
<g>
</g>
<g>
</g>
<g>
</g>
<g>
</g>
<g>
</g>
</svg>
