<?xml version="1.0" encoding="iso-8859-1"?>
<!-- Generator: Adobe Illustrator 16.0.0, SVG Export Plug-In . SVG Version: 6.00 Build 0)  -->
<!DOCTYPE svg PUBLIC "-//W3C//DTD SVG 1.1//EN" "http://www.w3.org/Graphics/SVG/1.1/DTD/svg11.dtd">
<svg version="1.1" id="Capa_1" xmlns="http://www.w3.org/2000/svg" xmlns:xlink="http://www.w3.org/1999/xlink" x="0px" y="0px"
	 width="430.112px" height="430.112px" viewBox="0 0 430.112 430.112" style="enable-background:new 0 0 430.112 430.112;"
	 xml:space="preserve">
<g>
	<path id="Squarespace" d="M71.232,197.391L200.388,67.461c32.425-32.604,84.976-32.604,117.384,0
		c7.762,8.172,7.397,21.396-0.588,29.428c-8.111,8.163-21.226,8.163-29.355,0l-1.96-2.272c-16.298-13.899-40.753-13.11-56.136,2.373
		L97.675,229.817c-8.697,8.061-21.83,8.061-29.932-0.089c-8.109-8.144-8.109-21.37,0-29.519
		C68.833,199.125,69.995,198.189,71.232,197.391z M361.2,200.214c-8.111-8.149-21.23-8.149-29.342,0
		c-1.083,1.099-2.025,2.275-2.828,3.523l-128.637,129.4c-16.211,16.297-42.491,16.297-58.698,0l-0.588-0.094
		c-8.095-8.148-21.228-8.148-29.342,0c-8.097,8.135-8.097,21.375,0,29.505c1.036,1.041,2.14,1.951,3.307,2.74
		c32.593,29.935,83.142,29.066,114.661-2.637L361.2,229.733C369.297,221.59,369.297,208.363,361.2,200.214z M159.265,285.943
		c-1.23,0.812-2.404,1.746-3.479,2.829c-8.111,8.139-8.111,21.37,0,29.505c8.1,8.148,21.228,8.148,29.93,0.103l132.057-132.851
		c16.209-16.297,42.489-16.297,58.685,0c16.228,16.305,16.228,42.748,0,59.046L251.239,371.132
		c16.223,16.293,42.489,16.293,58.693,0l95.88-97.038c32.399-32.6,32.399-85.463,0-118.081c-32.403-32.583-84.959-32.583-117.386,0
		L159.265,285.943z M141.69,274.094L273.16,141.178c8.106-8.158,8.106-21.382,0-29.515c-8.097-8.158-21.244-8.158-29.342,0
		c-1.092,1.076-2.025,2.263-2.819,3.512L112.351,244.58c-16.209,16.307-42.48,16.307-58.682,0
		c-16.225-16.298-16.225-42.742,0-59.046L178.887,58.993c-16.202-16.312-42.491-16.312-58.698,0l-95.878,97.02
		c-32.415,32.618-32.415,85.481,0,118.081C56.729,306.708,109.299,306.708,141.69,274.094z"/>
</g>
<g>
</g>
<g>
</g>
<g>
</g>
<g>
</g>
<g>
</g>
<g>
</g>
<g>
</g>
<g>
</g>
<g>
</g>
<g>
</g>
<g>
</g>
<g>
</g>
<g>
</g>
<g>
</g>
<g>
</g>
</svg>
