<?xml version="1.0" encoding="iso-8859-1"?>
<!-- Generator: Adobe Illustrator 16.0.0, SVG Export Plug-In . SVG Version: 6.00 Build 0)  -->
<!DOCTYPE svg PUBLIC "-//W3C//DTD SVG 1.1//EN" "http://www.w3.org/Graphics/SVG/1.1/DTD/svg11.dtd">
<svg version="1.1" id="Capa_1" xmlns="http://www.w3.org/2000/svg" xmlns:xlink="http://www.w3.org/1999/xlink" x="0px" y="0px"
	 width="430.112px" height="430.112px" viewBox="0 0 430.112 430.112" style="enable-background:new 0 0 430.112 430.112;"
	 xml:space="preserve">
<g>
	<path id="Squidoo" d="M372.618,341.976c-5.592,18.715-23.308,29.962-39.559,25.08c-16.246-4.886-24.895-24.002-19.303-42.723
		c5.596-18.724,23.298-29.953,39.558-25.066C369.565,304.135,378.199,323.251,372.618,341.976z M304.067,429.427
		c-40.137-4.513-69.772-38.261-76.871-77.035c-4.467-24.306,0.63-42.139-15.39-48.131c-27.991-10.506-64.602,8.186-99.929,3.846
		c-32.427-3.99-56.614-28.549-57.655-69.325c-0.961-37.43,26.409-88.665-11.537-105.903c16.129,3.383,29.458,6.919,36.522,21.17
		c15.109,30.48-8.742,89.475,17.298,105.917c12.809,8.074,35.974,3.986,51.881,1.923c18.162-2.333,30.826-8.036,48.055-7.7
		c-10.011-13.651-25.615-16.876-36.513-25.029c-13.084-9.797-31.708-27.424-40.358-44.298
		c-15.154-29.521-12.527-82.722-34.602-102.062c-16.764-14.683-44.692-15.021-73.023-9.617c19.651-16.599,69.67-19.413,88.399-5.787
		c25.186,18.323,19.77,69.603,42.286,96.284c10.165,12.039,25.247,16.673,36.516,21.182c12.862,5.146,26.777,10.121,46.122,11.569
		c14.636-63.682-34.695-72.379-65.334-100.141C137.058,75.562,121.827,51.137,125.33,0c4.875,26.7,10.027,48.575,28.836,63.547
		c12.645,10.076,30.301,13.273,44.202,21.182c33.482,19.063,63.948,49.984,73.026,96.284c7.257-4.109,12.363-13.964,19.214-23.107
		c6.646-8.86,15.057-16.502,15.383-28.889c0.448-17.749-12.115-31.801-23.074-40.44c-26.732-21.091-75.94-15.742-65.341-73.173
		c4.771,14.297,5.812,30.24,17.308,38.515c16.419,11.831,42.335,11.808,61.493,23.106c16.849,9.925,42.405,32.133,42.274,61.62
		c-0.126,33.307-33.322,46.521-19.214,84.735c33.159,9.055,49.793,9.838,67.267,25.029
		C455.094,307.84,404.942,440.787,304.067,429.427z M396.233,349.919c13.096-43.861-7.137-88.675-45.225-100.091
		c-38.083-11.42-79.573,14.879-92.669,58.73c-13.105,43.88,7.141,88.693,45.224,100.104
		C341.647,420.093,383.146,393.771,396.233,349.919z"/>
</g>
<g>
</g>
<g>
</g>
<g>
</g>
<g>
</g>
<g>
</g>
<g>
</g>
<g>
</g>
<g>
</g>
<g>
</g>
<g>
</g>
<g>
</g>
<g>
</g>
<g>
</g>
<g>
</g>
<g>
</g>
</svg>
