<?xml version="1.0" encoding="iso-8859-1"?>
<!-- Generator: Adobe Illustrator 16.0.0, SVG Export Plug-In . SVG Version: 6.00 Build 0)  -->
<!DOCTYPE svg PUBLIC "-//W3C//DTD SVG 1.1//EN" "http://www.w3.org/Graphics/SVG/1.1/DTD/svg11.dtd">
<svg version="1.1" id="Capa_1" xmlns="http://www.w3.org/2000/svg" xmlns:xlink="http://www.w3.org/1999/xlink" x="0px" y="0px"
	 width="90px" height="90px" viewBox="0 0 90 90" style="enable-background:new 0 0 90 90;" xml:space="preserve">
<g>
	<path id="StumbleUpon" d="M90,69.598C90,78.092,83.086,85,74.589,85H72.07c-8.497,0-15.403-6.908-15.403-15.402V50.409
		c0-2.981-2.306-5.532-5.287-5.532H30.534C27.552,44.877,25,47.245,25,50c0,2.852,2.591,5.391,5.651,5.547l3.177,0.169
		c8.432,0.437,15.078,7.201,14.811,15.078C48.378,78.627,41.328,85,32.924,85H0V75h32.924c3.02,0,5.644-2.076,5.722-4.537
		c0.084-2.429-2.362-4.604-5.346-4.76l-3.17-0.169C21.791,65.104,15,58.131,15,50c0-8.269,6.914-15,15.409-15h20.847
		c8.497,0,15.411,6.914,15.411,15.409v19.188c0,2.98,2.422,5.402,5.403,5.402h2.519C77.572,75,80,72.578,80,69.598V5h8.887
		C89.271,5,89.622,5.091,90,5.111V69.598z"/>
</g>
<g>
</g>
<g>
</g>
<g>
</g>
<g>
</g>
<g>
</g>
<g>
</g>
<g>
</g>
<g>
</g>
<g>
</g>
<g>
</g>
<g>
</g>
<g>
</g>
<g>
</g>
<g>
</g>
<g>
</g>
</svg>
