<?xml version="1.0" encoding="iso-8859-1"?>
<!-- Generator: Adobe Illustrator 16.0.0, SVG Export Plug-In . SVG Version: 6.00 Build 0)  -->
<!DOCTYPE svg PUBLIC "-//W3C//DTD SVG 1.1//EN" "http://www.w3.org/Graphics/SVG/1.1/DTD/svg11.dtd">
<svg version="1.1" id="Capa_1" xmlns="http://www.w3.org/2000/svg" xmlns:xlink="http://www.w3.org/1999/xlink" x="0px" y="0px"
	 width="430.119px" height="430.119px" viewBox="0 0 430.119 430.119" style="enable-background:new 0 0 430.119 430.119;"
	 xml:space="preserve">
<g>
	<path id="Technorati" d="M70.07,13.375c20.176-2.308,40.55-0.903,60.819-1.428C110.4,37.635,92.579,67.14,89.678,100.62
		c-5.983,51.59,20.458,102.41,60.273,134.041c10.52,6.012,6.695,18.893,6.338,28.777c-2.543,24.539-6.188,48.958-7.92,73.581
		c31.16-18.043,59.06-41.621,90.959-58.217c64.434,12.19,134.603,4.816,190.688-31.078c-0.023,28.371,0.037,56.737,0.084,85.113
		c0.719,32.492-19.191,64.42-48.977,77.548c-13.712,6.917-29.31,8.163-44.417,7.701c-85.394-0.341-170.798,0.033-256.18-0.145
		c-42.846-0.275-80.313-38.635-80.442-81.385c-0.282-78.626,0.238-157.278,0.151-235.914C-2.081,59.652,30.126,20.675,70.07,13.375z
		 M182.579,68.676c-14.346,14.867-24.551,34.625-24.703,55.639c-1.591,28.564,14.323,55.75,36.56,72.694
		c47.114,35.812,115.665,38.65,166.858,9.896c28.268-15.724,51.394-44.827,51.818-78.262c1.082-29.626-16.12-57.492-39.819-74.2
		c-26.537-19.522-60.07-27.986-92.74-26.721C244.35,28.259,207.606,41.961,182.579,68.676z"/>
</g>
<g>
</g>
<g>
</g>
<g>
</g>
<g>
</g>
<g>
</g>
<g>
</g>
<g>
</g>
<g>
</g>
<g>
</g>
<g>
</g>
<g>
</g>
<g>
</g>
<g>
</g>
<g>
</g>
<g>
</g>
</svg>
