<?xml version="1.0" encoding="iso-8859-1"?>
<!-- Generator: Adobe Illustrator 16.0.0, SVG Export Plug-In . SVG Version: 6.00 Build 0)  -->
<!DOCTYPE svg PUBLIC "-//W3C//DTD SVG 1.1//EN" "http://www.w3.org/Graphics/SVG/1.1/DTD/svg11.dtd">
<svg version="1.1" id="Capa_1" xmlns="http://www.w3.org/2000/svg" xmlns:xlink="http://www.w3.org/1999/xlink" x="0px" y="0px"
	 width="430.118px" height="430.118px" viewBox="0 0 430.118 430.118" style="enable-background:new 0 0 430.118 430.118;"
	 xml:space="preserve">
<g>
	<path id="threewords.me" d="M236.658,173.123l113.84-131.789V0H88.117v103.033h52.962V49.124h119.937
		c8.518,0,21.917-1.802,21.917-1.802v1.19c0,0-9.735,7.203-16.433,15.595L161.787,188.095l13.994,31.146
		c3.052-0.583,14.011-1.186,25.578-1.186c52.353,0,94.972,28.161,94.972,78.478c0,46.722-40.183,80.269-88.282,80.269
		c-61.484,0-104.71-46.736-104.71-46.736l-31.652,42.536c0,0,51.142,57.517,139.405,57.517c89.506,0,147.34-63.5,147.34-135.979
		C358.422,212.651,290.227,178.518,236.658,173.123z"/>
</g>
<g>
</g>
<g>
</g>
<g>
</g>
<g>
</g>
<g>
</g>
<g>
</g>
<g>
</g>
<g>
</g>
<g>
</g>
<g>
</g>
<g>
</g>
<g>
</g>
<g>
</g>
<g>
</g>
<g>
</g>
</svg>
