<?xml version="1.0" encoding="iso-8859-1"?>
<!-- Generator: Adobe Illustrator 16.0.0, SVG Export Plug-In . SVG Version: 6.00 Build 0)  -->
<!DOCTYPE svg PUBLIC "-//W3C//DTD SVG 1.1//EN" "http://www.w3.org/Graphics/SVG/1.1/DTD/svg11.dtd">
<svg version="1.1" id="Capa_1" xmlns="http://www.w3.org/2000/svg" xmlns:xlink="http://www.w3.org/1999/xlink" x="0px" y="0px"
	 width="90px" height="90px" viewBox="0 0 90 90" style="enable-background:new 0 0 90 90;" xml:space="preserve">
<g>
	<path id="Tribe" d="M81.58,44.387c-0.848,0-1.662,0.131-2.434,0.363l-4.625-8.692c0.883-1.084,1.412-2.468,1.412-3.975
		c0-3.476-2.81-6.292-6.275-6.292c-2.051,0-3.865,0.988-5.01,2.513l-22.478-7.059c0.049-0.312,0.082-0.629,0.082-0.954
		c0-3.475-2.811-6.291-6.277-6.291c-3.465,0-6.277,2.816-6.277,6.291c0,0.479,0.061,0.944,0.16,1.394l-14.219,6.07
		c-1.471-2.461-4.15-4.113-7.219-4.113C3.771,23.642,0,27.42,0,32.083c0,4.66,3.771,8.439,8.422,8.439
		c1.486,0,2.881-0.39,4.092-1.067l13.9,17.139c-0.834,1.762-1.305,3.729-1.305,5.812C25.109,69.912,31.18,76,38.67,76
		c6.625,0,12.133-4.766,13.318-11.061h0.006l22.17-8.115c1.422,2.644,4.209,4.443,7.416,4.443c4.65,0,8.42-3.779,8.42-8.439
		C90,48.165,86.23,44.387,81.58,44.387z M16.709,33.534c0.064-0.384,0.101-0.777,0.117-1.177l14.5-7.853
		c1.148,1.273,2.803,2.078,4.65,2.078c1.686,0,3.211-0.669,4.34-1.752l3.746,1.245c-8.699,0.57-15.588,7.805-15.588,16.672
		c0,1.565,0.219,3.078,0.625,4.514L16.709,33.534z M30.773,51.367v-0.189c0.027,0.047,0.049,0.092,0.074,0.135
		C30.822,51.329,30.799,51.35,30.773,51.367z M49.484,54.227c-2.478-3.285-6.394-5.416-10.814-5.416
		c-1.324,0-2.602,0.199-3.813,0.556c-1.223-1.911-1.941-4.179-1.941-6.617c0-6.78,5.482-12.277,12.248-12.277
		c6.762,0,12.246,5.497,12.246,12.277C57.41,48.003,54.111,52.473,49.484,54.227z M73.627,50.073l-20.291,7.249l-0.008,0.001
		c5.082-2.866,8.523-8.313,8.523-14.575c0-5.09-2.277-9.642-5.857-12.709l7.406,2.46c0.215,3.28,2.934,5.875,6.258,5.875
		c0.504,0,0.99-0.065,1.463-0.178l4.822,8.375C74.904,47.516,74.096,48.715,73.627,50.073z"/>
</g>
<g>
</g>
<g>
</g>
<g>
</g>
<g>
</g>
<g>
</g>
<g>
</g>
<g>
</g>
<g>
</g>
<g>
</g>
<g>
</g>
<g>
</g>
<g>
</g>
<g>
</g>
<g>
</g>
<g>
</g>
</svg>
