<?xml version="1.0" encoding="iso-8859-1"?>
<!-- Generator: Adobe Illustrator 16.0.0, SVG Export Plug-In . SVG Version: 6.00 Build 0)  -->
<!DOCTYPE svg PUBLIC "-//W3C//DTD SVG 1.1//EN" "http://www.w3.org/Graphics/SVG/1.1/DTD/svg11.dtd">
<svg version="1.1" id="Capa_1" xmlns="http://www.w3.org/2000/svg" xmlns:xlink="http://www.w3.org/1999/xlink" x="0px" y="0px"
	 width="430.117px" height="430.117px" viewBox="0 0 430.117 430.117" style="enable-background:new 0 0 430.117 430.117;"
	 xml:space="preserve">
<g>
	<path id="TripIt" d="M265.048,233.349c-1.975-5.115-4.77-9.94-8.326-14.323c7.943-4.669,14.211-8.349,14.211-8.349l71.164-42.114
		c-0.821-2.527-1.278-5.234-1.278-8.039c0-14.407,11.714-26.084,26.163-26.084s26.164,11.677,26.164,26.084
		c0,14.4-11.715,26.075-26.164,26.075c-5.881,0-11.29-1.96-15.663-5.227c-15.821,10.16-38.027,23.795-71.938,43.632L265.048,233.349
		z M276.211,293.718c-2.431,0.69-4.807,2.016-7.089,3.804c-0.877-0.5-3.057-1.731-3.057-1.731c-2.357-1.242-5.12-2.688-11.995-7.263
		c-3.439,3.884-7.383,7.402-11.742,10.464l11.397,6.739c0.014,0.01,5.559,3.211,7.472,4.321c-0.387,1.699-0.69,3.342-0.69,4.812
		c0,2.049,0.28,4.116,0.85,6.146c3.341,11.798,15.448,18.748,26.989,15.494c5.475-1.54,10.039-5.161,12.849-10.184
		c1.881-3.318,2.856-7.084,2.856-10.888c0-2.096-0.28-4.182-0.859-6.217C299.854,297.433,287.734,290.47,276.211,293.718z
		 M255.504,249.437c-2.786-24.624-28.591-41.943-57.669-38.684c-29.066,3.27-50.372,25.877-47.59,50.51
		c2.786,24.623,28.607,41.947,57.669,38.676C236.98,296.686,258.29,274.069,255.504,249.437z M397.606,225.653
		c-15.046,0-27.671,10.211-31.381,24.054c-29.739-0.467-63.562-0.803-97.836-0.942c0.135,2.072,0.145,4.153,0.032,6.254
		c-0.2,3.486-0.77,6.897-1.652,10.225c34.663-0.135,68.887-0.471,98.942-0.928c2.922,14.901,16.083,26.154,31.895,26.154
		c17.955,0,32.511-14.506,32.511-32.404S415.562,225.653,397.606,225.653z M151.626,292.438c-2.179-2.348-4.091-4.858-5.782-7.463
		c-12.947,7.948-24.197,15.084-33.521,21.273c-4.931-4.69-11.241-7.201-17.912-6.945c-6.637,0.267-12.783,3.085-17.301,7.935
		c-4.501,4.858-6.856,11.168-6.604,17.791c0.542,13.665,12.116,24.348,25.828,23.825c13.413-0.514,23.923-11.406,23.923-24.773
		l-0.023-0.961c-0.054-1.508-0.417-3.179-0.866-4.924c0.716-0.415,19.035-11.028,36.852-21.352
		C154.608,295.463,153.073,293.997,151.626,292.438z M58.616,180.167c4.405,2.952,9.695,4.028,14.916,3.005
		c2.742-0.522,5.386-1.874,7.932-3.804c1.267,0.982,25.23,19.527,25.23,19.527l39.369,30.331l0.038,0.028
		c2.844-4.704,6.387-9.05,10.461-12.938l-0.261-0.196c-34.877-27.057-55.844-40.807-67.472-47.674c0.437-1.659,0.77-3.26,0.77-4.697
		l-0.373-3.801c-2.098-10.708-12.555-17.73-23.303-15.63c-5.213,1.013-9.722,3.99-12.688,8.387
		c-2.233,3.302-3.398,7.105-3.398,11.005c0,1.276,0.124,2.558,0.385,3.838C51.247,172.735,54.229,177.218,58.616,180.167z
		 M199.627,156.118c-0.378,11.679-0.688,26.586-0.903,40.918c2.618-0.287,5.276-0.446,7.966-0.446c2.649,0,5.267,0.154,7.843,0.446
		c-0.219-14.333-0.511-29.218-0.889-40.918c18.001-3.356,30.984-18.701,30.984-36.996c0-20.878-17.049-37.878-38.006-37.878
		c-20.955,0-37.988,17-37.988,37.878C168.635,137.417,181.624,152.771,199.627,156.118z M138.068,254.673
		c0.1-1.956,0.315-3.893,0.653-5.797c-29.879,0.187-58.458,0.504-83.064,0.915c-2.595-12.812-13.945-22.458-27.548-22.458
		C12.587,227.333,0,239.878,0,255.363c0,15.462,12.587,27.998,28.109,27.998c12.408,0,22.927-8.022,26.645-19.149
		c24.731,0.411,53.506,0.729,83.629,0.915C137.896,261.688,137.781,258.191,138.068,254.673z"/>
</g>
<g>
</g>
<g>
</g>
<g>
</g>
<g>
</g>
<g>
</g>
<g>
</g>
<g>
</g>
<g>
</g>
<g>
</g>
<g>
</g>
<g>
</g>
<g>
</g>
<g>
</g>
<g>
</g>
<g>
</g>
</svg>
