<?xml version="1.0" encoding="iso-8859-1"?>
<!-- Generator: Adobe Illustrator 16.0.0, SVG Export Plug-In . SVG Version: 6.00 Build 0)  -->
<!DOCTYPE svg PUBLIC "-//W3C//DTD SVG 1.1//EN" "http://www.w3.org/Graphics/SVG/1.1/DTD/svg11.dtd">
<svg version="1.1" id="Capa_1" xmlns="http://www.w3.org/2000/svg" xmlns:xlink="http://www.w3.org/1999/xlink" x="0px" y="0px"
	 width="430.117px" height="430.117px" viewBox="0 0 430.117 430.117" style="enable-background:new 0 0 430.117 430.117;"
	 xml:space="preserve">
<g>
	<path id="Viddler" d="M326.257,241.727c57.349,0,103.86-46.104,103.86-102.961c0-56.819-46.512-102.923-103.86-102.923
		c-52.169,0-95.312,38.118-102.676,87.783h-3.328c-7.406-49.665-50.554-87.783-102.71-87.783
		c-57.361,0-103.826,46.104-103.826,102.923c0,56.327,45.625,102.093,102.253,102.923v0.038h3.125v35.092L0,244.825v136.913
		l119.099-35.517v48.053h175.039l-51.319-152.548h83.205C326.098,241.727,326.178,241.727,326.257,241.727z M117.542,167.842
		c-16.202,0-29.339-12.991-29.339-29.076c0-16.05,13.138-29.071,29.339-29.071c16.186,0,29.319,13.021,29.319,29.071
		C146.856,154.851,133.723,167.842,117.542,167.842z M299.066,138.766c0-16.05,13.096-29.071,29.285-29.071
		c16.228,0,29.37,13.021,29.37,29.071c0,16.085-13.133,29.108-29.37,29.108C312.162,167.874,299.066,154.851,299.066,138.766z"/>
</g>
<g>
</g>
<g>
</g>
<g>
</g>
<g>
</g>
<g>
</g>
<g>
</g>
<g>
</g>
<g>
</g>
<g>
</g>
<g>
</g>
<g>
</g>
<g>
</g>
<g>
</g>
<g>
</g>
<g>
</g>
</svg>
