<?xml version="1.0" encoding="iso-8859-1"?>
<!-- Generator: Adobe Illustrator 16.0.0, SVG Export Plug-In . SVG Version: 6.00 Build 0)  -->
<!DOCTYPE svg PUBLIC "-//W3C//DTD SVG 1.1//EN" "http://www.w3.org/Graphics/SVG/1.1/DTD/svg11.dtd">
<svg version="1.1" id="Capa_1" xmlns="http://www.w3.org/2000/svg" xmlns:xlink="http://www.w3.org/1999/xlink" x="0px" y="0px"
	 width="430.118px" height="430.118px" viewBox="0 0 430.118 430.118" style="enable-background:new 0 0 430.118 430.118;"
	 xml:space="preserve">
<g>
	<path id="Vimeo" d="M367.243,28.754c-59.795-1.951-100.259,31.591-121.447,100.664c10.912-4.494,21.516-6.762,31.858-6.762
		c21.804,0,31.455,12.237,28.879,36.776c-1.278,14.86-10.911,36.482-28.879,64.858c-18.039,28.423-31.513,42.61-40.464,42.61
		c-11.621,0-22.199-21.958-31.857-65.82c-3.239-12.918-9.031-45.812-17.324-98.765c-7.775-49.046-28.32-71.962-61.727-68.741
		C112.15,34.873,90.98,47.815,62.726,72.308C42.113,91.032,21.228,109.761,0,128.471l20.225,26.112
		c19.303-13.562,30.595-20.311,33.731-20.311c14.802,0,28.625,23.219,41.488,69.651c11.53,42.644,23.158,85.23,34.744,127.812
		c17.256,46.466,38.529,69.708,63.552,69.708c40.473,0,90.028-38.065,148.469-114.223c56.537-72.909,85.725-130.352,87.694-172.341
		C432.498,58.764,411.613,30.028,367.243,28.754z"/>
</g>
<g>
</g>
<g>
</g>
<g>
</g>
<g>
</g>
<g>
</g>
<g>
</g>
<g>
</g>
<g>
</g>
<g>
</g>
<g>
</g>
<g>
</g>
<g>
</g>
<g>
</g>
<g>
</g>
<g>
</g>
</svg>
