<?xml version="1.0" encoding="iso-8859-1"?>
<!-- Generator: Adobe Illustrator 16.0.0, SVG Export Plug-In . SVG Version: 6.00 Build 0)  -->
<!DOCTYPE svg PUBLIC "-//W3C//DTD SVG 1.1//EN" "http://www.w3.org/Graphics/SVG/1.1/DTD/svg11.dtd">
<svg version="1.1" id="Capa_1" xmlns="http://www.w3.org/2000/svg" xmlns:xlink="http://www.w3.org/1999/xlink" x="0px" y="0px"
	 width="430.117px" height="430.117px" viewBox="0 0 430.117 430.117" style="enable-background:new 0 0 430.117 430.117;"
	 xml:space="preserve">
<g>
	<path id="W3" d="M159.324,54.959l57.051,194.523l57.068-194.523h41.305h98.004v19.947l-50.55,100.61
		c20.442,6.595,39.773,18.591,50.265,35.92c10.492,17.362,17.65,37.767,17.65,61.167c0,28.945-6.72,53.242-22.074,72.983
		c-15.337,19.705-34.714,29.571-59.123,29.571c-18.369,0-34.098-5.862-47.754-17.544c-13.642-11.714-23.597-27.55-30.149-47.562
		l32.297-13.394c4.732,12.105,10.986,21.617,18.743,28.6c7.719,6.973,16.848,10.426,27.34,10.426c11.027,0,20.362-6.17,27.96-18.519
		c7.598-12.387,11.42-27.232,11.42-44.599c0-19.191-4.098-39.895-12.214-50.391c-9.441-12.389-24.269-24.378-44.472-24.378h-27.163
		v-7.295l66.506-99.838h-66.487l-3.78,0.31l-80.861,267.513h-3.93l-59.039-198.078L98.344,358.496h-3.948L0,54.959h41.296
		l57.053,194.832l38.548-131.175l-18.888-63.657H159.324z"/>
</g>
<g>
</g>
<g>
</g>
<g>
</g>
<g>
</g>
<g>
</g>
<g>
</g>
<g>
</g>
<g>
</g>
<g>
</g>
<g>
</g>
<g>
</g>
<g>
</g>
<g>
</g>
<g>
</g>
<g>
</g>
</svg>
