<?xml version="1.0" encoding="iso-8859-1"?>
<!-- Generator: Adobe Illustrator 16.0.0, SVG Export Plug-In . SVG Version: 6.00 Build 0)  -->
<!DOCTYPE svg PUBLIC "-//W3C//DTD SVG 1.1//EN" "http://www.w3.org/Graphics/SVG/1.1/DTD/svg11.dtd">
<svg version="1.1" id="Capa_1" xmlns="http://www.w3.org/2000/svg" xmlns:xlink="http://www.w3.org/1999/xlink" x="0px" y="0px"
	 width="90px" height="90px" viewBox="0 0 90 90" style="enable-background:new 0 0 90 90;" xml:space="preserve">
<g>
	<path id="Windows" d="M18.373,8.481C24.043,6.22,29.017,5.084,33.569,5c2.39,0,4.646,0.257,6.785,0.754
		c3.256,0.831,7.762,3.271,9.479,4.251l-8.152,27.759c-4.154-2.649-9.167-5.222-15.946-5.291h-0.006
		c-4.521,0-9.433,1.041-15.125,3.178L18.373,8.481z M31.14,75.052c2.016-6.815,6.857-23.274,8.302-28.194
		c-1.048-0.637-2.116-1.274-3.209-1.864c-4.195-2.145-8.271-3.232-12.12-3.232c-0.522,0-1.046,0.016-1.576,0.062
		c-4.912,0.404-9.395,1.695-12.283,2.697c-0.766,0.279-1.546,0.574-2.357,0.901L0,72.658c5.427-1.998,10.222-2.969,14.617-2.969
		C21.723,69.689,26.877,72.332,31.14,75.052z M79.216,54.753c-5.153,1.655-10.096,2.494-14.719,2.494
		c-8.433,0-14.337-2.72-18.062-5.331l-7.948,27.48C40.846,80.74,48.777,85,54.854,85c4.904,0,10.394-1.252,16.772-3.832
		L79.216,54.753z M90,17.543c-5.17,1.998-10.214,3.016-15.032,3.016c-8.058,0-14-2.781-17.85-5.455L49.036,42.94
		c5.428,3.474,11.276,5.237,17.414,5.237c5.005,0,10.188-1.196,15.421-3.559l-0.016-0.193l0.328-0.079L90,17.543z"/>
</g>
<g>
</g>
<g>
</g>
<g>
</g>
<g>
</g>
<g>
</g>
<g>
</g>
<g>
</g>
<g>
</g>
<g>
</g>
<g>
</g>
<g>
</g>
<g>
</g>
<g>
</g>
<g>
</g>
<g>
</g>
</svg>
