<?xml version="1.0" encoding="iso-8859-1"?>
<!-- Generator: Adobe Illustrator 16.0.0, SVG Export Plug-In . SVG Version: 6.00 Build 0)  -->
<!DOCTYPE svg PUBLIC "-//W3C//DTD SVG 1.1//EN" "http://www.w3.org/Graphics/SVG/1.1/DTD/svg11.dtd">
<svg version="1.1" id="Capa_1" xmlns="http://www.w3.org/2000/svg" xmlns:xlink="http://www.w3.org/1999/xlink" x="0px" y="0px"
	 width="430.118px" height="430.118px" viewBox="0 0 430.118 430.118" style="enable-background:new 0 0 430.118 430.118;"
	 xml:space="preserve">
<g>
	<path id="Wists" d="M0,11.948c38.473,0,76.939,0,115.405,0c3.414,72.321,14.491,123.458,20.561,190.627
		c8.095-50.127,14.001-128.524,21.401-190.627c38.471,0,76.92,0,115.391,0c1.555,74.342,7.621,114.425,10.655,189.619
		c12.106-56.136,22.206-125.323,31.307-189.619c38.466,0,76.937,0,115.398,0c-19.22,133.67-31.644,274.126-52.458,406.223
		c-45.448,0-90.92,0-136.372,0c-6.353-47.161-14.431-97.275-21.497-155.441c-10.099,51.137-20.196,106.293-30.963,155.441
		c-45.455,0-90.917,0-136.372,0C31.438,286.279,12.272,152.525,0,11.948z"/>
</g>
<g>
</g>
<g>
</g>
<g>
</g>
<g>
</g>
<g>
</g>
<g>
</g>
<g>
</g>
<g>
</g>
<g>
</g>
<g>
</g>
<g>
</g>
<g>
</g>
<g>
</g>
<g>
</g>
<g>
</g>
</svg>
