<?xml version="1.0" encoding="iso-8859-1"?>
<!-- Generator: Adobe Illustrator 16.0.0, SVG Export Plug-In . SVG Version: 6.00 Build 0)  -->
<!DOCTYPE svg PUBLIC "-//W3C//DTD SVG 1.1//EN" "http://www.w3.org/Graphics/SVG/1.1/DTD/svg11.dtd">
<svg version="1.1" id="Capa_1" xmlns="http://www.w3.org/2000/svg" xmlns:xlink="http://www.w3.org/1999/xlink" x="0px" y="0px"
	 width="90.195px" height="90.195px" viewBox="0 0 90.195 90.195" style="enable-background:new 0 0 90.195 90.195;"
	 xml:space="preserve">
<g>
	<path id="WordPress__x28_alt_x29_" d="M5.182,23.154C12.688,9.154,27.74,0,45.098,0C56.334,0,66.6,4.788,74.484,11.546
		c-2.253-0.436-4.713,0.054-7.189,1.471c-5.801,3.326-7.696,12.74-0.176,17.468c4.696,2.935,6.367,10.283,6.209,14.771
		c-0.154,4.495-10.916,25.139-10.916,25.139L51.934,34.414c0,0-0.361-2.524-0.361-3.252c0-0.918,0.303-2.042,0.869-2.684
		c0.391-0.427,0.986-1.324,1.69-1.324h4.966v-4h-27v4h0.837c0.884,0,1.749,1.189,2.583,2.043c0.986,1.018,2.227,4.848,3.73,8.821
		l3.926,12.933l-8.461,19.552L25.43,31.426c0,0,0.274-2.678,0.835-3.133c0.366-0.313,0.928-1.139,1.578-1.139h0.255v-4H5.182z
		 M10.475,29.945c0,0-2.184-2.791-4.502-2.791H3.621c-2.269,5-3.523,11.715-3.523,17.87c0,18.514,11.354,34.393,27.529,41.159
		L10.475,29.945z M83.822,22.798c0.855,4.057,0.678,8.979-0.99,14.393c-4.351,14.086-15.121,39.428-19.291,49.081
		c15.652-6.988,26.557-22.591,26.557-40.729C90.098,37.235,87.804,29.46,83.822,22.798z M46.007,60.835L34.501,88.938
		c3.398,0.814,6.944,1.258,10.596,1.258c3.781,0,7.449-0.469,10.957-1.34L46.007,60.835z"/>
</g>
<g>
</g>
<g>
</g>
<g>
</g>
<g>
</g>
<g>
</g>
<g>
</g>
<g>
</g>
<g>
</g>
<g>
</g>
<g>
</g>
<g>
</g>
<g>
</g>
<g>
</g>
<g>
</g>
<g>
</g>
</svg>
