<?xml version="1.0" encoding="iso-8859-1"?>
<!-- Generator: Adobe Illustrator 16.0.0, SVG Export Plug-In . SVG Version: 6.00 Build 0)  -->
<!DOCTYPE svg PUBLIC "-//W3C//DTD SVG 1.1//EN" "http://www.w3.org/Graphics/SVG/1.1/DTD/svg11.dtd">
<svg version="1.1" id="Capa_1" xmlns="http://www.w3.org/2000/svg" xmlns:xlink="http://www.w3.org/1999/xlink" x="0px" y="0px"
	 width="430.117px" height="430.117px" viewBox="0 0 430.117 430.117" style="enable-background:new 0 0 430.117 430.117;"
	 xml:space="preserve">
<g>
	<path id="Yahoo_x21_" d="M346.46,149.82c-10.528,2.837-106.824,77.513-113.172,95.836c-1.399,6.328,0.141,67.7,1.54,76.903
		c6.348,1.41,52.155,0.183,60.561,1.587l-1.008,18.972c-8.233-0.639-66.441-0.489-99.652-0.489c-16.881,0-71.138,1.866-87.802,1.381
		l3.15-18.057c9.145-0.677,46.981,1.685,55.274-7.155c4.124-4.396,2.828-62.721,1.428-72.582
		c-3.503-10.548-87.893-116.287-109.942-133.611H0V86.023h191.684v1.834c0.168,0,0.488,0.03,0.651,0.063l-0.651,4.492v20.192
		h-57.802c25.762,37.673,62.7,83.156,78.454,105.012l77.206-69.967h-45.892l-6.464-26.553h168.104l-1.241,1.893
		c0.13,0,0.41,0.03,0.593,0.03l-12.009,17.417c-0.107,0-0.289,0.03-0.383,0.059l-4.845,7.154h-31.008
		C352.383,148.534,348.85,149.323,346.46,149.82z M401.312,316.297l-14.842-0.732l-16.559-2.021l0.141,28.386l13.059,1.125
		l14.075,1.04L401.312,316.297z M430.117,180.611c-5.007-0.177-50.544-4.487-56.462-5.659l0.7,119.918l25.771,2.082L430.117,180.611
		z"/>
</g>
<g>
</g>
<g>
</g>
<g>
</g>
<g>
</g>
<g>
</g>
<g>
</g>
<g>
</g>
<g>
</g>
<g>
</g>
<g>
</g>
<g>
</g>
<g>
</g>
<g>
</g>
<g>
</g>
<g>
</g>
</svg>
