<?xml version="1.0" encoding="iso-8859-1"?>
<!-- Generator: Adobe Illustrator 16.0.0, SVG Export Plug-In . SVG Version: 6.00 Build 0)  -->
<!DOCTYPE svg PUBLIC "-//W3C//DTD SVG 1.1//EN" "http://www.w3.org/Graphics/SVG/1.1/DTD/svg11.dtd">
<svg version="1.1" id="Capa_1" xmlns="http://www.w3.org/2000/svg" xmlns:xlink="http://www.w3.org/1999/xlink" x="0px" y="0px"
	 width="90px" height="90px" viewBox="0 0 90 90" style="enable-background:new 0 0 90 90;" xml:space="preserve">
<g>
	<path id="Yahoo_x21__Messenger" d="M45.001,90C69.855,90,90,69.852,90,45C90,20.146,69.855,0,45.001,0C20.146,0,0,20.146,0,45
		C0,69.852,20.146,90,45.001,90z M56.486,20.391c3.238,0,5.863,2.621,5.863,5.859c0,3.234-2.625,5.857-5.863,5.857
		c-3.234,0-5.857-2.623-5.857-5.857C50.629,23.012,53.252,20.391,56.486,20.391z M34.221,20.391c3.236,0,5.861,2.621,5.861,5.859
		c0,3.234-2.625,5.857-5.861,5.857c-3.236,0-5.859-2.623-5.859-5.857C28.361,23.012,30.984,20.391,34.221,20.391z M13.36,39.139
		h63.281v11.724H76.51C75.195,67.127,61.605,79.92,44.998,79.92c-16.604,0-30.193-12.793-31.504-29.059H13.36V39.139z
		 M72.344,49.613H16.899v-7.215h55.444L72.344,49.613L72.344,49.613z"/>
</g>
<g>
</g>
<g>
</g>
<g>
</g>
<g>
</g>
<g>
</g>
<g>
</g>
<g>
</g>
<g>
</g>
<g>
</g>
<g>
</g>
<g>
</g>
<g>
</g>
<g>
</g>
<g>
</g>
<g>
</g>
</svg>
