<?xml version="1.0" encoding="iso-8859-1"?>
<!-- Generator: Adobe Illustrator 16.0.0, SVG Export Plug-In . SVG Version: 6.00 Build 0)  -->
<!DOCTYPE svg PUBLIC "-//W3C//DTD SVG 1.1//EN" "http://www.w3.org/Graphics/SVG/1.1/DTD/svg11.dtd">
<svg version="1.1" id="Capa_1" xmlns="http://www.w3.org/2000/svg" xmlns:xlink="http://www.w3.org/1999/xlink" x="0px" y="0px"
	 width="430.119px" height="430.119px" viewBox="0 0 430.119 430.119" style="enable-background:new 0 0 430.119 430.119;"
	 xml:space="preserve">
<g>
	<path id="Yelp" d="M108.716,19.591c21.693-17.051,63.4-21.938,80.561-18.61c17.177,3.307,26.147,12.914,26.257,24.612l0.99,149.155
		c0.077,11.714-6.004,22.481-13.525,23.931c-7.561,1.418-18.687-5.544-24.803-15.509L99.938,55.275
		C93.868,45.297,81.633,40.896,108.716,19.591z M82.732,303.211l78.788-27.881c10.979-3.893,20.812-14.725,21.917-24.138
		c1.066-9.409-6.915-20.582-17.74-24.866l-83.228-33.001c-10.833-4.282-23.331,5.873-26.628,22.49c0,0-1.979,57.867,0,69.848
		C57.843,297.634,71.755,307.122,82.732,303.211z M220.164,317.143c0.231-11.747-6.04-21.879-13.936-22.603
		c-7.899-0.733-20.439,6.007-27.928,14.953l-54.959,65.904c-7.484,8.956-3.766,29.99,7.141,33.972l57.468,19.961
		c10.939,3.98,30.203-7.799,30.427-19.509L220.164,317.143z M356.781,301.802l-68.914-19.812
		c-11.173-3.211-23.858-2.908-28.151,0.728c-4.299,3.594-3.234,14.954,2.395,25.207l43.492,79.598
		c5.624,10.249,28.114,8.494,34.308-1.452c0,0,26.215-38.676,31.036-53.172C375.767,318.37,367.945,305.013,356.781,301.802z
		 M373.564,189.878c-3.104-10.069-24.651-39.756-36.319-49.875c-11.658-10.141-24.992-8.87-32.511,0.033l-44.412,52.906
		c-7.523,8.902-9.535,23.022-4.518,31.325c5.013,8.303,18.388,13.007,29.738,10.459l76.82-14.244
		C376.229,217.155,376.719,199.947,373.564,189.878z"/>
</g>
<g>
</g>
<g>
</g>
<g>
</g>
<g>
</g>
<g>
</g>
<g>
</g>
<g>
</g>
<g>
</g>
<g>
</g>
<g>
</g>
<g>
</g>
<g>
</g>
<g>
</g>
<g>
</g>
<g>
</g>
</svg>
