<?xml version="1.0" encoding="iso-8859-1"?>
<!-- Generator: Adobe Illustrator 16.0.0, SVG Export Plug-In . SVG Version: 6.00 Build 0)  -->
<!DOCTYPE svg PUBLIC "-//W3C//DTD SVG 1.1//EN" "http://www.w3.org/Graphics/SVG/1.1/DTD/svg11.dtd">
<svg version="1.1" id="Capa_1" xmlns="http://www.w3.org/2000/svg" xmlns:xlink="http://www.w3.org/1999/xlink" x="0px" y="0px"
	 width="90px" height="90px" viewBox="0 0 90 90" style="enable-background:new 0 0 90 90;" xml:space="preserve">
<g>
	<path id="Zerply" d="M13.593,71.098c0.922,0,1.844,0,2.766,0c6.869,0,12.725,0.188,19.07,3.453
		c4.875,2.507,8.904,6.521,13.653,9.314c4.503,2.646,9.645,5.426,14.917,6.049c10.615,1.256,14.882-11.58,13.115-19.902
		c-4.729,3.812-11.325,3.714-17.371,2.058C54.054,70.172,45,64.276,45,64.276v0.003c-4.061-2.537-8.829-4.634-13.617-4.417
		c0-2.163,0.063-2.245,1.377-3.772c1.809-2.094,3.617-4.19,5.426-6.287c5.689-6.597,11.379-13.192,17.069-19.787
		c4.844-5.613,9.684-11.225,14.526-16.839c0.464-0.536,2.171-1.916,2.257-2.657c0.294-2.549,0.589-5.098,0.884-7.646
		c0.206-1.768-1.628-1.344-1.628-1.344l-0.003-0.009c-7.853,1.597-15.921,2.43-23.926,2.063c-4.453-0.203-9.14-0.628-13.32-2.291
		c-0.15-0.061-1.035-0.513-1.866-0.968c-1.204-0.623-2.012-0.221-2.438,0.142c-0.338,0.421-0.695,0.826-1.014,1.259
		c-2.104,2.872-4.061,6.247-4.418,9.853c-0.081,0.804-0.18,2.5,0.262,3.521l-0.004,0.001c0,0,0.049,0.124,0.182,0.322
		c0.023,0.031,0.041,0.065,0.064,0.094c1.002,1.384,5.615,5.549,23.631,1.938C36.721,31.291,24.997,45.127,13.273,58.963
		c-0.002,0.002-0.002,0.002-0.002,0.004c-0.653,0.771-0.76,2.031-0.76,2.031c0,2.455,0,4.908,0,7.362
		c0,0.089-0.008,0.632-0.012,1.211C12.729,70.808,13.278,71.057,13.593,71.098z"/>
</g>
<g>
</g>
<g>
</g>
<g>
</g>
<g>
</g>
<g>
</g>
<g>
</g>
<g>
</g>
<g>
</g>
<g>
</g>
<g>
</g>
<g>
</g>
<g>
</g>
<g>
</g>
<g>
</g>
<g>
</g>
</svg>
