<?xml version="1.0" encoding="iso-8859-1"?>
<!-- Generator: Adobe Illustrator 16.0.0, SVG Export Plug-In . SVG Version: 6.00 Build 0)  -->
<!DOCTYPE svg PUBLIC "-//W3C//DTD SVG 1.1//EN" "http://www.w3.org/Graphics/SVG/1.1/DTD/svg11.dtd">
<svg version="1.1" id="Capa_1" xmlns="http://www.w3.org/2000/svg" xmlns:xlink="http://www.w3.org/1999/xlink" x="0px" y="0px"
	 width="430.117px" height="430.118px" viewBox="0 0 430.117 430.118" style="enable-background:new 0 0 430.117 430.118;"
	 xml:space="preserve">
<g>
	<path id="Zootool" d="M89.131,305.61c11.919,0,31.496-10.445,43.835-21.776c65.085,125.829,83.38,146.284,128.046,146.284
		c48.496,0,97.421-37.005,97.421-70.515c0-11.332-5.955-21.343-11.896-24.386c-20.423,11.309-38.723,17.413-55.314,17.413
		c-21.272,0-33.183-9.586-100.82-111.454c51.462-45.275,81.686-75.317,120.8-132.347c33.622-22.638,46.802-42.669,46.802-60.948
		c0-15.669-13.18-36.564-30.182-36.564c-8.103,0-14.478,7.84-22.985,21.338C242.298,8.268,212.944,0,180.613,0
		C150.41,0,125.73,26.983,125.73,58.334c0,17.854,7.231,27.853,18.286,31.337c14.456-8.695,26.38-12.183,34.025-12.183
		c20.01,0,51.062,9.143,89.342,20.899c-19.136,28.292-68.91,80.547-104.648,109.28c-13.612-11.766-22.129-16.111-34.448-16.111
		c-39.577,0-56.604,47.006-56.604,76.185C71.684,297.339,78.5,305.61,89.131,305.61z"/>
</g>
<g>
</g>
<g>
</g>
<g>
</g>
<g>
</g>
<g>
</g>
<g>
</g>
<g>
</g>
<g>
</g>
<g>
</g>
<g>
</g>
<g>
</g>
<g>
</g>
<g>
</g>
<g>
</g>
<g>
</g>
</svg>
