<svg xmlns="http://www.w3.org/2000/svg" viewBox="0 0 1100 800"><defs><style>.cls-1,.cls-25{opacity:0.5;}.cls-2{fill:#eed5d5;}.cls-3{fill:#e5d1bd;}.cls-4{fill:orange;}.cls-5{fill:#eacdb0;}.cls-6{fill:#292949;}.cls-7{fill:#1a3151;}.cls-25,.cls-8{fill:#fff;}.cls-9{fill:#474ebb;}.cls-10{fill:#353a85;}.cls-11{fill:#5d66d3;}.cls-12{fill:#8cabef;}.cls-13{fill:#dddae8;}.cls-13,.cls-14,.cls-24{opacity:0.2;}.cls-15,.cls-24{fill:#3b3387;}.cls-16{fill:gray;opacity:0.49;}.cls-17{fill:#f7f7f7;}.cls-18{fill:#babcbe;}.cls-19{fill:#e8e8e8;}.cls-20{fill:#3b455a;opacity:0.25;}.cls-21{fill:#aab4b5;}.cls-22{fill:#b1b1b2;}.cls-23{fill:#ddd;}.cls-26{fill:#f6f7f7;}.cls-27{fill:#edeced;}.cls-28{fill:#c4c4c4;}.cls-29{fill:#c2c2c4;}.cls-30{fill:#9e9e9e;}</style></defs><title>Artboard 186</title><g id="shadow"><g class="cls-1"><path class="cls-2" d="M523.05,648.77c-27.11.08-54.22.76-81.28,3.89-10.2,1.18-20.19,3.78-30.42,4.82-20.43,2.09-40.49,6-61,7.79-16.51,1.45-33.09,2.3-49.55,4.14A167.75,167.75,0,0,1,253,667.9c-11.34-2.11-22.73-3.3-33.87-6.68-12.47-3.79-26-6.5-39-6.4-18.53.14-36.57.16-54.3,6.85-6.22,2.35-13.84,6.21-18.57,11.14-10.82,11.28-12.28,39.43-1.48,51.13,18.19,19.69,57,27.42,82.53,27.78,27.95.4,55.09-1.76,83.08-3,26-1.18,51.95-2.86,78-2.8,53.2.12,106.41,0,159.52-3.7,49.89-3.47,99.91-2.28,149.92-2.28,51.28,0,102.21.42,153.11,7.51,22.18,3.09,44.78,4.17,67.07,6.33,20,1.94,39.15,0,59-1.83a136.67,136.67,0,0,0,48.45-13.5c12-6,33.41-24.51,37.1-38.75,10.32-39.93-145.49-39-169.41-38.88-26.76.1-53.74,1-80.48,0-11.25-.45-22.33-2.73-33.31-5.24s-22-1.86-33-2.91c-46.24-4.37-92.59-3.73-139-3.73C553.26,648.87,538.16,648.73,523.05,648.77Z"/></g></g><g id="object"><path class="cls-3" d="M350.09,393.51a3.11,3.11,0,0,0-.73-.49c-2.45-1-4.36-.12-7-.46-1.18-.15-2.5-2.9-4.09-1-.59.7-1.79,2.62-3,4.12-1.81,2.19-5.43,3.87-8.55,4.67a89.92,89.92,0,0,1-12.93,2.57,152.52,152.52,0,0,1-28.07.16A41.21,41.21,0,0,0,264.87,366a9.55,9.55,0,0,0-4.4-1.46,8.24,8.24,0,0,0-3.77,1.06c-12.42,6.36-5.86,17.86-1,27.35a136.42,136.42,0,0,0,10.43,17.15c5.46,7.57,13.36,9.08,22.45,8.81,9.64-.29,19.4-.75,28.79-3.09,4.57-1.14,8.59-3.05,12.93-4.76s4.8.32,8.93-.2c2.3-.29,4.71-.14,6.93-.86,4-1.28,5.35-5.37,6.9-8.83a4.48,4.48,0,0,0,.59-2.32,6.48,6.48,0,0,0-1.88-3.56A12.58,12.58,0,0,0,350.09,393.51Z"/><path class="cls-4" d="M252.31,401c2.82,4.31,5.77,8.42,8.76,12.26,4.47,5.73,9.5,11.84,16.59,13.43A31.13,31.13,0,0,0,286,427q19.89-1,39.72-3a69.18,69.18,0,0,0-.21-20.84c-.32-1.93-.8-4-2.28-5.28-2.2-1.9-5.54-1.26-8.35-.51l-13.73,3.66c-1.48.4-3.14.78-4.49,0a5.92,5.92,0,0,1-2-2.21c-10.08-16.07-15.34-31.39-20.94-49.36-2.47-7.92-5.09-16.11-10.65-22.28-11.86-13.16-33.83-5.32-33.06,13C230.94,361.16,240.47,382.86,252.31,401Z"/><g id="_Group_" data-name="&lt;Group&gt;"><path id="_Path_" data-name="&lt;Path&gt;" class="cls-5" d="M659.14,591.52l.69,41.87c-.28,11.62.77,23.2,1.47,34.78C662,678.92,659.79,690,664.9,700c1.6,3.13,5,5.3,7.6,1.69,2-2.78,1.08-7.6,1.57-10.83,3.71-24.27,10.61-47.94,14-72.26C691.72,593.1,681.86,593.77,659.14,591.52Z"/></g><polygon class="cls-6" points="661.52 692.81 658.83 699.8 672.08 711.46 684.21 711.96 688.14 705.56 671.82 691.37 661.52 692.81"/><g id="_Group_2" data-name="&lt;Group&gt;"><path id="_Path_2" data-name="&lt;Path&gt;" class="cls-5" d="M629.48,591.92l-7.64,41.18c-2.65,18.42-8.66,36.36-11.31,54.78-.61,4.24-.3,8.87-2.07,12.86s-5.12,4.06-8.11,1.41c-4-3.55-2.16-9.9-2.08-14.75.49-32.33-2.05-64.19-2.66-96.57a1.44,1.44,0,0,1,.34-1.18,1.39,1.39,0,0,1,1-.19C600.07,589.67,629.32,592.81,629.48,591.92Z"/></g><polygon class="cls-6" points="598.17 694.53 593.97 700.73 604.24 715.08 615.95 718.3 621.22 712.95 608.52 695.45 598.17 694.53"/><polygon class="cls-7" points="702.3 618.16 696.59 558.29 693.83 519.4 684.57 487.63 634.55 479.87 572.72 490.47 569.75 502.48 581.65 613.69 641.29 618.16 640.48 548.95 649.68 591.84 649.29 618.16 702.3 618.16"/><path class="cls-8" d="M585.85,370.68q-.13,3-.18,6.06c-.72,41.06,1.54,82.64,1.8,124a459.57,459.57,0,0,1,64.1-5.47c5-.08,27.55,3.41,30.69.45,4.27-4-.43-3.27-.11-8.51.4-6.78-2.86-12.34-1.62-20.38,1.45-9.45,4.33-18.79,6-28.24a412.33,412.33,0,0,0,6-57.34c.58-17,0-34.73-7.37-50.13-18.08-38-76.37-37.3-92.36,2.36C588,345.26,586.38,358,585.85,370.68Z"/><path class="cls-9" d="M651.62,317.4l-15.83,28.85,2.48,87.43L639.41,474c.13,4.66.25,9.33.4,14,.07,2.09-.51,5.62.68,7.32,2.59,3.71,12.07,2.55,16.2,2.88,6.44.51,13,1,19.05,3.26,4,1.48,7.87,3.71,12.13,4.31a3.6,3.6,0,0,0,2.78-.45,4,4,0,0,0,1.06-3c1.48-20,1.51-40.63,2.62-60.86.87-15.9,3-31.93,2.27-47.86-.78-16.38-3.34-32.68-6.48-48.76-1.85-9.52-4-19.23-9.27-27.39-5.94-9.25-14.35-13-24.71-15-3.66-.74-17.27-5.88-15,2.43C642.28,309,648.84,314.09,651.62,317.4Z"/><path class="cls-9" d="M617.18,320.11,633,349c-.33,0-2,70.72-2.14,75.49l-1.55,54.46c-.14,5,.53,11-.45,15.92-1.38,6.92-8.67,5.56-14.88,6.12-13.59,1.22-27.89,3.54-41.52,2.86-3.93-.2,1.24-82.21,1.23-89.87,0-27.53-5.71-58.07,8.28-83,4.07-7.26,11.24-18.91,19.16-22.49,7.38-3.34,17.94-3.91,25.95-5.78l.42,5.19Z"/><path class="cls-6" d="M651.54,250.23a31.94,31.94,0,0,1,3.91,14.42c.06,1.34.15,2.88,1.23,3.67s.14,2.7,1,1.57,3.87-5.05,4-6.48a52.79,52.79,0,0,0,0-10c-.28-2.9-.87-5.94-2.77-8.15a16.37,16.37,0,0,0-4.11-3.13A21,21,0,0,0,648,239c-4.25-.79-6.86.73-3.11,3.7A25.93,25.93,0,0,1,651.54,250.23Z"/><path class="cls-5" d="M625,307.22c0,2.06-.39,4.19,1.42,5.78a6.22,6.22,0,0,0,3.2,1.26,19.83,19.83,0,0,0,8.9-.63,8,8,0,0,0,3.25-1.71,4.06,4.06,0,0,0,1.16-3.29c.06-1.55.37-3.13.58-4.7.44-3.44.64-6.9.74-10.37,5.09-.87,11.08-2.52,12.82-7.85a17.49,17.49,0,0,0,.58-5.29l.16-22.17a21.4,21.4,0,0,0-.85-7.56c-1.54-4.16-5.44-6.64-9.26-8.2-9.76-4-21.15-3.82-30.16,1.84a16.46,16.46,0,0,0-6,6.08c-2.13,4.06-1.86,9.07-1.53,13.75l.92,13c.35,5,1.1,10.7,5,13.32,2.05,1.39,4.7,1.65,6.47,3.45,3.08,3.15,1.61,7.85,2.53,11.67A7.51,7.51,0,0,1,625,307.22Z"/><path class="cls-6" d="M659.42,277.46c-.08-1.37-.68-5.39-2.74-2.86a4.13,4.13,0,0,0-.71,2.47,9.31,9.31,0,0,1-.27,2.61c-.64,1.9-2.74,2.76-4.61,2.73a4.49,4.49,0,0,1-2.16-.51,6.74,6.74,0,0,1-1.64-1.51l-3.6-4.14c-2.07-2.37-6.16-1.35-8.94-1a17.83,17.83,0,0,0-9,3.5c-.26.21-.52.44-.78.66a9.61,9.61,0,0,1-2,1.44c-2.48,1.21-5.54-.05-7.28-2.31-.8-1-1.54-2.36-2.77-2.54a2.54,2.54,0,0,0-2.4,1.46,7.25,7.25,0,0,0-.7,3,22.28,22.28,0,0,0,1.94,11.14c3.59,7.34,10.52,8.24,17.49,8.08l8.27-.2c5-.12,10.36-.33,14.61-3.26,3.74-2.58,6-7,6.88-11.58A28.52,28.52,0,0,0,659.42,277.46ZM641,287.87a9.65,9.65,0,0,1-8.53,1c-1.26-.38-.72-2.49.54-2.11a7.75,7.75,0,0,0,7-.77C641.08,285.24,642.09,287.13,641,287.87Z"/><path class="cls-6" d="M660.47,237.42a39.3,39.3,0,0,0,1.08-5.46,10.81,10.81,0,0,1-5.34.46v-3.19c0-.88-12-1.5-12.93-1.58-9.09-.75-17.41-1.46-25.63,3.43-7,4.17-11.53,10.4-12.61,18.5-1,7.74,1.5,17.85,6,24.28,0-2.06-1.21-6.92-.73-8.88a17.48,17.48,0,0,1,1.91-5.6,23.1,23.1,0,0,1,8.11-8.52,44.91,44.91,0,0,1,17.72-6c5.67-.79,12.58-1.52,18.18,0,2.69.72,3.14,1.4,4.77-1.32.29-.48,2.57-6.08,2.34-6.08Z"/><path class="cls-5" d="M696.85,345a14.07,14.07,0,0,1-7.29-2.69c-8.75-5.79-12.55-16.38-17.36-25.27-2.87-5.3-5.68-13.17-10.12-17.28-.83-.77-10.4-5.32-10.32-5.61l.49-2.62,2.6.5,1.54-1.06-7-3.6,4.57-7.7,10.37-.26c3,5.77,4.61,12.45,9,17.41,1.84,2.1,4,3.88,6,5.81,3.46,3.32,6.44,7.08,9.57,10.7,4,4.64,10.11,8.42,12.45,14.24,1.31,3.24,3.46,10.55,2,13.81A7,7,0,0,1,696.85,345Z"/><path class="cls-9" d="M704.47,333.13a3.13,3.13,0,0,1,1.77.67,3,3,0,0,1,.67,2c.67,8.24-.6,16.5-2,24.65-1.89,11.34-4.29,23.36-12.25,31.66-4.58,4.78-12,8-17.84,4.84-5.11-2.73-7-9.06-7.78-14.8a86.3,86.3,0,0,1,8.17-49.95,7.14,7.14,0,0,1,2-2.75c2.28-1.64,9.38.94,12.07,1.35Z"/><path class="cls-5" d="M573.86,297.93a10.35,10.35,0,0,0,3.14-11.6l-8.41-22.77C567,259.3,564,254.22,564,249.77c-.1-7.86,2.7-16.77,4.32-24.43.82-3.89,1.12-9.39,3.16-12.82.38-.64,5.58-5.31,5.47-5.49l-.8-1.56-1.55.8-1.17-.38,3.73-3.58-4.33-4-6.61,1.78c-.83,4.22-.58,8.74-2.4,12.69-.77,1.67-1.81,3.2-2.72,4.8-1.56,2.75-2.75,5.68-4,8.56s-3.06,5.33-4.26,8.08c-2.67,6.15-5.3,12.31-8,18.47l12.29,40.15A10.58,10.58,0,0,0,573.86,297.93Z"/><path class="cls-9" d="M603.1,301.71A48.53,48.53,0,0,1,589.56,293c-1.78-1.65-9.8-16.86-8.34-17.26l-.37.12-1.08.4-.15,0c-2.4-.24-6.72,2.14-9.05,2.88-7.58,2.41-15.09,5.16-22.88,6.5a72.16,72.16,0,0,0,3.23,20.12c1.74,6,4.73,10.85,7,16.47A144.12,144.12,0,0,0,566.41,339c.75,1.34,8.3,16.89,7.87,17,4.38-.75,7.75-4.21,10.44-7.75,6.31-8.3,9.31-19.56,17.23-26.33,6.15-5.26,14.2-5.77,13.41-16.41A55.52,55.52,0,0,1,603.1,301.71Z"/><path class="cls-5" d="M472.54,274.27a9.8,9.8,0,0,1-1,3.74,24.55,24.55,0,0,0-1.42,12.31A36.86,36.86,0,0,1,482,292.26l2.51-9.06a3.56,3.56,0,0,1,.58-1.34,3.78,3.78,0,0,1,1.62-1,31.13,31.13,0,0,0,8.89-5.41,4.89,4.89,0,0,0,1.43-1.74,5.3,5.3,0,0,0,.26-2q0-8.19,0-16.39a2.29,2.29,0,0,0-1.94-2.73l-2.8-1a3.14,3.14,0,0,0-.84-.3,4.87,4.87,0,0,0-4.23,0c-.36.12-4.43,1-4.47.69a24,24,0,0,1-4.55,16.44,1.09,1.09,0,0,1-2,.1,17.82,17.82,0,0,1-3.11-4.66L468.78,265a8.19,8.19,0,0,0,2.12,6.86,6.91,6.91,0,0,0,.51.47A2.22,2.22,0,0,1,472.54,274.27Z"/><polygon class="cls-10" points="487.72 282.51 468.9 279.43 449.7 331.97 404.35 324.24 414.23 384.69 471.92 350.14 487.72 282.51"/><path class="cls-3" d="M338.52,685.78c-2.86.19-5.48-.82-8.25-1.13a142.49,142.49,0,0,1,3.31-28.87c4.31,4.79,7.95,2,7.8,11C341.32,669.7,338,681.35,338.52,685.78Z"/><path class="cls-6" d="M329.64,679.78c-3.26-1.16-4,6.61-4,8.44a13.59,13.59,0,0,1-.16,3.28,8.78,8.78,0,0,1-1.83,3.1l-4.73,5.94a10.32,10.32,0,0,0-1.81,2.88,6.07,6.07,0,0,0,3.13,7.08c8.74,4.41,16.72-6.27,18.61-13.33.29-1.08.5-2.18.71-3.28.44-2.27,2.16-7.23,1.26-9.46-1.05-2.59-4.24-.71-6.33-1.69C332.53,681.84,331,680.25,329.64,679.78Z"/><path class="cls-11" d="M391.7,524.32c-8.14,22.17-17.54,43.86-22.9,67.07C362.18,620.07,351.5,648,346,676.76a70.89,70.89,0,0,1-10.61-.45c-4-.48-10.43-1.56-11.89-6-.74-2.25,0-5.91.16-8.25.36-7.49.9-15,1.45-22.44,1.56-21.15,2.63-42.57,6.52-63.42,4.09-21.94,8-44,11.61-65.88,1.86-11.34,4.15-22.6,7-33.74.73-2.87,8.29-32.45,9.78-32.21a138.73,138.73,0,0,1,49.47,17.75c1.49.88,2.93,1.94,3.45,3.51a6.53,6.53,0,0,1-.43,4.36c-4.59,13.63-10.71,26.42-15.6,40C395.21,514.75,393.48,519.47,391.7,524.32Z"/><path class="cls-3" d="M393.24,684.19c2.68,1,5.48.85,8.22,1.38A142.49,142.49,0,0,0,406.88,657c-5.54,3.29-8.18-.45-10.72,8.19C395.34,668,395.09,680.13,393.24,684.19Z"/><path class="cls-6" d="M404.26,682.74c0,5.31,4.19,11,6.5,15.81a3.27,3.27,0,0,1-.53,4.27,6.82,6.82,0,0,1-2.77,2.61,6.5,6.5,0,0,1-3.74,0q-3.1-.68-6.14-1.64a4.26,4.26,0,0,1-1.43-.66,4.4,4.4,0,0,1-1.06-1.53c-1.43-2.87-2.64-4.91-2.56-8.11s.5-6.73-.11-10c-.3-1.59-.69-3.62.67-4.49,1.05-.67,3,.25,4.12.44,2,.33,3.89.2,5.75,1.27a2.7,2.7,0,0,1,1,.85A2.26,2.26,0,0,1,404.26,682.74Z"/><path class="cls-11" d="M390.48,514.22c1.18,23.59,3.7,47.09,1.92,70.85-2.21,29.35-.33,59.22-3.65,88.28A70.89,70.89,0,0,0,399,676.07c4,.75,10.43,1.61,13.13-2.16,1.38-1.93,1.72-5.66,2.3-7.92,1.88-7.26,3.59-14.56,5.29-21.86,4.8-20.66,10.15-41.42,12.64-62.49,2.62-22.16,5.42-44.34,8.51-66.36,1.59-11.38,2.76-22.82,3.38-34.29.16-3,1.73-33.45.25-33.66A138.73,138.73,0,0,0,392,449.56c-1.69.4-3.38,1-4.34,2.33a6.53,6.53,0,0,0-.88,4.29c.33,14.38,2.36,28.41,3,42.83C390,504,390.22,509.06,390.48,514.22Z"/><path class="cls-10" d="M380.56,324.9l-.86.31c-4.74,1.8-8.78,5-12.72,8.23-5.93,4.79-8.85,6.89-11.13,14a172.13,172.13,0,0,0-4.78,20.41c-6.71,35-8,69.82-12.83,105.07-1.31,9.59-2.32,20.87,4.77,27.46C355.6,490.55,371.43,490,386.7,490c10.72,0,21.21-3.48,32-2.29,10.27,1.14,19.24-1.42,29.67-.75,2.51.16,5.72.14,6.71-2.18-3.61-10.81-3.55-22.44-4.36-33.81-2.11-29.41-11.86-57.64-15.79-86.85-1.34-9.93-2-26.41-9.74-33.93-8.36-8.17-27.42-8.33-38.16-6.74A37,37,0,0,0,380.56,324.9Z"/><path class="cls-5" d="M388.54,324.4a3.83,3.83,0,0,0,.73,1,8.38,8.38,0,0,0,4.69,2.17,20.8,20.8,0,0,0,6.81-.48c3-.58,2.93-2.35,3.36-5.11.24-1.5.39-3,.5-4.54.06-.83-.26-3.81.27-4.4.36-.4,1.83-.26,2.47-.6a7.08,7.08,0,0,0,2.48-2.46,19.88,19.88,0,0,0,2.06-5l2.77-9.1a48.2,48.2,0,0,0,2.2-9.45c.46-4.86-.33-11.73-4-15.29-3.35-3.24-8.24-4.38-12.72-5A26.5,26.5,0,0,0,383,269.62a14.18,14.18,0,0,0-5.25,5.19c-1.88,3.5-1.74,7.86-1.54,11.94l.56,11.3c.21,4.33.75,9.32,4,11.67,1.72,1.25,4,1.51,5.45,3.11,1.85,2,1.73,5,1.81,7.55A9.26,9.26,0,0,0,388.54,324.4Z"/><path class="cls-6" d="M407.32,275.71a6.36,6.36,0,0,1,.51,1.1c.69,2,.22,4.25.9,6.25,1.07,3.17,4.78,5.08,5.33,8.39.46,2.7-1.39,5.27-1.55,8-.17,3,1.74,5.82,1.45,8.77a19.52,19.52,0,0,1-3.41,8.22c.47-.64,4.76-.41,5.88-1.09,1.71-1,1.9-1.7,2.41-3.47s.11-3.5.9-5.31c1-2.22,2.94-3.84,3.63-6.21.95-3.23-.77-6.63-.64-10,.2-5.08,4.6-9.87,3-14.71-.94-2.83-3.69-4.65-5.24-7.2-1.18-1.94-1.61-4.22-2.42-6.34s-2.22-4.23-4.39-4.87a36.87,36.87,0,0,0-3.75-.44c-2.14-.4-3.92-1.88-6-2.57-2.95-1-8.15,2-9.88,4.49s-.85,4.59.9,6.79C397.88,269.17,404.92,271.56,407.32,275.71Z"/><path class="cls-6" d="M367.59,260.7c-1.77,1.3-4,2.23-5.57,3.75-3.15,3-3.75,7.68-3.86,12-.1,3.84-1.78,7.26-1.37,11.26a9.8,9.8,0,0,0,3.61,7c2.73,2,7,2.3,8.22,5.44,1.32,3.41-2.21,7.71-.07,10.67,1.18,1.63,3.5,1.87,5.2,3,1.89,1.23,2.86,3.41,4,5.35s2.89,3.87,5.14,3.92c.09-3.42.19-6.14-1.27-9.27-.85-1.82-3.36-5.19-1.43-7.16,1.22-1.64,4.08-2.18,4.16-4.22a4.71,4.71,0,0,0-1.16-2.58,11.75,11.75,0,0,1-.87-10.67,15.27,15.27,0,0,1,7.58-7.81c3.92-1.9,3.29-2.85,4.42-6.6,1-3.45,3-4.26,6.11-5.52,2.79-1.13,3.69-1.83,4.71-4.44.75-1.91,1.68-4.2.59-6.33a12.88,12.88,0,0,0-3.94-4.06c-3.16-2.41-6.71-4.95-10.68-4.66-2.2.16-4.27,1.19-6.48,1.32-1.47.08-2.93-.24-4.41-.29a11.71,11.71,0,0,0-7.19,2.17c-2.05,1.51-2,3.08-3.13,5.22A7.66,7.66,0,0,1,367.59,260.7Z"/><path class="cls-6" d="M376.47,246.62c.39-2.39.14-5.49-2.14-6.3-1.25-.44-2.65,0-3.94-.22-2.76-.56-3.71-3.91-5.16-6.33a2.09,2.09,0,0,0-.86-.9,3.4,3.4,0,0,0-1.78,0c-2.75.34-4.84-2.38-7.43-3.36a6.51,6.51,0,0,0-8.21,4.08c-.4,1.35-.33,2.81-.7,4.17-1.51,5.51-9.58,7.85-9.78,13.56-.14,3.86,3.64,7.55,2.17,11.12-.94,2.28-3.88,3.84-3.54,6.28a3.41,3.41,0,0,0,3.48,2.62,6.84,6.84,0,0,0,4.24-1.94c1.9-1.66,3.33-3.78,5.14-5.54s4.22-3.18,6.72-2.87,4.61,2.19,7,1.78c1.93-.32,3.35-2,5.25-2.52s3.61.24,5.43.35,4.06-.84,4.11-2.67a4.58,4.58,0,0,1,0-1.32c.39-1.18,2.4-1.11,2.78-2.29-1-1.47-2.29-.94-3-2.86C375.79,250,376.23,248.12,376.47,246.62Z"/><rect class="cls-12" x="366.29" y="356.23" width="375.39" height="260.63"/><path class="cls-13" d="M464.64,364.52H375v79.61C375,400.16,415.15,364.52,464.64,364.52Z"/><g class="cls-14"><path class="cls-15" d="M530.37,616.86h211.3V483.44S722.16,616.86,530.37,616.86Z"/></g><path class="cls-16" d="M703.15,174.66c0-.1,0-.19,0-.29l.16.15Z"/><polygon class="cls-6" points="179.07 700.56 178.47 709 194.76 718.65 203.81 710.81 195.96 701.76 179.67 692.11 179.07 700.56"/><polygon class="cls-6" points="170.68 443.74 168.86 469.39 195.15 582.97 178.38 697.77 194.89 702.32 243.69 564.94 245.34 523.34 235.57 437.57 170.68 443.74"/><polygon class="cls-6" points="276.72 458.88 287.15 566.45 278.71 707.01 263.11 708.34 242.32 581.08 210.04 454.8 276.72 458.88"/><polygon class="cls-6" points="263.04 706.48 263.76 714.91 281.36 721.91 289.07 712.75 279.92 705.04 263.04 706.48"/><path class="cls-4" d="M155.68,457.16c-1.23,9.78-2.3,23,1.42,23.91a3.44,3.44,0,0,0,2.06-.39c6.88-2.88,12-7.41,18.79-10.18,7.1-2.9,15-4,22.69-4.57a213.39,213.39,0,0,1,34.71,0,272.64,272.64,0,0,1,27,4.18c7.43,1.4,14.17,4.35,21.86,4.61A49.33,49.33,0,0,0,307.16,470a1.33,1.33,0,0,0,.67-.53,1.35,1.35,0,0,0,0-.93c-1.14-4.54-1.84-9-4.37-12.93-2.82-4.39-4.59-9.77-6.45-14.62a222.69,222.69,0,0,1-9.79-31.25c-3.71-14.45-8.19-28.61-11.73-43.08-2.45-10-4.58-20.21-8.31-29.87-2.92-7.56-8.38-18.73-15.93-22.71a24.64,24.64,0,0,0-8.35-2.13l-26.06-3.46c-3.17-.42-6.46-.83-9.5.18-4.54,1.51-7.47,5.81-10.06,9.84-11.59,18.07-19.86,38-25.49,58.83-2.94,10.88-5.75,21.8-8.2,32.8-2.73,12.27-5,24.65-6.52,37.13C156.89,448.65,156.27,452.51,155.68,457.16Z"/><path class="cls-17" d="M224.74,358c-.18,5-1.4,9.84-2.61,14.67L200,460.9l70.25,6.68.94-33.81a159.2,159.2,0,0,0-.38-21.67c-1.26-11.6-5.05-22.79-8.82-33.87l-20.87-61.44a6.07,6.07,0,0,0-5.32-4.92c-6.57-1.86-14-3.62-20.84-3.33-2.32,5.94,2.78,17.22,4.49,23.16C221.94,340.31,225.07,349,224.74,358Z"/><path class="cls-5" d="M233.47,315.91,219,313.77a73.12,73.12,0,0,1,1.35-11.58c-.09.46-7.43-4.43-8-5.43-1.7-2.88-1.46-7.39-2-10.65-1-7-1.9-14.75,2.3-20.39,4.35-5.84,12.59-7.14,19.85-6.57,9.12.71,19,4.41,22.86,12.7,3.49,7.48-2.91,17.32-5.21,24.62-1.13,3.6-2.71,7.67-6.29,8.87-1.9.64-4.09.32-5.83,1.31C235,308.38,235.17,312.82,233.47,315.91Z"/><path class="cls-6" d="M271.1,259.85l3.19-14.91a13.1,13.1,0,0,0,.37-5.6c-.7-3.06-3.51-5.22-6.44-6.35s-6.1-1.49-9.08-2.48c-3.18-1.05-6.19-2.83-9.54-3-6.36-.38-11.81,5-18.18,5.34-8.81.49-16.35-4.31-22.64,5.34-1.16,1.77-1.65,3.9-2.69,5.74-1.35,2.38-3.55,4.13-5.34,6.2-7.87,9.09-7.2,24.2.24,33.37,3.61,4.45,4.88,8.26,10.29,10.13-2-5.43,3.48-25.64,10.68-27.23,1.91-.42,7.2,2.41,9.21,2.92A54.43,54.43,0,0,1,244,273.81a66,66,0,0,0,19.47,7,2.54,2.54,0,0,0,3.63-2.39Z"/><path class="cls-11" d="M524.8,152.37a42.26,42.26,0,0,1,35.07-48c-.14-.72-.27-1.43-.38-2.16a51.25,51.25,0,0,1,83.89-46.62,47.39,47.39,0,0,1,86.28,16c1-.24,2.1-.45,3.18-.61A42.26,42.26,0,0,1,758,150.62,40.89,40.89,0,0,1,724.09,213l6.47,43.27c.25,1.88-2,3-2.87,2.14L694.52,224a40.87,40.87,0,0,1-59.36-4.92,45.66,45.66,0,0,1-74.83-28c-.16-1.08-.27-2.16-.36-3.24A42.28,42.28,0,0,1,524.8,152.37Z"/><path class="cls-8" d="M605.13,144.89c6.17-.92,7.62,8.67,1.43,9.59S599,145.82,605.13,144.89Z"/><path class="cls-8" d="M648.3,138.44c6.17-.92,7.62,8.67,1.43,9.59S642.12,139.36,648.3,138.44Z"/><path class="cls-8" d="M702.26,130.37c6.17-.92,7.62,8.67,1.43,9.59S696.08,131.29,702.26,130.37Z"/><path class="cls-8" d="M710.31,408.61,694.5,421.24c2.68,4.11,5.31,8.25,7.85,12.46,1.27,2.11-2.15,3.77-3.42,1.68-2.4-4-4.88-7.88-7.41-11.76l-15.4,12.29c-1.91,1.53-4.4-1.36-2.48-2.89l15.79-12.61q-4.64-7-9.55-13.76c-1.43-2,1.44-4.49,2.88-2.49q5,6.85,9.64,13.89l15.43-12.32C709.74,404.19,712.23,407.08,710.31,408.61Z"/><path class="cls-8" d="M691.4,464a106.92,106.92,0,0,0-5.53-20.61c-.56-1.48-2.44-1.21-3.27-.24a80.1,80.1,0,0,0-12.3,19.4c-.83,1.84,1.66,3.2,3,2.09a46.69,46.69,0,0,0,5-4.63c-8.76,28.07-17.23,62.59-48.92,69.08-28.34,5.81-44.32-25.84-56.61-46-10.55-17.26-21.74-36-39.37-46.8-18.83-11.58-42-10.78-61.15-.32-19.3,10.54-34.74,29.9-34.32,52.56-12-.7-22.42,8.06-24.61,20.11-1.84,10.15,3.3,26.58,15.1,26.09a1.57,1.57,0,0,0,1.23,1.88c13.35,3.46,26.06-5.06,28.75-18.57,2.45-12.32-4-26-16.67-29-1.3-30.83,30.43-56.82,59.57-57.55,48.16-1.19,63.28,53.5,88.74,84.09,7.61,9.14,17.3,16.77,29.51,17.81,11.39,1,22.36-3.72,31.06-10.86,21.17-17.36,25.58-45.71,34.22-70.38a103.78,103.78,0,0,1,2.86,12.5C688.07,467.2,691.8,466.46,691.4,464ZM438.93,492.54a1.78,1.78,0,0,0,.81.13c.39.06.77.12,1.16.21,23.42,5.33,15.38,44.31-7.9,40.62,1-1.29.17-3.66-1.73-3.08-13.88,4.21-16.4-16.69-13-25.35A19.66,19.66,0,0,1,438.93,492.54Z"/><path class="cls-4" d="M419.4,519.75a21.76,21.76,0,0,1-.34-3.58c-.28-13.87,6.87-23.11,21.14-19.76,7.35,1.72,11.61,11,11.58,17.89,0,4.65-1.43,9.76-5.35,12.22-6.38,4-21.47,4.46-25.74-3.09A11.91,11.91,0,0,1,419.4,519.75Z"/><rect class="cls-4" x="386.11" y="269.6" width="173.75" height="12.29" transform="matrix(0.58, 0.82, -0.82, 0.58, 425.63, -269.7)"/><rect class="cls-4" x="406.19" y="255.43" width="173.75" height="12.29" transform="translate(422.55 -292.11) rotate(54.8)"/><rect class="cls-8" x="396.15" y="262.51" width="173.75" height="12.29" transform="translate(424.09 -280.9) rotate(54.8)"/><rect class="cls-18" x="430.33" y="177.88" width="3.31" height="36.87" transform="translate(343.36 -269.84) rotate(54.8)"/><rect class="cls-17" x="428.42" y="175.17" width="3.31" height="36.87" transform="translate(340.35 -269.43) rotate(54.8)"/><rect class="cls-18" x="426.51" y="172.47" width="3.31" height="36.87" transform="translate(337.32 -269.01) rotate(54.8)"/><path class="cls-19" d="M411.82,153.53H433a0,0,0,0,1,0,0V190.4a0,0,0,0,1,0,0H411.82a15.21,15.21,0,0,1-15.21-15.21v-6.45A15.21,15.21,0,0,1,411.82,153.53Z" transform="translate(316.19 -266.11) rotate(54.8)"/><rect class="cls-17" x="424.6" y="169.76" width="3.31" height="36.87" transform="translate(334.31 -268.6) rotate(54.8)"/><polygon class="cls-2" points="548.17 329.02 518.05 350.27 559.3 376.77 548.17 329.02"/><polygon class="cls-6" points="556.7 365.61 549.66 370.57 559.3 376.77 556.7 365.61"/><path class="cls-20" d="M236.08,566.49s167.62,7.1,169.71,5.77.86-169.45-5.66-175.88C400.13,396.38,246.27,556,236.08,566.49Z"/><path class="cls-9" d="M399.94,566.49h-172a571.85,571.85,0,0,0,6.48-91.37c-.26-27.33-.14-50.94-4.12-77.11,57.35,0,112.33-3.56,169.68-3.56,2.44,24,4.07,50.24,4.32,78.35A852.15,852.15,0,0,1,399.94,566.49Z"/><path class="cls-8" d="M308.9,464.85c-1.22-11.29-5.25-24.53-16.47-29.55-12.84-5.75-26.59.24-38.36,5.72-1.62.75-.21,3.15,1.4,2.4,1.16-.54,2.35-1.09,3.57-1.64,2.4,25.36-2.47,50.75-.67,76.12a1.53,1.53,0,0,0,.14,1.79c0,.56.08,1.12.13,1.68.17,1.76,2.95,1.78,2.78,0-.06-.61-.09-1.21-.14-1.82C284,511.77,311.8,491.59,308.9,464.85ZM289.34,500a82.48,82.48,0,0,1-28.29,16.63c-1.58-25.36,3.29-50.73.66-76.07,9.8-4.19,20.84-7.41,30.71-2.24,10.46,5.48,14,20.51,14,31.4C306.29,482.14,298.09,492.12,289.34,500Z"/><path class="cls-8" d="M330,481.23c-4.1-1.64-9.65.36-13.07,2.57a23.07,23.07,0,0,0-9.7,14.73c-2.35,11.05.64,25.25,14,26.29,12.84,1,22.55-10.56,23.91-22.48C346.26,492.35,340.23,481.55,330,481.23ZM342,504.48c-2,9.11-9.33,17.64-19.26,17.63-12.3,0-14.88-13-12.78-22.83a21,21,0,0,1,6.52-11.62,18.43,18.43,0,0,1,8.87-4.2,1.38,1.38,0,0,0,1.59.82,14,14,0,0,1,2.39-.3,5.45,5.45,0,0,1,.89.52,1.14,1.14,0,0,0,1.73-.34C340.2,485.72,343.74,496.37,342,504.48Z"/><path class="cls-8" d="M367.66,512.9a2.16,2.16,0,0,0-.16-.22c-1.6-1.65-3.76-.6-4.65,1.1a5,5,0,0,0-1.33,3.74,3.06,3.06,0,0,0,3,2.8,3.81,3.81,0,0,0,3.41-2.94,2.9,2.9,0,0,0,.83-2.66A3,3,0,0,0,367.66,512.9Z"/><path class="cls-8" d="M374,450.2c-1.3-2.3-4.88-2.28-7.19-2.4a1.41,1.41,0,0,0-1.39,1.39q-.71,24.51-.37,49a1.37,1.37,0,0,0,1.67,1.32,1.39,1.39,0,0,0,2.77-.07,291.74,291.74,0,0,1,3.15-36.2c.4-2.66.85-5.31,1.32-8C374.27,453.7,374.9,451.75,374,450.2Zm-5.84.45.36,0a1.54,1.54,0,0,0-.18.56,14.81,14.81,0,0,1-.23,1.47C368.15,452,368.16,451.35,368.18,450.66Zm-.22,9.29a1.24,1.24,0,0,0,.68.24c-.3,1.49-.61,2.9-.75,4C367.91,462.76,367.93,461.35,368,459.94Z"/><path class="cls-3" d="M269.1,447.5a3.37,3.37,0,0,0-.4-.87c-1.71-2.34-4-2.54-6.27-4.32-1-.79-.72-4.09-3.26-3.22-.94.32-3.13,1.44-5.12,2.15-2.91,1-7.22.59-10.58-.4A97.71,97.71,0,0,1,230,436a165.74,165.74,0,0,1-26.28-15.48,44.78,44.78,0,0,0,1.23-46.2,10.37,10.37,0,0,0-3.29-3.81,9,9,0,0,0-4.11-1.11c-15.14-1-15.42,13.4-16.13,25a148.28,148.28,0,0,0,.19,21.81c.88,10.11,7.41,15.91,16,20.73,9.15,5.1,18.52,10.1,28.59,13.15,4.89,1.48,9.72,1.94,14.71,2.76s4.3,3,8.44,4.79c2.31,1,4.47,2.49,6.94,3.06,4.43,1,8-2,11.36-4.4a4.87,4.87,0,0,0,1.85-1.84c.71-1.39.44-2.88.23-4.37A13.67,13.67,0,0,0,269.1,447.5Z"/><path class="cls-4" d="M173.71,400c.23,5.59.69,11.07,1.35,16.32,1,7.84,2.27,16.34,8,21.77a33.83,33.83,0,0,0,7.61,5q19.11,10.16,38.72,19.35a75.17,75.17,0,0,0,11.41-19.57c.78-2,1.48-4.17.81-6.19-1-3-4.47-4.26-7.51-5.12l-14.85-4.23c-1.61-.46-3.36-1-4.21-2.46a6.44,6.44,0,0,1-.63-3.17c-.46-20.61,3.17-37.83,8-57.73,2.11-8.77,4.22-17.87,2.47-26.72-3.74-18.89-28.6-23.81-38.08-6.29C175.94,350.95,172.74,376.5,173.71,400Z"/><path class="cls-3" d="M712.73,411.21a5.87,5.87,0,0,1,2.56-2c1.42-.64,3.1-.86,4.79-2,1.22-.81.91-3.75,3.75-2.63,1,.41,2.87,1.72,4.87,2.49,2.91,1.11,7.06,1,10.57.25,13.79-3,27.65-5.8,41.77-7.22a4.55,4.55,0,0,0,2.28-.61c1.21-.85,1.37-2.24,1.68-3.61a101.08,101.08,0,0,1,5.67-18.5c2.34-5.33,5.1-10.41,9.6-14.17s10.44-5.66,16-3.89c4.14,1.32,7.58,4.21,8.44,8.53,2.13,10.71-7.7,18.72-13.6,26.23-5.58,7.1-10.35,13.13-16.19,19.64a7.39,7.39,0,0,1-2.42,2,7.72,7.72,0,0,1-3.28.47c-14.14-.19-27.92-.73-41.77,2.14-3.8.79-7.28,0-10.86,1.2-2.29.78-3.48,3-5.58,4.13A18.84,18.84,0,0,1,724,426c-4.64.31-7.5-3.1-10.66-5.9-2.53-2.24-4.44-2.89-7.73-2a2.63,2.63,0,0,1-1.24.25,1.94,1.94,0,0,1-1.16-2.91c.66-1.13,1.83-1.46,3-1.88a15.14,15.14,0,0,1,3.9-.83,2.39,2.39,0,0,0,1.61-.41C712.23,411.94,712.36,411.63,712.73,411.21Z"/><path class="cls-21" d="M810.93,390.19c-8-3-16.32-4.86-24.08-8.51,2.82-6.76,11-34.26,12.36-37.56,5.35-12.57,6.39-18,13.76-24.62,15.75-14.17,34.44-4.77,33.68,15.34-.83,21.84-12.53,40.58-25.21,57.47a2.47,2.47,0,0,1-1.13.83,2.84,2.84,0,0,1-1.79-.23C816,391.94,813.44,391.14,810.93,390.19Z"/><path class="cls-3" d="M815.93,690.6c-2.79.09-5.47-.53-8.2-.78-1.41-27.13,1.15-55.57,2.26-82.84l20.91,1.12a243.66,243.66,0,0,0-10.35,44.83C820.23,655.33,816.32,690.58,815.93,690.6Z"/><path class="cls-6" d="M806.88,684.55c-1.72-.31-2.74.46-3.88,1.51-.67.61-1.12,1.47-1.92,1.91a6.32,6.32,0,0,1-2.55.62c-5,.51-16.61.3-10.44,8.71,5.61,7.64,20.49,4.6,29.09,2.52a3,3,0,0,0,1.58-.66,4,4,0,0,0,.87-1.71c1-3.59,2.32-8.08-2.1-9.59-1.88-.64-3.62.61-5.62-.09C810.28,687.2,808.6,684.85,806.88,684.55Z"/><path class="cls-6" d="M794.36,623.34l42.65-.83q17.25-82.11,30.37-165c.68-4.28,1.34-8.74.1-12.9-2.33-7.86-10.76-12.35-18.82-13.86-12.53-2.34-35.55.92-42,13.95-6.79,13.77-5.65,38.36-7.3,53.57A924.86,924.86,0,0,0,794.36,623.34Z"/><path class="cls-3" d="M897.22,690.6c2.79.09,5.47-.53,8.2-.78,1.41-27.13-1.15-55.57-2.26-82.84l-20.91,1.12a243.66,243.66,0,0,1,10.35,44.83C892.91,655.33,896.82,690.58,897.22,690.6Z"/><path class="cls-6" d="M906.27,684.55c1.72-.31,2.74.46,3.88,1.51.67.61,1.12,1.47,1.92,1.91a6.32,6.32,0,0,0,2.55.62c5,.51,16.61.3,10.44,8.71-5.61,7.64-20.49,4.6-29.09,2.52a3,3,0,0,1-1.58-.66,4,4,0,0,1-.87-1.71c-1-3.59-2.32-8.08,2.1-9.59,1.88-.64,3.62.61,5.62-.09C902.87,687.2,904.55,684.85,906.27,684.55Z"/><path class="cls-6" d="M918.79,623.34l-42.65-.83q-17.25-82.11-30.37-165c-.68-4.28-1.34-8.74-.1-12.9,2.33-7.86,10.76-12.35,18.82-13.86,12.53-2.34,35.55.92,42,13.95,6.79,13.77,5.65,38.36,7.3,53.57A924.86,924.86,0,0,1,918.79,623.34Z"/><path class="cls-9" d="M882.34,323.16a101.63,101.63,0,0,1,25.08,39.21c9.11,25.56,9.28,52.85,9.36,79.59q0,13.35.08,26.7c0,8.76-.75,10.64-10.26,9.49-17.63-2.14-36-5.77-51.95-13.61-7.6-3.73-14.71-8.44-22.68-11.38-11.6-4.27-23.49-2.34-35-5.12,5-15.06,8.55-27.88,11.1-43.39,2.63-16,5-33.4,8.88-49.15,2.31-9.46,6.62-18.29,11-27,2.94-5.84,6.06-11.83,11.06-16.05C854.1,299.74,871,312.35,882.34,323.16Z"/><path class="cls-3" d="M841.21,285.66c2.15,4.7,5.67,8.63,8.54,12.93s3.8,8,4.54,12.83c.54,3.51,1.79,6.25,6,6.85,8,1.13,5.69-5.45,7.5-10.24,2.07-5.47,6.48-9.8,9.56-14.68,8.91-14.11,6.36-42-12.15-48C845,238.87,834.68,271.39,841.21,285.66Z"/><path class="cls-6" d="M873.48,272c2.3.09,4.82.27,6.53,1.82s1.52,4.91-.73,5.27c-2,.33-4.68-1.8-5.93-.25-.73.91-.09,2.24.46,3.3a19.38,19.38,0,0,1,1.77,13.14c.84.78,2.15,0,2.88-.84a42.29,42.29,0,0,0,8.39-13.78,8.45,8.45,0,0,0,3.08,3c-.76-1.9-.28-4,.19-5.93,1.73-7.14,2.91-15.5-2.08-21.34-2.67-3.12-6.72-4.92-10.8-5.67a54.24,54.24,0,0,0-12.35-.39c-1.76.08-3.93.46-4.35,2.09,3.86,1.55,7.85,4.56,9.78,8.21C870.92,261.75,873.24,272,873.48,272Z"/><path class="cls-6" d="M865.33,254.85l.41.31c1.75,1.33,3.39,3,5.51,3.54,3.05.85,6.33-.62,9.33.42,3.36,1.16,5.56,5.18,8,7.55a35.52,35.52,0,0,0,14.35,8.39,35.9,35.9,0,0,0,8.41,1.5,14.88,14.88,0,0,0,4.28,0c1.69-.46,1.63-1.22-.17-1.8-5.65-1.81-7.42-9.75-7-15,.34-4.15,1.77-8.49.19-12.35-1.21-2.94-3.81-4.46-6.32-6.15-2.77-1.86-5.77-1.36-8.92-2.25s-6-3.52-9.3-4.17c-3.53-.7-7.07.87-10.6,1.56a21.94,21.94,0,0,1-8.87-.11c-2.6-.57-5.15-1.63-7.81-1.6-3.93,0-7.55,2.49-9.85,5.69-3.25,4.52-5.35,12.25-4.2,18.2-.18-.92,2.93-4.27,3.57-5,1.35-1.52,3-2.94,5-3.19C856.05,249.81,861.58,252.13,865.33,254.85Z"/><path id="_Path_3" data-name="&lt;Path&gt;" class="cls-22" d="M770,529.82l-1.08,11.83c-.35,3.84,2.15,7.21,5.58,7.52l27.75,2.52c3.43.31,6.5-2.55,6.85-6.39l1.08-11.83Z"/><path class="cls-4" d="M871.82,379c3.79-41.61-23.27-78.07-60.43-81.46S741,325.12,737.25,366.73A82,82,0,0,0,744,407.88h0c15.53,36.83,17.18,66.64,17.18,66.64L795,477.61l33.86,3.08s7-29,28.92-62.45h0A82,82,0,0,0,871.82,379Z"/><path class="cls-23" d="M760.37,474.46l-4.57,50.24a3.6,3.6,0,0,0,3,4.1l62.65,5.7a3.6,3.6,0,0,0,3.66-3.5l4.57-50.24Z"/><path class="cls-24" d="M871.91,364.76C851.41,400.62,813,455.39,761.13,474.32v.21L795,477.61l33.86,3.08s7-29,28.92-62.45h0a82,82,0,0,0,14-39.26A84.8,84.8,0,0,0,871.91,364.76Z"/><path class="cls-25" d="M747.68,373.93C751,337.6,780,310.55,812.41,313.5c19,1.73,34.91,13.32,44.23,29.91-8.35-20.64-26.15-35.64-47.93-37.62-32.44-3-61.42,24.1-64.73,60.42a71,71,0,0,0,8.53,41.2A71.88,71.88,0,0,1,747.68,373.93Z"/><polygon class="cls-26" points="781.92 476.42 782.54 379.24 792.94 390.85 804.45 374.18 812.94 392.11 825.03 383.02 808.09 478.8 811.56 479.11 830.05 374.6 814.25 386.49 805.03 367.03 792.64 384.98 779.12 369.88 778.44 476.1 781.92 476.42"/><path class="cls-27" d="M778.51,466.41l-.06,9.69,3.48.32.08-12Q780.26,465.45,778.51,466.41Z"/><path class="cls-27" d="M815.06,439.36l-7,39.44,3.48.32,7.76-43.88Q817.22,437.32,815.06,439.36Z"/><rect class="cls-28" x="788.79" y="459.94" width="9.32" height="69.56" transform="translate(228.86 1240.07) rotate(-84.8)"/><rect class="cls-28" x="786.98" y="479.75" width="9.32" height="69.56" transform="translate(207.49 1256.29) rotate(-84.8)"/><path class="cls-29" d="M795.41,510.2,826.7,513l1-10.54-19.31-1.76A131.53,131.53,0,0,1,795.41,510.2Z"/><path class="cls-29" d="M828.5,493.23l1.14-12.47-1.09-.1c-1.59,2.32-5.42,6.49-10.77,11.6Z"/><path class="cls-29" d="M758.76,528.8l62.65,5.7a3.6,3.6,0,0,0,3.66-3.5l.79-8.67-45.23-4.12a95.64,95.64,0,0,1-24.8,7.45A3.44,3.44,0,0,0,758.76,528.8Z"/><path class="cls-22" d="M808.36,500.75l19.31,1.76.84-9.28-10.72-1Q813,496.91,808.36,500.75Z"/><path class="cls-22" d="M780.62,518.21l45.23,4.12.84-9.28-31.3-2.85A114.91,114.91,0,0,1,780.62,518.21Z"/><path class="cls-30" d="M809.52,540.66c-8.58,7.71-23.78,8.9-28.78,9.08l21.51,2c3.43.31,6.5-2.55,6.85-6.39Z"/><path class="cls-3" d="M826.1,433.08a2.93,2.93,0,0,1,.35-.75c1.49-2,3.48-2.2,5.46-3.74.88-.69.63-3.55,2.84-2.79.81.28,2.71,1.26,4.44,1.88,2.52.91,6.27.53,9.19-.32a84.87,84.87,0,0,0,11.73-4.13c3.85-1.78,7.61-3.76,11.28-5.89,3.06-1.77,7.91-3.81,10.22-6.51,3.91-4.57-.62-15.7-1.13-21.41-.54-5.94,0-23.46,8-24,13.15-.81,13.35,11.68,13.94,21.74a128.76,128.76,0,0,1-.22,18.94c-.79,8.78-6.48,13.8-14,18-8,4.4-16.11,8.72-24.87,11.34-4.25,1.27-8.44,1.65-12.79,2.36s-3.74,2.56-7.34,4.13c-2,.88-3.89,2.15-6,2.64-3.85.88-6.93-1.79-9.85-3.85a4.23,4.23,0,0,1-1.6-1.6,6.12,6.12,0,0,1-.18-3.8A11.87,11.87,0,0,1,826.1,433.08Z"/><path class="cls-9" d="M902.2,390.61l-22.3,4.32c.48-.09-8.6-33.33-9.07-35.32-1.8-7.62-3.62-15.53-2.07-23.21C872,320,880,316,889.91,333.2c9.4,16.26,24.13,35.73,21.21,54.23a2.37,2.37,0,0,1-.39,1.14,2.42,2.42,0,0,1-1.49.68Z"/></g></svg>