<svg xmlns="http://www.w3.org/2000/svg" xmlns:xlink="http://www.w3.org/1999/xlink" viewBox="0 0 1528.6 1242"><defs><style>.cls-1,.cls-3{fill:#0080ff;}.cls-1,.cls-16,.cls-7{opacity:0.1;}.cls-1,.cls-10,.cls-13,.cls-6,.cls-7{isolation:isolate;}.cls-2{fill:#30374e;}.cls-4{fill:#444053;}.cls-5{fill:#afc0e0;}.cls-6{fill:#fff;opacity:0.2;}.cls-8{fill:#e3e8f4;}.cls-9{fill:none;stroke:#535461;stroke-miterlimit:10;stroke-width:2px;}.cls-10{opacity:0.25;}.cls-11{fill:url(#linear-gradient);}.cls-12{fill:#434175;}.cls-13{opacity:0.05;}.cls-14{fill:#565387;}.cls-15{fill:#ee8e9e;}</style><linearGradient id="linear-gradient" x1="1109.19" y1="122.2" x2="1109.19" y2="498.94" gradientTransform="matrix(1, 0, 0, -1, -29.72, 1063.64)" gradientUnits="userSpaceOnUse"><stop offset="0" stop-color="gray" stop-opacity="0.25"/><stop offset="0.54" stop-color="gray" stop-opacity="0.12"/><stop offset="1" stop-color="gray" stop-opacity="0.1"/></linearGradient></defs><title>Asset 1</title><g id="Layer_2" data-name="Layer 2"><g id="Layer_1-2" data-name="Layer 1"><path class="cls-1" d="M463.6,0s255,250,140,402-517,374-573,500-18,340-18,340l1490-20,26-1222Z"/><path class="cls-1" d="M322.94,697.76c21.51-36.54,70.15-30.17,104.65-11.1s68.92,47.54,106.88,42.07c32-4.62,58.26-33.64,72.44-67.13s18.34-71.24,22.33-108.23q7.52-69.69,15-139.47c1.84-17,4-35,13.2-48.42,12.15-17.75,34.43-23.21,53.49-17.87s35.31,19.65,49.21,35.62c44.54,51.13,69.77,120.24,108.7,177.14,7.93,11.58,16.88,23,28.72,28.63,17.07,8,36.67,2.35,53.35-6.6,54.42-29.17,91-88.7,126.89-144.24,17.48-27,38.78-55.87,67.86-58.81,30.59-3.16,57.15,23.94,75.13,52.65,57.7,92.36,70.07,218.45,139.77,299,8.65,10,18.2,19.22,29.2,25.42a73.92,73.92,0,0,0,11.31,5.16c60.82,21.89,81.09,109.77,36.11,161.87q-1.46,1.66-3,3.33c-6.68,7.33-14.24,14.27-23.27,16.45-8.4,2-17.07-.31-25.39-2.83-53.2-16.14-105.76-40.82-160.76-39.62-53.52,1.11-104.29,26.82-157.21,36.07-35.58,6.22-71.79,5-107.76,3.64q-179.74-6.72-359.41-15.64C541,922,481.52,919.3,422.08,916.14c-45.79-2.47-75-7.92-80.28-63.19C337.15,804.55,295.36,744.62,322.94,697.76Z"/><ellipse class="cls-2" cx="1054.66" cy="918.7" rx="204.42" ry="28.57"/><path class="cls-3" d="M569.21,795.46s10-2.27,16.54,4.44c0,0-4.21,3.79-14.11-.41Z"/><path class="cls-3" d="M568.11,795.37s-5.92,8.39-2.17,17c0,0,5.12-2.46,5-13.21Z"/><path class="cls-3" d="M561.45,782.72s3.55-7.68,20.44,1.61c0,0-1.82,5.13-9,5.21S563.57,786.5,561.45,782.72Z"/><path class="cls-3" d="M560.37,782.25s-8.46-.39-8,18.87c0,0,5.4.76,8.77-5.59S562.74,785.91,560.37,782.25Z"/><path class="cls-3" d="M554.48,767.26s3.79-13.39,21.56-5.21c0,0-3.1,12.26-19.53,9.57Z"/><path class="cls-3" d="M547.89,748.07s8-13.81,24.6-2.6c0,0-4.69,12.77-22.93,7.23Z"/><path class="cls-3" d="M544.75,729.6s9.56-12.83,26-1.75c0,0-9.13,11.31-25.81,4.85Z"/><path class="cls-3" d="M541.92,711.64s9.66-13.37,25.43-2.39c0,0-11.11,12-25.24,5.35Z"/><path class="cls-3" d="M541.78,695.54s10-17.06,24.72-6.94c0,0-10.92,14.82-24.51,10Z"/><path class="cls-3" d="M543.12,676.63s10.6-17,25.05-5.44c0,0-12.95,15-24.89,8.44Z"/><path class="cls-3" d="M545.87,659.63s12.87-16.13,25.4-10.88c0,0-13.39,17.11-25.74,15Z"/><path class="cls-3" d="M549.66,643.42s14.79-19.69,24.51-14.1c0,0-10.83,15.21-25.42,17.68Z"/><path class="cls-3" d="M555.43,624.54s13-16.14,23.47-13.05c0,0-10.94,16.57-25.06,17.93Z"/><path class="cls-3" d="M560.61,606.89s14.52-15.6,21.43-13.49c0,0-10.11,16.93-21.9,16.77Z"/><path class="cls-3" d="M565.74,590.57s12.18-18.28,19.55-17.41c0,0-7,16-19.43,19.18Z"/><path class="cls-3" d="M571,568.68s10.9-14.13,17.27-14.52c0,0-8.11,18.43-17.47,18.93Z"/><path class="cls-3" d="M574.06,554.13l9.52-28.54s2.27,25.06-10.6,33.78Z"/><path class="cls-3" d="M576.63,523.2s.33-23.31-1-25.11c0,0,9.44,18.73,1.62,35.37Z"/><path class="cls-3" d="M554,767s-12.31-6.53-18.75,11.91c0,0,11,6.27,20.44-7.43Z"/><path class="cls-3" d="M547.45,747.36s-14.93-5.64-20.71,13.54c0,0,11.71,6.93,22.34-8.9Z"/><path class="cls-3" d="M544.15,730.76s-11.2-11.44-26,1.76c0,0,10.55,10,26.22,1.36Z"/><path class="cls-3" d="M541.56,711.67s-11.36-12-25.52,1c0,0,12.61,10.4,25.74,1.93Z"/><path class="cls-3" d="M541.81,696s-8.6-17.77-24.1-8.84c0,0,9.74,15.62,23.65,11.92Z"/><path class="cls-3" d="M544,676.49s-8.58-18.1-24.27-8.38c0,0,11.1,16.36,23.73,11.3Z"/><path class="cls-3" d="M547.44,659.61s-4.27-20.18-17.83-21.1c0,0,4.3,21.3,16.29,24.89Z"/><path class="cls-3" d="M550,643.44s-2.78-24.46-14-24.58c0,0,1.63,18.6,13,28.13Z"/><path class="cls-3" d="M556.54,623.76s-4.7-20.19-15.5-22c0,0,2.65,19.69,14.79,27Z"/><path class="cls-3" d="M561.89,607s-1.51-21.25-8.25-23.94c0,0-2.73,19.52,6.55,26.79Z"/><path class="cls-3" d="M566.22,590.3s-2.38-21.84-9.32-24.47c0,0-1.14,17.48,8.4,26Z"/><path class="cls-3" d="M572.09,570.36s-1.24-17.8-6.32-21.66c0,0-3.47,19.83,4.05,25.41Z"/><path class="cls-3" d="M573.41,553.29,566.75,524S562,548.67,574,558.62Z"/><path class="cls-3" d="M572.37,523.76S559,504.62,559.13,502.4c0,0,2.68,20.81,18.48,30.2Z"/><path class="cls-3" d="M573.41,517.79s-13.22-27.55-18.5-29.53c0,0,16.73,7.14,19.39,28.62Z"/><path class="cls-4" d="M570.79,573.23,570,573c7.46-31.8,8.51-51.85,3-56.45l.51-.62C579.36,520.84,578.44,540.65,570.79,573.23Z"/><path class="cls-4" d="M549.38,647.93l-1.17-.33c.83-2.92,1.72-5.9,2.67-8.83,8.33-25.53,15.25-49.21,19.5-67.34l1-.57c-4.26,18.17-11,42.73-19.3,68.28C551.09,642.07,550.2,645,549.38,647.93Z"/><path class="cls-4" d="M585,817.83c-.17-.16-16.82-16.56-29.62-45.61a175.94,175.94,0,0,1-14.09-53.58c-2.27-23.12.83-49.31,7.57-73.37l1,1c-15.14,54-4.69,98.69,7,125.23,12.67,28.77,29.13,45,29.3,45.17Z"/><path class="cls-3" d="M603.34,731.36s6.06-1.39,10,2.69c0,0-2.55,2.27-8.53-.25Z"/><path class="cls-3" d="M602.68,731.3s-3.57,5.07-1.3,10.27c0,0,3.09-1.51,3-8Z"/><path class="cls-3" d="M598.65,723.65s2.14-4.64,12.34,1c0,0-1.1,3.1-5.44,3.14S599.95,725.94,598.65,723.65Z"/><path class="cls-3" d="M598,723.37s-5.12-.23-4.83,11.4c0,0,3.26.45,5.3-3.38S599.43,725.58,598,723.37Z"/><path class="cls-3" d="M594.42,714.31s2.32-8.09,13-3.16c0,0-1.87,7.41-11.8,5.78Z"/><path class="cls-3" d="M590.45,702.71s4.84-8.33,14.87-1.57c0,0-2.84,7.72-13.86,4.37Z"/><path class="cls-3" d="M588.55,691.54s5.78-7.76,15.73-1.06c0,0-5.51,6.81-15.6,2.93Z"/><path class="cls-3" d="M586.84,680.68s5.85-8.09,15.38-1.44c0,0-6.72,7.25-15.26,3.23Z"/><path class="cls-3" d="M586.76,670.94s6.06-10.3,14.94-4.19c0,0-6.6,9-14.82,6.06Z"/><path class="cls-3" d="M587.55,659.52s6.43-10.26,15.14-3.32c0,0-7.83,9-15.05,5.1Z"/><path class="cls-3" d="M589.23,649.24s7.78-9.75,15.35-6.57c0,0-8.09,10.34-15.54,9Z"/><path class="cls-3" d="M591.52,639.44s8.94-11.89,14.82-8.53c0,0-6.55,9.2-15.37,10.69Z"/><path class="cls-3" d="M595,628s7.86-9.76,14.2-7.89c0,0-6.61,10-15.14,10.83Z"/><path class="cls-3" d="M598.14,617.35s8.78-9.43,13-8.15c0,0-6.1,10.23-13.23,10.14Z"/><path class="cls-3" d="M601.24,607.49s7.37-11.05,11.82-10.54c0,0-4.26,9.7-11.74,11.6Z"/><path class="cls-3" d="M604.45,594.25s6.59-8.54,10.44-8.78c0,0-4.91,11.15-10.56,11.43Z"/><path class="cls-3" d="M606.28,585.46,612,568.22s1.36,15.14-6.43,20.44Z"/><path class="cls-3" d="M607.83,566.75s.2-14.09-.61-15.18c0,0,5.71,11.32,1,21.38Z"/><path class="cls-3" d="M594.14,714.14s-7.44-4-11.36,7.19c0,0,6.64,3.79,12.36-4.48Z"/><path class="cls-3" d="M590.19,702.24s-9-3.41-12.52,8.18c0,0,7.08,4.19,13.51-5.38Z"/><path class="cls-3" d="M588.19,692.24s-6.76-6.91-15.73,1.06c0,0,6.38,6.06,15.85.82Z"/><path class="cls-3" d="M586.63,680.7s-6.87-7.23-15.43.63c0,0,7.62,6.28,15.55,1.17Z"/><path class="cls-3" d="M586.78,671.19s-5.2-10.74-14.57-5.35c0,0,5.89,9.44,14.3,7.21Z"/><path class="cls-3" d="M588.1,659.42s-5.19-10.94-14.7-5.07c0,0,6.71,9.9,14.35,6.81Z"/><path class="cls-3" d="M590.18,649.24S587.6,637,579.4,636.48c0,0,2.6,12.87,9.84,15Z"/><path class="cls-3" d="M591.73,639.45s-1.67-14.79-8.48-14.86c0,0,1,11.25,7.83,17Z"/><path class="cls-3" d="M595.68,627.55s-2.84-12.21-9.37-13.28c0,0,1.61,11.89,8.94,16.35Z"/><path class="cls-3" d="M598.91,617.39s-.93-12.87-5-14.48c0,0-1.66,11.8,4,16.2Z"/><path class="cls-3" d="M601.54,607.32s-1.44-13.2-5.63-14.79c0,0-.69,10.6,5.08,15.7Z"/><path class="cls-3" d="M605.08,595.27s-.76-10.76-3.79-13.1c0,0-2.1,12,2.45,15.36Z"/><path class="cls-3" d="M605.9,584.95l-4-17.73s-2.85,14.95,4.38,21Z"/><path class="cls-3" d="M605.25,567.1s-8.06-11.56-8-12.92c0,0,1.61,12.58,11.17,18.25Z"/><path class="cls-3" d="M605.86,563.48s-8-16.66-11.18-17.83c0,0,10.12,4.32,11.72,17.31Z"/><path class="cls-4" d="M604.29,597l-.48-.11c4.54-19.22,5.15-31.35,1.79-34.12l.31-.38C609.48,565.33,608.92,577.31,604.29,597Z"/><path class="cls-4" d="M591.35,642.17l-.71-.2c.5-1.76,1-3.56,1.62-5.3,5-15.44,9.21-29.76,11.78-40.71l.58-.35c-2.57,11-6.64,25.83-11.67,41.29C592.38,638.64,591.85,640.4,591.35,642.17Z"/><path class="cls-4" d="M612.89,744.88c-.1-.1-10.17-10-17.91-27.57a106.54,106.54,0,0,1-8.52-32.39c-1.39-14,.51-29.82,4.59-44.36l.58.61c-9.15,32.64-2.83,59.66,4.22,75.71,7.66,17.41,17.61,27.2,17.72,27.3Z"/><path class="cls-5" d="M635.66,782.74a29,29,0,0,0-5.68,1.62c-40.84,16.31-40.16,123.07-40.16,123.07h-12S574,861.61,557.52,796.24C542.65,737.44,603.61,684.73,616,674.74c1.39-1.11,2.17-1.7,2.17-1.7C679.55,695.6,635.66,782.74,635.66,782.74Z"/><path class="cls-6" d="M622.62,674.89c-1.42-.65-2.88-1.27-4.43-1.84l-2.17,1.7c-12.38,10-73.34,62.7-58.47,121.51,16.5,65.36,20.25,111.16,20.25,111.16h6.76s-3.75-45.81-20.28-111.18C549.48,737.71,609.84,685.2,622.62,674.89Z"/><path class="cls-5" d="M838.23,796.26C821.69,861.62,818,907.42,818,907.42h-12s.76-111.57-43-124a23.88,23.88,0,0,0-2.88-.67S716.17,695.58,777.59,673c0,0,.62.46,1.74,1.36C790.71,683.51,853.25,736.77,838.23,796.26Z"/><path class="cls-7" d="M635.66,782.74a29,29,0,0,0-5.68,1.62,741.4,741.4,0,0,1-14-109.6c1.39-1.11,2.17-1.7,2.17-1.7C679.55,695.6,635.66,782.74,635.66,782.74Z"/><path class="cls-7" d="M779.35,674.41a682.18,682.18,0,0,1-16.36,109,23.88,23.88,0,0,0-2.88-.67s-43.91-87.14,17.51-109.69C777.59,673,778.21,673.51,779.35,674.41Z"/><path class="cls-8" d="M756.87,799.26q-6.36,25.09-14.91,51.49c-8.55,26.39-27,28.17-92.37,0,0,0-6.53-18.4-13.7-49.68-15.8-68.77-34.75-199.82,5.63-334.44A501,501,0,0,1,692.38,351.2s34.5,39.61,59.81,115.41S793.62,654.43,756.87,799.26Z"/><circle class="cls-5" cx="697.87" cy="573.49" r="54.23"/><path class="cls-3" d="M736.33,573.52a38.46,38.46,0,0,1-62.84,29.75,38.86,38.86,0,0,1-7.21-7.82,37.86,37.86,0,0,1-2.48-4.08,38.39,38.39,0,0,1-4.38-17.85v-.92a38.51,38.51,0,0,1,28-36.13,39.77,39.77,0,0,1,9.27-1.41h1.15a38.46,38.46,0,0,1,38.49,38.44Z"/><path class="cls-5" d="M752.18,466.61c-61.53,29.46-110.71,0-110.71,0a501,501,0,0,1,50.9-115.41S726.87,390.8,752.18,466.61Z"/><path class="cls-5" d="M756.87,799.26q-4.32,17-9.62,34.56-2.51,8.38-5.3,16.9c-2.79,8.52-27,28.17-92.37,0,0,0-2.12-6-5.3-16.9-2.38-8.25-5.34-19.31-8.43-32.78,0,0,24.32,10.38,58.84,10.38A162.11,162.11,0,0,0,756.87,799.26Z"/><path class="cls-8" d="M747.26,833.82q-2.51,8.38-5.3,16.9c-2.79,8.52-27,28.17-92.37,0,0,0-2.12-6-5.3-16.9C644.28,833.82,710.86,853,747.26,833.82Z"/><path class="cls-6" d="M687.45,536.42l-.08.06-27.94,36.07v.92a38.39,38.39,0,0,0,4.38,17.85L696.73,535Z"/><path class="cls-6" d="M696.37,569l-22.88,34.26a38.86,38.86,0,0,1-7.21-7.82l27.26-29.26Z"/><path class="cls-6" d="M664.21,850.73s-6.53-18.41-13.7-49.68c-15.8-68.78-34.75-199.83,5.63-334.44a502.88,502.88,0,0,1,44.56-104.55c-5.13-7.19-8.33-10.85-8.33-10.85a501,501,0,0,0-50.88,115.4C601.1,601.22,620,732.27,635.85,801.05c7.18,31.27,13.7,49.68,13.7,49.68,25.81,11.12,45.64,13.45,60.19,12.21C697.31,862,682.22,858.49,664.21,850.73Z"/><path class="cls-9" d="M1166,903.1s35.39-44,33-88.14a85.59,85.59,0,0,1,14-52.29,144,144,0,0,1,16.66-20.44"/><path class="cls-3" d="M1228.42,714.46c-2.53,6.14,1.26,28.53,1.26,28.53s18.45-13.23,21-19.38a12,12,0,0,0-22.24-9.15h0Z"/><path class="cls-3" d="M1196,740.91c1.22,6.53,16.57,23.26,16.57,23.26s8.33-21.13,7.08-27.67a12,12,0,0,0-23.65,4.41Z"/><path class="cls-3" d="M1172.9,799.38c4.35,5,26,11.72,26,11.72s-3.51-22.43-7.86-27.46a12,12,0,0,0-18.17,15.74Z"/><path class="cls-3" d="M1165.37,847.55c3.43,5.69,23.68,16,23.68,16s.33-22.71-3.1-28.39a12,12,0,0,0-20.59,12.44Z"/><path class="cls-3" d="M1235.45,775c-6.16,2.46-28.51-1.55-28.51-1.55s13.42-18.32,19.59-20.78a12,12,0,1,1,8.93,22.34Z"/><path class="cls-3" d="M1225.93,831.21c-6.62.51-26.74-10-26.74-10s18.28-13.47,24.9-14a12,12,0,0,1,1.84,24Z"/><path class="cls-3" d="M1209.17,884.59c-6.44,1.62-28.05-5.35-28.05-5.35s15.74-16.36,22.18-18a12,12,0,0,1,5.87,23.32Z"/><path class="cls-10" d="M1228.42,714.46c-2.53,6.14,1.26,28.53,1.26,28.53s18.45-13.23,21-19.38a12,12,0,0,0-22.24-9.15h0Z"/><path class="cls-10" d="M1196,740.91c1.22,6.53,16.57,23.26,16.57,23.26s8.33-21.13,7.08-27.67a12,12,0,0,0-23.65,4.41Z"/><path class="cls-10" d="M1172.9,799.38c4.35,5,26,11.72,26,11.72s-3.51-22.43-7.86-27.46a12,12,0,0,0-18.17,15.74Z"/><path class="cls-10" d="M1165.37,847.55c3.43,5.69,23.68,16,23.68,16s.33-22.71-3.1-28.39a12,12,0,0,0-20.59,12.44Z"/><path class="cls-10" d="M1235.45,775c-6.16,2.46-28.51-1.55-28.51-1.55s13.42-18.32,19.59-20.78a12,12,0,1,1,8.93,22.34Z"/><path class="cls-10" d="M1225.93,831.21c-6.62.51-26.74-10-26.74-10s18.28-13.47,24.9-14a12,12,0,0,1,1.84,24Z"/><path class="cls-10" d="M1209.17,884.59c-6.44,1.62-28.05-5.35-28.05-5.35s15.74-16.36,22.18-18a12,12,0,0,1,5.87,23.32Z"/><path class="cls-9" d="M1166.34,901.26s50.2-25.92,65.92-67.19a85.56,85.56,0,0,1,34-42.12A143.79,143.79,0,0,1,1289.76,780"/><path class="cls-3" d="M1299.82,754.07c-4.8,4.6-10.41,26.6-10.41,26.6s22.23-4.63,27-9.21A12,12,0,1,0,1299.82,754h0Z"/><path class="cls-3" d="M1259.5,765.13c-1.51,6.47,5.72,28,5.72,28s16.12-16,17.68-22.46a12,12,0,0,0-23.4-5.56Z"/><path class="cls-3" d="M1214.66,809.21c1.94,6.35,19.06,21.27,19.06,21.27s5.88-22,3.94-28.28a12,12,0,1,0-23,7Z"/><path class="cls-3" d="M1188.25,850.2c.83,6.59,15.19,24.18,15.19,24.18s9.51-20.62,8.67-27.21a12,12,0,1,0-23.86,3Z"/><path class="cls-3" d="M1281.73,812.25c-6.64-.24-25.44-13-25.44-13s19.69-11.3,26.33-11.06a12,12,0,1,1-.89,24Z"/><path class="cls-3" d="M1250.24,859.8c-6.26-2.22-20.4-20-20.4-20s22.18-4.9,28.43-2.68a12,12,0,1,1-8,22.67Z"/><path class="cls-3" d="M1213.28,901.81c-6.54-1.13-23.47-16.26-23.47-16.26s21-8.57,27.57-7.44a12,12,0,0,1-4.09,23.7h0Z"/><path class="cls-11" d="M1237.71,876.92l-38.91-56.43s-.76-14-3.27-17.23-.55-10.52-.55-10.52,2.73-4,.36-4.35-.36-9.26-.36-9.26l-.18-14.15s2.18-13.63.36-16.87a5.35,5.35,0,0,1,.18-5.81s2.18-7.81,0-9.8-1.64-14.16-1.09-23.77-3.82-15.06-3.82-16.51-14.39-15.6-14.39-16.87-9.09-6.53-14.54-8-8.18-2.54-8-3.26-8.55-3.63-8.55-3.63-7.64-.55-10.55-4.36-11.8-4.91-12.06-4.94l-.17-.76c-.05-.25-.11-.55-.17-.82.69-1.16,1.32-2.34,1.9-3.56.17-.37.34-.76.5-1.11,3.19-.14,6.46-.83,9-2.78a12.2,12.2,0,0,0,4.35-8.7,19.07,19.07,0,0,0-2.13-9.67c-1.59-3.27-3.93-6.66-3.13-10.2.36-1.51,1.27-2.88,1.74-4.38.89-2.84.07-6-1.31-8.59s-3.29-5-4.82-7.5a29.3,29.3,0,0,1-3.84-10.6c-.31-2-.43-4-1.42-5.78a10.76,10.76,0,0,0-3.19-3.22,31.85,31.85,0,0,0-19.55-5.93c-5,.17-9.89,1.51-14.8.9a53.27,53.27,0,0,1-8.65-2.27c-6.1-1.8-13.14-2.54-18.45.95s-7.43,10.36-11,15.73c-3.18,4.75-7.84,8.74-10.27,13.76a1.08,1.08,0,0,1,.08-.29,16.47,16.47,0,0,0-1.36,3.66c-.92,4-.15,8.09.81,12,.49,2,1.17,4.25,2.94,5.38s4.26.88,6.35,1.25c-.08.34-.17.69-.24,1a41.57,41.57,0,0,0,28.84,48.46v1.11a27.51,27.51,0,0,1-.19,3.12h0s-18.28-3.79-23.2-1.21-14.55,4.54-16,6-5.09.36-8.33,8.9-3.63,17.23-7.82,21.2-6.36,6.72-6.54,9.62.55,3.63-1.1,4.54-4,4.72-3.27,6.17c0,0,.91,3.63-2,5.44s-2.55,5.44-2.55,5.44-1.09,4-3.63,4.9-4.19,6.9-4.19,6.9l-8.28,9.5-16.35-18.1a6.89,6.89,0,0,0-9.73-.5l-8,7.24a15.85,15.85,0,0,0-8,4.79,20.71,20.71,0,0,0-4.16,6.19l-4.4,4a11.17,11.17,0,0,0-1.13,12.33l10.47,11.58.07.1a18.49,18.49,0,0,0-10.13,4.13C920.16,805.27,920,818,922.34,823.77s22.18,28.13,22.18,28.13,11.52,15,28.14,22.93h0l-.13.13c-.33.35-.65.76-1,1.14l-.27.35-.25.35-.3.44c-.08.11-.16.23-.23.36s-.21.34-.31.52l-.2.35c-.12.23-.25.46-.37.7l-.12.23c-.15.32-.3.64-.45,1l-.15.37c-.09.23-.19.48-.28.76s-.11.31-.17.47-.16.47-.23.71-.11.34-.15.51-.15.53-.22.8-.08.32-.13.49c-.1.42-.2.85-.28,1.3a3.2,3.2,0,0,1-.09.51q-.09.45-.16.93c0,.22-.06.44-.09.66s-.08.6-.11.9l-.07.7c0,.33-.06.68-.08,1a3.59,3.59,0,0,1,0,.64c0,.58-.06,1.15-.07,1.76-.36,21.2.88,24.31.88,24.31s2.57,6.76,9.65,7.25a12.34,12.34,0,0,0,3.11-.17c9.46-1.64,31.64-5.44,39.46-4,4.7.87,13.41-.42,19.61-1.59l1.63-.31,1.14,3.6,3.6-1,3,1.76,1.93,1.11c3.59,12.17,18.17,8,18.17,8l3.42,2,35.1.91s7.57,4.54,12.42,6a11.54,11.54,0,0,0,1.76.39,79.66,79.66,0,0,0,9.78.18c2.69-.07,4.77-.18,4.77-.18s-.36-9.53-.87-20.2c13.42-.56,25.31-1.4,32.51-2.67,18.75-3.29,26.57-20.34,29.45-29.45a85.7,85.7,0,0,1,1.84,11.3A80.81,80.81,0,0,0,1202,910a33.11,33.11,0,0,0,4,7.25c13.83-4.72,5.46-11.79,2.54-14.88s2-5.63,2-5.63,3.79-2.54,3.45-4.9-.55-4.9,11.82-4.72S1237.71,876.92,1237.71,876.92ZM1045.66,761.08c.16,1,1.89,12.22,3.44,15.14.33.62.45,2.82.41,6-7.33-.58-15-.89-15-.89a1.76,1.76,0,0,1,.39.93l-1.15-.26-1.67-.41,13.5-20.53Zm-26.74,42.55,12.68,2,1.07.17a41.73,41.73,0,0,0-.66,6c0,.19.29.42.7.68a16.33,16.33,0,0,0-.25,3c.2,1,6.13,3.17,12.93,5-.09.36-.18.71-.27,1h0c-6-3.16-15.47-4.63-16.56-7s-33.31-13.63-33.31-13.63-1.17-.62-3.2-1.61l8.48,1.61,2.33-.23a127.13,127.13,0,0,0,16.07,2.94Z"/><path class="cls-12" d="M1196.31,884.82s-5,30.46-30.64,35-111,3.6-111,3.6-48.85-7-66.51-48.31-29-57.69-13.88-58.41,96.8,27.58,101.46,27.94S1200.82,781.89,1196.31,884.82Z"/><path class="cls-13" d="M1196.31,884.82s-5,30.46-30.64,35-111,3.6-111,3.6-48.85-7-66.51-48.31-29-57.69-13.88-58.41,96.8,27.58,101.46,27.94S1200.82,781.89,1196.31,884.82Z"/><path class="cls-14" d="M967.17,918.7s2.55,6.72,9.57,7.2a12.44,12.44,0,0,0,3.08-.17c9.37-1.62,31.37-5.41,39.11-4,4.66.87,13.29-.42,19.43-1.57,4.09-.76,7.07-1.51,7.07-1.51s-7.21-24-8.12-24.69-32.44-19.65-32.44-19.65l-25-1.79h-.08a13.13,13.13,0,0,0-8.46,5c-2.64,3.19-4.91,8.43-5.06,17C965.95,915.64,967.17,918.7,967.17,918.7Z"/><path class="cls-13" d="M967.17,918.7s2.55,6.72,9.57,7.2a102.63,102.63,0,0,1-6.81-9.9l.13-17.48a30.73,30.73,0,0,1,9.84-25.95h-.08s-13.16.89-13.52,22S967.17,918.7,967.17,918.7Z"/><path class="cls-7" d="M1075.54,880.49l23.25-18.17,36.59-36.05s-4-.19-9.91-.45c-1.51.95-5.64,3.92-5.79,7.57-.18,4.41-9.9.3-14.94,2.82s-29.74,34.13-34.07,33.93-7.75-2.2-9.56.87c0,.07-.08.13-.13.2Z"/><path class="cls-7" d="M971.36,877.54c.83.4,1.66.76,2.51,1.15,17.67,7.57,39.48,23.47,41.11,26.32,1,1.76,13.63,9.43,23.39,15.19,4.09-.76,7.07-1.51,7.07-1.51s-7.21-24-8.12-24.69-32.44-19.65-32.44-19.65l-25-1.79h-.08A13.19,13.19,0,0,0,971.36,877.54Z"/><path class="cls-12" d="M922.33,825.87c2.34,5.77,22,27.95,22,27.95s12.43,16.22,30.1,23.79,39.48,23.47,41.1,26.32c1,1.85,15.14,10.33,25,16.16l2.22,1.29,4.92,2.85,2.6,1.51s6.06-4.85,12-9.72,11.83-9.65,11.93-9.93c.17-.54,2.51-6.67,2-7-.28-.19-1.51-2.69-3.79-5.58a25.61,25.61,0,0,0-9.18-7.57c-8.33-3.79-11.89-12.4-11.89-12.4s-.76-.58-2-1.33c-2.14-1.35-5.56-3.29-8.1-3.61-4-.5-11.36-8.61-11.36-8.61s-5.05-3.25-7-7.39c-1.89-4-29.85-23.15-32.44-24.92l67.77,43.52,16.22,10.43,23.25-18.17,36.6-36.05s-4.92-.24-12.11-.55c-17.79-.76-49.37-2-53.36-1.08a30.41,30.41,0,0,1-9.92.64s-9,.41-14.95-2.73-15.33-4.61-16.41-6.94-33-13.51-33-13.51-43.44-23.07-58.94-9.37S920,820.11,922.33,825.87Z"/><path class="cls-15" d="M1062.38,693.57l5.59,18.57,7.21,41.82,26.5,1.8,7.67-12.72,7.68-12.7s4.77-16.9,8.2-33.25c3-14.46,5-28.5,1.71-30-2.92-1.36-4.85-6.22-6.06-11.46-.16-.64-.3-1.3-.44-2a101.92,101.92,0,0,1-1.76-13.44s-55.52-2.88-47.77,20a36.48,36.48,0,0,1,2.09,12.17,28.94,28.94,0,0,1-.19,3.1A26,26,0,0,1,1062.38,693.57Z"/><path class="cls-8" d="M1050.85,690.5l2,31.54,4.5,26.86,5.05,12.44,4.5,68.05s43.47,5,54-.09a4.65,4.65,0,0,0,1.92-1.51c12.77-19.25,8.58-75.1,8.58-75.1l4.87-36.06L1133,697.91l-7.84-.83-6.06-.64s-1.36,1.68-3.33,4.28c-5.35,7.06-15.14,20.93-14.51,26.73.89,7.93-1.08,16-4.15,17.31s-5.59,3.42-6.13,1.26-1.08-2.7-.55-5.77-2.35-12.44-2.35-12.44-4.86-11-4.54-15.68-.54-10.1-2-11.36-3.42-2.53-1.8-8.33-7.11-17-7.11-17Z"/><path class="cls-7" d="M1108.26,769.28l1.8,53.9,10.41,5.77a4.66,4.66,0,0,0,1.92-1.51c12.77-19.28,8.59-75.12,8.59-75.12l4.87-36.05-3.25-18.71-7.84-.83c3-14.46,5-28.5,1.72-30-2.93-1.36-4.85-6.22-6.1-11.46h0l-5.6,38.16s.47,3.44.64,7c.13,2.63.08,5.3-.45,6.72-1.26,3.25-.36,9-.36,9-3.25,5.72-4.87,16.33-5.66,26.58C1107.85,756.3,1108.26,769.28,1108.26,769.28Z"/><path class="cls-14" d="M1120.54,654.4s9.09,1.13,12,4.91,10.46,4.31,10.46,4.31,8.65,2.88,8.47,3.6,2.52,1.81,7.93,3.25,14.39,6.67,14.39,7.93S1188,693.73,1188,695.17s4.33,6.81,3.79,16.4-1.08,21.63,1.08,23.62,0,9.74,0,9.74a5.3,5.3,0,0,0-.11,5.77c1.8,3.25-.36,16.77-.36,16.77l.17,14.06s-2,8.83.36,9.19-.36,4.32-.36,4.32-2,7.22.55,10.46,3.24,17.13,3.24,17.13l38.61,56s.55,10.27-11.71,10.09-12.11,2.35-11.72,4.69-3.42,4.87-3.42,4.87-4.87,2.52-2,5.59,11.18,10.09-2.52,14.78a32.68,32.68,0,0,1-4-7.21,81.55,81.55,0,0,1-2.88-9.73s-1.26-13.7-3.79-15.51-2.17-10.46-2.17-10.46,3.6-7-1.44-9.91-78.31-43.41-78.31-43.41l-1.8-53.9s-1.26-39.83,6.31-53.17c0,0-.9-5.77.36-9s-.18-13.7-.18-13.7Z"/><path class="cls-7" d="M1073.29,676s-18.12-3.73-23-1.21-14.39,4.54-15.9,6-5.05.36-8.29,8.84-3.61,17.12-7.75,21.09-6.31,6.67-6.49,9.56.54,3.6-1.08,4.54-4,4.69-3.25,6.13S1045.11,764,1045.11,764s1.81,12.11,3.43,15.14-1.8,45.25-5.41,48.13,24.33,2.62,24.33,2.62,1.26-27.67,2.34-29.12-.76-31-.76-31-.18-25.24,2.17-31.91,2.08-28.82,2.08-28.82,2.07-13.3,4.6-16.41S1073.29,676,1073.29,676Z"/><path class="cls-14" d="M1072.76,675.49s-18.13-3.73-23-1.21-14.39,4.5-15.86,6-5,.36-8.33,8.83-3.6,17.13-7.75,21.09-6.31,6.67-6.49,9.56.55,3.6-1.08,4.5-4,4.69-3.25,6.13,37.49,33.17,37.49,33.17,1.8,12.11,3.42,15.14-1.8,45.24-5.41,48.12,24.33,2.62,24.33,2.62,1.26-27.67,2.35-29.11-.76-31-.76-31-.17-25.24,2.17-31.91,2.08-28.85,2.08-28.85,2.07-13.3,4.59-16.4S1072.76,675.49,1072.76,675.49Z"/><path class="cls-7" d="M1070.85,660.22a36.48,36.48,0,0,1,2.09,12.17,41.36,41.36,0,0,0,47.43-18.75,101.92,101.92,0,0,1-1.76-13.44S1063.1,637.33,1070.85,660.22Z"/><path class="cls-15" d="M1043.46,631.73a41.28,41.28,0,1,0,.89-8.58A41.28,41.28,0,0,0,1043.46,631.73Z"/><path class="cls-14" d="M1017,727.27l-9.91,3.07s.9,3.6-2,5.41-2.52,5.41-2.52,5.41-1.08,4-3.6,4.86-4.15,6.81-4.15,6.81l-8.29,9.56s-3.07,2.52-2.52,3.79-3.25,1.62-3.25,1.62l2,32.12,17.13,3.25,10.6-1.08,8.65-3.25,7.57-4.54,3.45-8.76,15.14-23.07Z"/><path class="cls-15" d="M983.25,770.38s-22-31.73-38.39-14.61,6.67,44.88,12.08,44,31.19-2.34,31.19-2.34Z"/><rect class="cls-2" x="942.4" y="750.64" width="46.5" height="52.85" rx="9.56" ry="9.56" transform="translate(-271.87 846.82) rotate(-42.05)"/><rect class="cls-7" x="942.4" y="750.64" width="46.5" height="52.85" rx="9.56" ry="9.56" transform="translate(-271.87 846.82) rotate(-42.05)"/><rect class="cls-2" x="943.02" y="748.03" width="46.5" height="52.85" rx="9.56" ry="9.56" transform="translate(-269.96 846.56) rotate(-42.05)"/><circle class="cls-3" cx="965.69" cy="775.76" r="10.27"/><circle class="cls-7" cx="965.69" cy="775.76" r="10.27"/><circle class="cls-3" cx="966.27" cy="774.45" r="10.27"/><path class="cls-15" d="M969,777c-.18,23.8,49,28.84,49,28.84l12.57,2,5.63.89,2.35-23.23s-2.58-.39-5.81-1.14c-4.76-1.11-10.93-3-12.23-5.72C1018.4,774.17,969.19,753.23,969,777Z"/><path class="cls-7" d="M1044.35,623.15a4.9,4.9,0,0,1,3,1.35c1.39,1.48,1.47,4.1,3.28,5a3.73,3.73,0,0,0,2.15.25c4.79-.68,7.57-6.06,12.17-7.57a12.27,12.27,0,0,1,8.06.69,6,6,0,0,1,2.67,1.72c1.51,2,.46,4.92,1.17,7.34,1,3.35,5,4.68,8.45,5.12s7.36.68,9.67,3.29a8.77,8.77,0,0,1,1.72,7,5.52,5.52,0,0,0,0,2.58c1,2.7,5.63,2.27,6.85.17.89-1.55.62-2.84,2.73-3.27a9,9,0,0,1,4.41.76,32.34,32.34,0,0,0,11.42,1.76,41.29,41.29,0,1,0-77.78-26.15Z"/><path class="cls-12" d="M1096.7,648.81a5.52,5.52,0,0,1,0-2.58,8.78,8.78,0,0,0-1.72-7c-2.27-2.61-6.21-2.86-9.67-3.29s-7.46-1.76-8.45-5.11c-.71-2.42.36-5.35-1.17-7.34a5.91,5.91,0,0,0-2.67-1.71,12.44,12.44,0,0,0-8.07-.7c-4.6,1.51-7.37,6.91-12.17,7.57a3.73,3.73,0,0,1-2.15-.25c-1.81-.91-1.89-3.53-3.28-5-2.19-2.32-6.34-.83-9-2.54-1.75-1.13-2.42-3.32-2.91-5.34-1-3.92-1.72-8-.8-12,1.57-6.71,7.57-11.3,11.36-17,3.57-5.34,5.56-12.11,10.93-15.63s12.24-2.73,18.28-.94a56.43,56.43,0,0,0,8.56,2.27c4.88.6,9.77-.76,14.67-.89a31.51,31.51,0,0,1,19.38,5.88,10.72,10.72,0,0,1,3.16,3.2c1,1.73,1.11,3.79,1.4,5.74a29.34,29.34,0,0,0,3.79,10.55c1.51,2.54,3.41,4.84,4.79,7.46s2.17,5.72,1.29,8.53c-.46,1.51-1.38,2.82-1.72,4.35-.8,3.52,1.51,6.88,3.1,10.13a19,19,0,0,1,2.1,9.61,12.11,12.11,0,0,1-4.32,8.64c-2.55,2-5.91,2.67-9.14,2.77a32.39,32.39,0,0,1-11.64-1.75c-1.32-.45-3-1.05-4.41-.76-2.1.43-1.83,1.72-2.73,3.27C1102.32,651.11,1097.65,651.51,1096.7,648.81Z"/><path class="cls-7" d="M1074.46,881.57l23.25-18.17,36.6-36.05s-4.92-.24-12.11-.55a7.82,7.82,0,0,0-2.55,4.92c-.18,4.41-9.9.31-14.94,2.83s-29.74,34.12-34.07,33.92-7.75-2.2-9.56.87l-.13.2a5.13,5.13,0,0,1-2.75,1.63Z"/><path class="cls-12" d="M1027.59,880.31l11.68,37.3,1.83,5.86,5.56-1.51,12.27-3.37,54.64-15a47.6,47.6,0,0,0,19.69-5.25,59.55,59.55,0,0,1,34-7.4c7.22.67,15.26-2.44,22-14.75,0,0,15.14-44.67-23.08-57.54s-40,6.81-40,6.81-.2.11-.51.32c-1.51.95-5.64,3.92-5.79,7.57-.18,4.41-9.9.3-14.94,2.82s-29.74,34.13-34.07,33.93-7.75-2.2-9.56.87c0,.07-.08.13-.13.2-1.33,1.84-5.35,2.27-8,2.34-1.45,0-2.5,0-2.5,0l-.34.11-2.83.79Z"/><path class="cls-7" d="M1030.61,807.86l5.63.89,2.35-23.23s-2.58-.39-5.81-1.14C1033.64,787.6,1031.7,800.15,1030.61,807.86Z"/><path class="cls-7" d="M1178,699.21s16.76-4.87,12.61,42.73-35.15,77.66-35.15,77.66-35.69,15.68-51.74,13.16a275,275,0,0,0-27.76-3,40.73,40.73,0,0,0-16.23-4.32c-9-.36-27.94-6-28.3-7.75s4.69-28.3,2.52-30.29c0,0,25.24,1,27.76,2.86s6.13.51,8.83,0,11-7.73,27.4-1.42c0,0,5.59.54,7.75-.9s5.63-.36,5.63-.36,3.4-1.26,3.92-2,4.86,0,4.86,0a1.92,1.92,0,0,0,2.71-1.26,11.78,11.78,0,0,1,2.52-4s4.87-27.4,14.06-37.68c0,0,2.7-2.35,2-5.23S1156.41,693.43,1178,699.21Z"/><path class="cls-14" d="M1177.61,695.54s16.76-4.87,12.62,42.73S1155,816,1155,816s-35.69,15.68-51.74,13.16-27.76-3.07-27.76-3.07a40.67,40.67,0,0,0-16.23-4.32c-9-.36-27.94-6-28.3-7.75s4.69-28.3,2.53-30.29c0,0,25.24,1,27.76,2.86s6.13.51,8.84,0,11-7.72,27.4-1.42c0,0,5.59.54,7.75-.9s5.64-.36,5.64-.36,3.38-1.26,3.91-2,4.87,0,4.87,0a1.92,1.92,0,0,0,2.7-1.26,11.77,11.77,0,0,1,2.52-4s4.87-27.4,14.06-37.68c0,0,2.7-2.35,2-5.22S1155.94,689.77,1177.61,695.54Z"/><path class="cls-7" d="M1047.38,874.39l23.8,28.77c.09-.08.15-.14.15-.17.18-.55,2.52-6.67,2-7s-4.69-9.37-13-13.16a24.4,24.4,0,0,1-10.19-9.27Z"/><path class="cls-7" d="M1047.7,924.24l2.6,1.51s6.06-4.85,12-9.72,11.83-9.65,11.93-9.93c.17-.54,2.51-6.67,2-7-.28-.19-1.51-2.69-3.79-5.58-16.14-4.54-5.87,6.69-4.5,7.2,0,0-19.69-4.54-20.73,16.89A25.26,25.26,0,0,0,1047.7,924.24Z"/><path class="cls-14" d="M1067.61,933.31l3.43,2,34.83.9s7.47,4.54,12.31,5.92a10.55,10.55,0,0,0,1.75.39,78.18,78.18,0,0,0,9.69.18c2.67-.07,4.73-.18,4.73-.18s-1.65-43.91-2.89-48.46c-.59-2.21-3.51-1.73-6.38-.62a41.79,41.79,0,0,0-6.23,3.16s-14.78,1.43-17.13,2.7-9-.76-13.16,0S1077,894.4,1077,894.4c-20.19-6.66-8.84,5.77-7.4,6.31,0,0-19.64-4.54-20.72,16.89S1067.61,933.31,1067.61,933.31Z"/><path class="cls-14" d="M1117.91,916.36c.38,9.09,7.46,20.36,11.68,26.32,2.67-.07,4.73-.18,4.73-.18s-1.65-43.91-2.89-48.46c-.59-2.21-3.51-1.73-6.38-.62C1121.58,899.93,1117.6,909,1117.91,916.36Z"/><path class="cls-7" d="M1117.91,916.36c.38,9.09,7.46,20.36,11.68,26.32,2.67-.07,4.73-.18,4.73-.18s-1.65-43.91-2.89-48.46c-.59-2.21-3.51-1.73-6.38-.62C1121.58,899.93,1117.6,909,1117.91,916.36Z"/><path class="cls-13" d="M1112,917.57c2.39,8.77,2.37,18.6,6.19,24.55a10.55,10.55,0,0,0,1.75.39,78.18,78.18,0,0,0,9.69.18c2.67-.07,4.73-.18,4.73-.18s-1.65-43.91-2.89-48.46c-.59-2.21-3.51-1.73-6.38-.62a41.79,41.79,0,0,0-6.23,3.16S1108.9,906.35,1112,917.57Z"/><path class="cls-7" d="M991.93,828.63s17.28,5.61,31.92,25.54Z"/><g class="cls-16"><path d="M1132.35,612.33a3.53,3.53,0,0,1-.11.38,12.23,12.23,0,0,1-.6,1.51A11.31,11.31,0,0,1,1132.35,612.33Z"/><path d="M1034.59,603.59a16.25,16.25,0,0,1,1.34-3.64c-.09.31-.19.62-.26.94-.92,3.92-.15,8,.8,12,.49,2,1.16,4.21,2.91,5.34,2.69,1.72,6.81.22,9,2.54,1.39,1.48,1.47,4.1,3.29,5a3.72,3.72,0,0,0,2.15.25c4.79-.68,7.57-6.06,12.17-7.57a12.23,12.23,0,0,1,8.06.7,5.91,5.91,0,0,1,2.67,1.71c1.51,2,.46,4.93,1.17,7.34,1,3.35,5,4.68,8.45,5.11s7.36.68,9.67,3.3a8.77,8.77,0,0,1,1.72,7,5.62,5.62,0,0,0,0,2.58c1,2.7,5.63,2.27,6.81.17.89-1.55.63-2.84,2.73-3.27a9,9,0,0,1,4.41.76,32.39,32.39,0,0,0,11.64,1.75c3.23-.11,6.59-.76,9.14-2.77a10.6,10.6,0,0,0,2.8-3.41,11.46,11.46,0,0,1-3.86,6.12c-2.54,2-5.9,2.67-9.14,2.77a32.32,32.32,0,0,1-11.64-1.75c-1.32-.45-3-1.05-4.41-.76-2.1.43-1.84,1.72-2.73,3.27-1.23,2.14-5.9,2.54-6.86-.17a5.62,5.62,0,0,1,0-2.58,8.75,8.75,0,0,0-1.71-7c-2.32-2.61-6.22-2.86-9.68-3.29s-7.46-1.76-8.44-5.11c-.72-2.42.36-5.35-1.17-7.34a6,6,0,0,0-2.67-1.71,12.42,12.42,0,0,0-8.06-.7c-4.6,1.51-7.38,6.91-12.17,7.57a3.72,3.72,0,0,1-2.15-.25c-1.82-.91-1.89-3.53-3.29-5-2.19-2.32-6.34-.83-9-2.54-1.76-1.13-2.42-3.32-2.91-5.34C1034.43,611.62,1033.67,607.51,1034.59,603.59Z"/></g><path class="cls-7" d="M1135.15,747.86c-3.3,4.46-7.07,8.59-10,13.3s-5,10.22-4.38,15.73c3-3.1,4.41-7.39,6.31-11.28,3.23-6.59,8.06-12.17,12.11-18.23.76-1.16,5.76-7.84,3.24-8.15C1140.37,739,1136.27,746.34,1135.15,747.86Z"/></g></g></svg>